<?xml version="1.0" encoding="UTF-8"?>
<svg width="27px" height="33px" viewBox="0 0 27 33" version="1.1" xmlns="http://www.w3.org/2000/svg" xmlns:xlink="http://www.w3.org/1999/xlink">
    <title>library_icon</title>
    <g id="Page-1" stroke="none" stroke-width="1" fill="none" fill-rule="evenodd">
        <g id="App-Icons" transform="translate(-209.000000, -220.000000)" fill="#75AEFF" fill-rule="nonzero">
            <g id="device_icons" transform="translate(209.571777, 176.296875)">
                <g id="library_icon" transform="translate(0.193848, 44.121582)">
                    <path d="M23.8408203,31.8364258 C24.2054036,31.8364258 24.5105387,31.7132975 24.7562256,31.467041 C25.0019124,31.2207845 25.1247559,30.9153646 25.1247559,30.5507812 C25.1247559,30.2625326 25.0363363,30.0048828 24.8594971,29.777832 C24.6826579,29.5507812 24.468099,29.3881836 24.2158203,29.2900391 C23.5999349,29.0299479 23.1593424,28.6152344 22.894043,28.0458984 C22.6287435,27.4765625 22.56604,26.851359 22.7059326,26.1702881 C22.8458252,25.4892171 23.2246094,24.8479004 23.8422852,24.2463379 C24.167806,23.9409993 24.4621989,23.5795492 24.7254639,23.1619873 C24.9887288,22.7444255 25.1203613,22.1634115 25.1203613,21.4189453 L25.1203613,4.75390625 C25.1203613,3.18408203 24.7275798,1.99930827 23.9420166,1.19958496 C23.1564535,0.399861654 21.9839681,0 20.4245605,0 L4.69580078,0 C3.14583333,0 1.97570801,0.399861654 1.1854248,1.19958496 C0.395141602,1.99930827 0,3.18408203 0,4.75390625 L0,27.1533203 C0,28.7042643 0.392781576,29.8725179 1.17834473,30.6580811 C1.96390788,31.4436442 3.12695312,31.8364258 4.66748047,31.8364258 L23.8408203,31.8364258 Z M6.416375,2.66754297 L20.2331543,2.66674805 C20.9768066,2.66674805 21.5351562,2.85636393 21.9082031,3.2355957 C22.28125,3.61482747 22.4677734,4.16064453 22.4677734,4.87304688 L22.4677734,21.0319824 C22.4677734,21.8169759 22.06014,22.209543 21.244873,22.209543 L6.416375,22.209543 L6.416375,2.66754297 Z M2.66674805,22.7751465 L2.66674805,4.87304688 C2.66674805,4.16064453 2.85091146,3.61482747 3.21923828,3.2355957 C3.47706706,2.97013346 3.82453776,2.79758301 4.26165039,2.71794434 L4.397375,2.69854297 L4.397375,22.238543 L4.19021973,22.2619434 C4.02380697,22.2852637 3.86424967,22.3163574 3.71154785,22.3552246 C3.32979329,22.4523926 2.98152669,22.5923665 2.66674805,22.7751465 Z M20.6789551,29.2668457 L4.92236328,29.2668457 C4.15218099,29.2668457 3.57059733,29.067098 3.1776123,28.6676025 C2.78462728,28.2681071 2.58813477,27.7151693 2.58813477,27.0087891 C2.58813477,26.3496094 2.80607096,25.8155518 3.24194336,25.4066162 C3.67781576,24.9976807 4.27604167,24.7932129 5.03662109,24.7932129 L20.003418,24.7932129 C20.1829427,24.7932129 20.3505046,24.7790527 20.5061035,24.7507324 C20.1459147,25.517334 19.9862061,26.2987874 20.0269775,27.0950928 C20.067749,27.8913981 20.2850749,28.6153158 20.6789551,29.2668457 Z" id="􀤞"></path>
                    <path d="M12.234375,18.581543 L12.234375,17.446949 C10.9115404,17.446949 10.6175771,17.2467265 10.6175771,16.1788733 L10.6175771,14.777316 C10.6175771,14.6027834 10.5695373,14.4368939 10.4906027,14.2801978 C10.0322554,13.3703151 8.53221474,12.770411 9.34723589,12.5882171 C10.3026165,12.3746464 10.6175771,11.5871047 10.6175771,10.3857699 L10.6175771,8.9842126 C10.6175771,7.91635943 10.9115404,7.71613696 12.234375,7.71613696 L12.234375,6.58154297 C10.3656086,6.59489113 9.67269521,7.22225487 9.67269521,8.97086444 L9.67269521,10.7728667 C9.67269521,11.4135786 9.39972933,12.0809868 8.7488107,12.0809868 L8.234375,12.0809868 L8.234375,13.0954473 L8.7488107,13.0954473 C9.39972933,13.0954473 9.67269521,13.7628555 9.67269521,14.4035674 L9.67269521,16.1922215 C9.67269521,17.9408311 10.3656086,18.581543 12.234375,18.581543 Z M16.234375,18.581543 C18.1031414,18.581543 18.7855561,17.9408311 18.7855561,16.1922215 L18.7855561,14.3902193 C18.7855561,13.7495074 19.0690207,13.0820991 19.7199393,13.0820991 L20.234375,13.0820991 L20.234375,12.0676386 L19.7199393,12.0676386 C19.0690207,12.0676386 18.7855561,11.4002304 18.7855561,10.7595185 L18.7855561,8.97086444 C18.7855561,7.22225487 18.1031414,6.58154297 16.234375,6.58154297 L16.234375,7.71613696 C17.546711,7.71613696 17.8406742,7.91635943 17.8406742,8.9842126 L17.8406742,10.3857699 C17.8406742,11.5737565 20.066396,12.3612983 19.1110154,12.5748689 C18.1556348,12.7884395 17.8406742,13.5759812 17.8406742,14.777316 L17.8406742,16.1788733 C17.8406742,17.2467265 17.546711,17.446949 16.234375,17.446949 L16.234375,18.581543 Z" id="{}" stroke="#75AEFF"></path>
                </g>
            </g>
        </g>
    </g>
</svg>