<?xml version="1.0" encoding="UTF-8"?>
<svg width="21px" height="33px" viewBox="0 0 21 33" version="1.1" xmlns="http://www.w3.org/2000/svg" xmlns:xlink="http://www.w3.org/1999/xlink">
    <title>phone_icon</title>
    <g id="Page-1" stroke="none" stroke-width="1" fill="none" fill-rule="evenodd">
        <g id="App-Icons" transform="translate(-212.000000, -176.000000)" fill="#75AEFF" fill-rule="nonzero">
            <g id="device_icons" transform="translate(209.571777, 176.296875)">
                <path d="M18.4782715,31.9465332 C19.7033691,31.9465332 20.6937256,31.583374 21.4493408,30.8570557 C22.2049561,30.1307373 22.5827637,29.1708984 22.5827637,27.9775391 L22.5827637,4.06347656 C22.5827637,2.87939453 22.2049561,1.921875 21.4493408,1.19091797 C20.6937256,0.459960938 19.7033691,0.0944824219 18.4782715,0.0944824219 L7.1550293,0.0944824219 C5.91040039,0.0944824219 4.90673828,0.459960938 4.14404297,1.19091797 C3.38134766,1.921875 3,2.87882487 3,4.06176758 L3,27.9790039 C3,29.1713867 3.38134766,30.1307373 4.14404297,30.8570557 C4.90673828,31.583374 5.91040039,31.9465332 7.1550293,31.9465332 L18.4782715,31.9465332 Z M18.032959,29.2878418 L7.55297852,29.2878418 C6.94799805,29.2878418 6.48238118,29.1304118 6.15612793,28.8155518 C5.82987467,28.5006917 5.66674805,28.0533854 5.66674805,27.4736328 L5.66674805,4.56860352 C5.66674805,3.98999023 5.82987467,3.54325358 6.15612793,3.22839355 C6.48238118,2.91353353 6.94799805,2.75610352 7.55297852,2.75610352 L18.032959,2.75610352 C18.6377767,2.75610352 19.1054688,2.91402181 19.4360352,3.2298584 C19.7666016,3.54569499 19.9318848,3.99243164 19.9318848,4.57006836 L19.9318848,27.472168 C19.9318848,28.0507812 19.7666016,28.4980469 19.4360352,28.8139648 C19.1054688,29.1298828 18.6377767,29.2878418 18.032959,29.2878418 Z M9.65869141,7.36230469 C10.0472005,7.36230469 10.2414551,7.18424479 10.2414551,6.828125 L10.2414551,5.39428711 C10.2414551,5.02856445 10.0472005,4.84570312 9.65869141,4.84570312 L8.25756836,4.84570312 C7.90128581,4.84570312 7.72314453,5.02856445 7.72314453,5.39428711 L7.72314453,6.828125 C7.72314453,7.18424479 7.90128581,7.36230469 8.25756836,7.36230469 L9.65869141,7.36230469 Z M13.4770508,7.36230469 C13.8645833,7.36230469 14.0583496,7.18424479 14.0583496,6.828125 L14.0583496,5.39428711 C14.0583496,5.02856445 13.8645833,4.84570312 13.4770508,4.84570312 L12.0759277,4.84570312 C11.7103678,4.84570312 11.5275879,5.02856445 11.5275879,5.39428711 L11.5275879,6.828125 C11.5275879,7.18424479 11.7103678,7.36230469 12.0759277,7.36230469 L13.4770508,7.36230469 Z M17.2783203,7.36230469 C17.6668294,7.36230469 17.861084,7.18424479 17.861084,6.828125 L17.861084,5.39428711 C17.861084,5.02856445 17.6668294,4.84570312 17.2783203,4.84570312 L15.8771973,4.84570312 C15.5116374,4.84570312 15.3288574,5.02856445 15.3288574,5.39428711 L15.3288574,6.828125 C15.3288574,7.18424479 15.5116374,7.36230469 15.8771973,7.36230469 L17.2783203,7.36230469 Z M9.65869141,11.3962402 C10.0472005,11.3962402 10.2414551,11.218099 10.2414551,10.8618164 L10.2414551,9.41235352 C10.2414551,9.05607096 10.0472005,8.87792969 9.65869141,8.87792969 L8.25756836,8.87792969 C7.90128581,8.87792969 7.72314453,9.05607096 7.72314453,9.41235352 L7.72314453,10.8618164 C7.72314453,11.218099 7.90128581,11.3962402 8.25756836,11.3962402 L9.65869141,11.3962402 Z M13.4770508,11.3962402 C13.8645833,11.3962402 14.0583496,11.218099 14.0583496,10.8618164 L14.0583496,9.41235352 C14.0583496,9.05607096 13.8645833,8.87792969 13.4770508,8.87792969 L12.0759277,8.87792969 C11.7103678,8.87792969 11.5275879,9.05607096 11.5275879,9.41235352 L11.5275879,10.8618164 C11.5275879,11.218099 11.7103678,11.3962402 12.0759277,11.3962402 L13.4770508,11.3962402 Z M17.2783203,11.3962402 C17.6668294,11.3962402 17.861084,11.218099 17.861084,10.8618164 L17.861084,9.41235352 C17.861084,9.05607096 17.6668294,8.87792969 17.2783203,8.87792969 L15.8771973,8.87792969 C15.5116374,8.87792969 15.3288574,9.05607096 15.3288574,9.41235352 L15.3288574,10.8618164 C15.3288574,11.218099 15.5116374,11.3962402 15.8771973,11.3962402 L17.2783203,11.3962402 Z M9.65869141,15.4438477 C10.0472005,15.4438477 10.2414551,15.2558594 10.2414551,14.8798828 L10.2414551,13.4602051 C10.2414551,13.0852051 10.0472005,12.8977051 9.65869141,12.8977051 L8.25756836,12.8977051 C7.90128581,12.8977051 7.72314453,13.0852051 7.72314453,13.4602051 L7.72314453,14.8798828 C7.72314453,15.2558594 7.90128581,15.4438477 8.25756836,15.4438477 L9.65869141,15.4438477 Z M13.4770508,15.4438477 C13.8645833,15.4438477 14.0583496,15.2558594 14.0583496,14.8798828 L14.0583496,13.4602051 C14.0583496,13.0852051 13.8645833,12.8977051 13.4770508,12.8977051 L12.0759277,12.8977051 C11.7103678,12.8977051 11.5275879,13.0852051 11.5275879,13.4602051 L11.5275879,14.8798828 C11.5275879,15.2558594 11.7103678,15.4438477 12.0759277,15.4438477 L13.4770508,15.4438477 Z M9.65869141,27.28125 C10.0472005,27.28125 10.2414551,27.1031901 10.2414551,26.7470703 L10.2414551,25.2973633 C10.2414551,24.9412435 10.0472005,24.7631836 9.65869141,24.7631836 L8.25756836,24.7631836 C7.90128581,24.7631836 7.72314453,24.9412435 7.72314453,25.2973633 L7.72314453,26.7470703 C7.72314453,27.1031901 7.90128581,27.28125 8.25756836,27.28125 L9.65869141,27.28125 Z M13.4770508,27.28125 C13.8645833,27.28125 14.0583496,27.1031901 14.0583496,26.7470703 L14.0583496,25.2973633 C14.0583496,24.9412435 13.8645833,24.7631836 13.4770508,24.7631836 L12.0759277,24.7631836 C11.7103678,24.7631836 11.5275879,24.9412435 11.5275879,25.2973633 L11.5275879,26.7470703 C11.5275879,27.1031901 11.7103678,27.28125 12.0759277,27.28125 L13.4770508,27.28125 Z M17.2783203,27.28125 C17.6668294,27.28125 17.861084,27.1031901 17.861084,26.7470703 L17.861084,25.2973633 C17.861084,24.9412435 17.6668294,24.7631836 17.2783203,24.7631836 L15.8771973,24.7631836 C15.5116374,24.7631836 15.3288574,24.9412435 15.3288574,25.2973633 L15.3288574,26.7470703 C15.3288574,27.1031901 15.5116374,27.28125 15.8771973,27.28125 L17.2783203,27.28125 Z" id="phone_icon"></path>
            </g>
        </g>
    </g>
</svg>