<?xml version="1.0" encoding="UTF-8"?>
<svg width="36px" height="29px" viewBox="0 0 36 29" version="1.1" xmlns="http://www.w3.org/2000/svg" xmlns:xlink="http://www.w3.org/1999/xlink">
    <title>tablet_icon</title>
    <g id="Page-1" stroke="none" stroke-width="1" fill="none" fill-rule="evenodd">
        <g id="App-Icons" transform="translate(-265.000000, -178.000000)" fill="#75AEFF" fill-rule="nonzero">
            <g id="device_icons" transform="translate(209.571777, 176.296875)">
                <path d="M86.5227051,29.7573242 C88.1019694,29.7573242 89.2888184,29.3621826 90.083252,28.5718994 C90.8776855,27.7816162 91.2749023,26.6110026 91.2749023,25.0600586 L91.2749023,7.04638672 C91.2749023,5.49641927 90.8776855,4.32629395 90.083252,3.53601074 C89.2888184,2.74572754 88.1019694,2.35058594 86.5227051,2.35058594 L60.9460449,2.35058594 C59.3771973,2.35058594 58.1929525,2.74336751 57.3933105,3.52893066 C56.5936686,4.31449382 56.1938477,5.48697917 56.1938477,7.04638672 L56.1938477,25.0600586 C56.1938477,26.6204427 56.5939535,27.7934163 57.394165,28.5789795 C58.1943766,29.3645426 59.3793945,29.7573242 60.9492188,29.7573242 L86.5227051,29.7573242 Z M86.4174805,27.1047363 L61.0541992,27.1047363 C60.351237,27.1047363 59.81014,26.9184977 59.4309082,26.5460205 C59.0516764,26.1735433 58.8620605,25.6153971 58.8620605,24.871582 L58.8620605,7.23779297 C58.8620605,6.49397786 59.0514323,5.93558757 59.4301758,5.56262207 C59.8089193,5.18965658 60.3492839,5.00317383 61.0512695,5.00317383 L86.4174805,5.00317383 C87.1206055,5.00317383 87.6641439,5.18965658 88.0480957,5.56262207 C88.4320475,5.93558757 88.6240234,6.49397786 88.6240234,7.23779297 L88.6240234,24.871582 C88.6240234,25.6153971 88.4320475,26.1735433 88.0480957,26.5460205 C87.6641439,26.9184977 87.1206055,27.1047363 86.4174805,27.1047363 Z M63.8508301,10.6530762 C64.0705566,10.6530762 64.2533366,10.5877279 64.3991699,10.4570312 C64.5450033,10.3263346 64.6179199,10.1573079 64.6179199,9.94995117 L64.6179199,8.44335938 C64.6179199,8.23502604 64.5450033,8.0629069 64.3991699,7.92700195 C64.2533366,7.79109701 64.0705566,7.72314453 63.8508301,7.72314453 L62.3925781,7.72314453 C62.1936849,7.72314453 62.0265299,7.79109701 61.8911133,7.92700195 C61.7556966,8.0629069 61.6879883,8.23502604 61.6879883,8.44335938 L61.6879883,9.94995117 C61.6879883,10.1478678 61.7556966,10.3145345 61.8911133,10.4499512 C62.0265299,10.5853678 62.1936849,10.6530762 62.3925781,10.6530762 L63.8508301,10.6530762 Z M69.140625,10.6530762 C69.3603516,10.6530762 69.5431315,10.5877279 69.6889648,10.4570312 C69.8347982,10.3263346 69.9077148,10.1573079 69.9077148,9.94995117 L69.9077148,8.44335938 C69.9077148,8.23502604 69.8347982,8.0629069 69.6889648,7.92700195 C69.5431315,7.79109701 69.3603516,7.72314453 69.140625,7.72314453 L67.6965332,7.72314453 C67.4881999,7.72314453 67.3160807,7.79109701 67.1801758,7.92700195 C67.0442708,8.0629069 66.9763184,8.23502604 66.9763184,8.44335938 L66.9763184,9.94995117 C66.9763184,10.1478678 67.0440267,10.3145345 67.1794434,10.4499512 C67.31486,10.5853678 67.4872233,10.6530762 67.6965332,10.6530762 L69.140625,10.6530762 Z M74.4416504,10.6530762 C74.6604004,10.6530762 74.8426921,10.5877279 74.9885254,10.4570312 C75.1343587,10.3263346 75.2072754,10.1573079 75.2072754,9.94995117 L75.2072754,8.44335938 C75.2072754,8.23502604 75.1343587,8.0629069 74.9885254,7.92700195 C74.8426921,7.79109701 74.6604004,7.72314453 74.4416504,7.72314453 L72.9833984,7.72314453 C72.7854818,7.72314453 72.6183268,7.79109701 72.4819336,7.92700195 C72.3455404,8.0629069 72.2773438,8.23502604 72.2773438,8.44335938 L72.2773438,9.94995117 C72.2773438,10.1478678 72.3452962,10.3145345 72.4812012,10.4499512 C72.6171061,10.5853678 72.7845052,10.6530762 72.9833984,10.6530762 L74.4416504,10.6530762 Z M79.7285156,10.6530762 C79.9482422,10.6530762 80.1286621,10.5877279 80.2697754,10.4570312 C80.4108887,10.3263346 80.4814453,10.1573079 80.4814453,9.94995117 L80.4814453,8.44335938 C80.4814453,8.23502604 80.4108887,8.0629069 80.2697754,7.92700195 C80.1286621,7.79109701 79.9482422,7.72314453 79.7285156,7.72314453 L78.2687988,7.72314453 C78.0708822,7.72314453 77.9042155,7.79109701 77.7687988,7.92700195 C77.6333822,8.0629069 77.5656738,8.23502604 77.5656738,8.44335938 L77.5656738,9.94995117 C77.5656738,10.1478678 77.6333822,10.3145345 77.7687988,10.4499512 C77.9042155,10.5853678 78.0708822,10.6530762 78.2687988,10.6530762 L79.7285156,10.6530762 Z M85.0168457,10.6530762 C85.2365723,10.6530762 85.4193522,10.5877279 85.5651855,10.4570312 C85.7110189,10.3263346 85.7839355,10.1573079 85.7839355,9.94995117 L85.7839355,8.44335938 C85.7839355,8.23502604 85.7110189,8.0629069 85.5651855,7.92700195 C85.4193522,7.79109701 85.2365723,7.72314453 85.0168457,7.72314453 L83.5585938,7.72314453 C83.3597005,7.72314453 83.1925456,7.79109701 83.0571289,7.92700195 C82.9217122,8.0629069 82.8540039,8.23502604 82.8540039,8.44335938 L82.8540039,9.94995117 C82.8540039,10.1478678 82.9217122,10.3145345 83.0571289,10.4499512 C83.1925456,10.5853678 83.3597005,10.6530762 83.5585938,10.6530762 L85.0168457,10.6530762 Z M63.8508301,15.5158691 C64.0705566,15.5158691 64.2533366,15.4505208 64.3991699,15.3198242 C64.5450033,15.1891276 64.6179199,15.0201009 64.6179199,14.8127441 L64.6179199,13.3061523 C64.6179199,13.097819 64.5450033,12.9256999 64.3991699,12.7897949 C64.2533366,12.65389 64.0705566,12.5859375 63.8508301,12.5859375 L62.3925781,12.5859375 C62.1936849,12.5859375 62.0265299,12.65389 61.8911133,12.7897949 C61.7556966,12.9256999 61.6879883,13.097819 61.6879883,13.3061523 L61.6879883,14.8127441 C61.6879883,15.0106608 61.7556966,15.1773275 61.8911133,15.3127441 C62.0265299,15.4481608 62.1936849,15.5158691 62.3925781,15.5158691 L63.8508301,15.5158691 Z M69.140625,15.5158691 C69.3603516,15.5158691 69.5431315,15.4505208 69.6889648,15.3198242 C69.8347982,15.1891276 69.9077148,15.0201009 69.9077148,14.8127441 L69.9077148,13.3061523 C69.9077148,13.097819 69.8347982,12.9256999 69.6889648,12.7897949 C69.5431315,12.65389 69.3603516,12.5859375 69.140625,12.5859375 L67.6965332,12.5859375 C67.4881999,12.5859375 67.3160807,12.65389 67.1801758,12.7897949 C67.0442708,12.9256999 66.9763184,13.097819 66.9763184,13.3061523 L66.9763184,14.8127441 C66.9763184,15.0106608 67.0440267,15.1773275 67.1794434,15.3127441 C67.31486,15.4481608 67.4872233,15.5158691 67.6965332,15.5158691 L69.140625,15.5158691 Z M74.4416504,15.5158691 C74.6604004,15.5158691 74.8426921,15.4505208 74.9885254,15.3198242 C75.1343587,15.1891276 75.2072754,15.0201009 75.2072754,14.8127441 L75.2072754,13.3061523 C75.2072754,13.097819 75.1343587,12.9256999 74.9885254,12.7897949 C74.8426921,12.65389 74.6604004,12.5859375 74.4416504,12.5859375 L72.9833984,12.5859375 C72.7854818,12.5859375 72.6183268,12.65389 72.4819336,12.7897949 C72.3455404,12.9256999 72.2773438,13.097819 72.2773438,13.3061523 L72.2773438,14.8127441 C72.2773438,15.0106608 72.3452962,15.1773275 72.4812012,15.3127441 C72.6171061,15.4481608 72.7845052,15.5158691 72.9833984,15.5158691 L74.4416504,15.5158691 Z M79.7285156,15.5158691 C79.9482422,15.5158691 80.1286621,15.4505208 80.2697754,15.3198242 C80.4108887,15.1891276 80.4814453,15.0201009 80.4814453,14.8127441 L80.4814453,13.3061523 C80.4814453,13.097819 80.4108887,12.9256999 80.2697754,12.7897949 C80.1286621,12.65389 79.9482422,12.5859375 79.7285156,12.5859375 L78.2687988,12.5859375 C78.0708822,12.5859375 77.9042155,12.65389 77.7687988,12.7897949 C77.6333822,12.9256999 77.5656738,13.097819 77.5656738,13.3061523 L77.5656738,14.8127441 C77.5656738,15.0106608 77.6333822,15.1773275 77.7687988,15.3127441 C77.9042155,15.4481608 78.0708822,15.5158691 78.2687988,15.5158691 L79.7285156,15.5158691 Z M63.8508301,24.3647461 C64.0705566,24.3647461 64.2533366,24.2993571 64.3991699,24.1685791 C64.5450033,24.0378011 64.6179199,23.8688151 64.6179199,23.6616211 L64.6179199,22.1550293 C64.6179199,21.946696 64.5450033,21.7745768 64.3991699,21.6386719 C64.2533366,21.5027669 64.0705566,21.4348145 63.8508301,21.4348145 L62.3925781,21.4348145 C62.1936849,21.4348145 62.0265299,21.5027669 61.8911133,21.6386719 C61.7556966,21.7745768 61.6879883,21.946696 61.6879883,22.1550293 L61.6879883,23.6616211 C61.6879883,23.8595378 61.7556966,24.0262044 61.8911133,24.1616211 C62.0265299,24.2970378 62.1936849,24.3647461 62.3925781,24.3647461 L63.8508301,24.3647461 Z M69.140625,24.3647461 C69.3603516,24.3647461 69.5431315,24.2993571 69.6889648,24.1685791 C69.8347982,24.0378011 69.9077148,23.8688151 69.9077148,23.6616211 L69.9077148,22.1550293 C69.9077148,21.946696 69.8347982,21.7745768 69.6889648,21.6386719 C69.5431315,21.5027669 69.3603516,21.4348145 69.140625,21.4348145 L67.6965332,21.4348145 C67.4881999,21.4348145 67.3160807,21.5027669 67.1801758,21.6386719 C67.0442708,21.7745768 66.9763184,21.946696 66.9763184,22.1550293 L66.9763184,23.6616211 C66.9763184,23.8595378 67.0440267,24.0262044 67.1794434,24.1616211 C67.31486,24.2970378 67.4872233,24.3647461 67.6965332,24.3647461 L69.140625,24.3647461 Z M74.4416504,24.3647461 C74.6604004,24.3647461 74.8426921,24.2993571 74.9885254,24.1685791 C75.1343587,24.0378011 75.2072754,23.8688151 75.2072754,23.6616211 L75.2072754,22.1550293 C75.2072754,21.946696 75.1343587,21.7745768 74.9885254,21.6386719 C74.8426921,21.5027669 74.6604004,21.4348145 74.4416504,21.4348145 L72.9833984,21.4348145 C72.7854818,21.4348145 72.6183268,21.5027669 72.4819336,21.6386719 C72.3455404,21.7745768 72.2773438,21.946696 72.2773438,22.1550293 L72.2773438,23.6616211 C72.2773438,23.8595378 72.3452962,24.0262044 72.4812012,24.1616211 C72.6171061,24.2970378 72.7845052,24.3647461 72.9833984,24.3647461 L74.4416504,24.3647461 Z M79.7285156,24.3647461 C79.9482422,24.3647461 80.1286621,24.2993571 80.2697754,24.1685791 C80.4108887,24.0378011 80.4814453,23.8688151 80.4814453,23.6616211 L80.4814453,22.1550293 C80.4814453,21.946696 80.4108887,21.7745768 80.2697754,21.6386719 C80.1286621,21.5027669 79.9482422,21.4348145 79.7285156,21.4348145 L78.2687988,21.4348145 C78.0708822,21.4348145 77.9042155,21.5027669 77.7687988,21.6386719 C77.6333822,21.7745768 77.5656738,21.946696 77.5656738,22.1550293 L77.5656738,23.6616211 C77.5656738,23.8595378 77.6333822,24.0262044 77.7687988,24.1616211 C77.9042155,24.2970378 78.0708822,24.3647461 78.2687988,24.3647461 L79.7285156,24.3647461 Z M85.0168457,24.3647461 C85.2365723,24.3647461 85.4193522,24.2993571 85.5651855,24.1685791 C85.7110189,24.0378011 85.7839355,23.8688151 85.7839355,23.6616211 L85.7839355,22.1550293 C85.7839355,21.946696 85.7110189,21.7745768 85.5651855,21.6386719 C85.4193522,21.5027669 85.2365723,21.4348145 85.0168457,21.4348145 L83.5585938,21.4348145 C83.3597005,21.4348145 83.1925456,21.5027669 83.0571289,21.6386719 C82.9217122,21.7745768 82.8540039,21.946696 82.8540039,22.1550293 L82.8540039,23.6616211 C82.8540039,23.8595378 82.9217122,24.0262044 83.0571289,24.1616211 C83.1925456,24.2970378 83.3597005,24.3647461 83.5585938,24.3647461 L85.0168457,24.3647461 Z" id="tablet_icon"></path>
            </g>
        </g>
    </g>
</svg>