<?xml version="1.0" encoding="UTF-8"?>
<svg width="39px" height="31px" viewBox="0 0 39 31" version="1.1" xmlns="http://www.w3.org/2000/svg" xmlns:xlink="http://www.w3.org/1999/xlink">
    <title>tv_icon</title>
    <g id="Page-1" stroke="none" stroke-width="1" fill="none" fill-rule="evenodd">
        <g id="App-Icons" transform="translate(-387.000000, -177.000000)" fill="#75AEFF" fill-rule="nonzero">
            <g id="device_icons" transform="translate(209.571777, 176.296875)">
                <path d="M211.537598,26.4375 C212.829264,26.4375 213.811035,26.1041667 214.48291,25.4375 C215.154785,24.7708333 215.490723,23.7916667 215.490723,22.5 L215.490723,5.515625 C215.490723,4.22395833 215.154785,3.2421875 214.48291,2.5703125 C213.811035,1.8984375 212.829264,1.5625 211.537598,1.5625 L182.146973,1.5625 C180.855306,1.5625 179.873535,1.8984375 179.20166,2.5703125 C178.529785,3.2421875 178.193848,4.22395833 178.193848,5.515625 L178.193848,22.5 C178.193848,23.7916667 178.529785,24.7708333 179.20166,25.4375 C179.873535,26.1041667 180.855306,26.4375 182.146973,26.4375 L211.537598,26.4375 Z M211.443848,23.8125 L182.256348,23.8125 C181.298014,23.8125 180.818848,23.3385417 180.818848,22.390625 L180.818848,5.609375 C180.818848,4.65104167 181.298014,4.171875 182.256348,4.171875 L211.443848,4.171875 C212.391764,4.171875 212.865723,4.65104167 212.865723,5.609375 L212.865723,22.390625 C212.865723,23.3385417 212.391764,23.8125 211.443848,23.8125 Z M197.928223,19.78125 C198.230306,19.78125 198.417806,19.6145833 198.490723,19.28125 C198.699056,18.15625 198.907389,17.2395833 199.115723,16.53125 C199.324056,15.8229167 199.618327,15.265625 199.998535,14.859375 C200.378743,14.453125 200.915202,14.140625 201.60791,13.921875 C202.300618,13.703125 203.225098,13.5104167 204.381348,13.34375 C204.735514,13.3125 204.912598,13.125 204.912598,12.78125 C204.912598,12.4583333 204.735514,12.2708333 204.381348,12.21875 C203.454264,12.09375 202.678223,11.9479167 202.053223,11.78125 C201.428223,11.6145833 200.909993,11.3984375 200.498535,11.1328125 C200.087077,10.8671875 199.761556,10.53125 199.521973,10.125 C199.282389,9.71875 199.084473,9.203125 198.928223,8.578125 C198.771973,7.953125 198.626139,7.203125 198.490723,6.328125 C198.428223,5.97395833 198.240723,5.796875 197.928223,5.796875 C197.605306,5.796875 197.412598,5.96875 197.350098,6.3125 C197.183431,7.19791667 197.019368,7.95572917 196.85791,8.5859375 C196.696452,9.21614583 196.495931,9.73697917 196.256348,10.1484375 C196.016764,10.5598958 195.70166,10.8958333 195.311035,11.15625 C194.92041,11.4166667 194.412598,11.6276042 193.787598,11.7890625 C193.162598,11.9505208 192.386556,12.09375 191.459473,12.21875 C191.105306,12.2708333 190.928223,12.4583333 190.928223,12.78125 C190.928223,13.1041667 191.105306,13.2916667 191.459473,13.34375 C192.615723,13.46875 193.548014,13.640625 194.256348,13.859375 C194.964681,14.078125 195.51416,14.3958333 195.904785,14.8125 C196.29541,15.2291667 196.592285,15.796875 196.79541,16.515625 C196.998535,17.234375 197.183431,18.1510417 197.350098,19.265625 C197.412598,19.609375 197.605306,19.78125 197.928223,19.78125 Z M191.881348,22.25 C192.120931,22.25 192.266764,22.1354167 192.318848,21.90625 C192.454264,21.1666667 192.571452,20.6302083 192.67041,20.296875 C192.769368,19.9635417 192.98291,19.7317708 193.311035,19.6015625 C193.63916,19.4713542 194.199056,19.34375 194.990723,19.21875 C195.240723,19.1770833 195.365723,19.0364583 195.365723,18.796875 C195.365723,18.546875 195.240723,18.40625 194.990723,18.375 C194.199056,18.2291667 193.63916,18.09375 193.311035,17.96875 C192.98291,17.84375 192.769368,17.6171875 192.67041,17.2890625 C192.571452,16.9609375 192.454264,16.4375 192.318848,15.71875 C192.266764,15.4583333 192.120931,15.328125 191.881348,15.328125 C191.652181,15.328125 191.506348,15.4583333 191.443848,15.71875 C191.318848,16.4375 191.206868,16.9583333 191.10791,17.28125 C191.008952,17.6041667 190.798014,17.8307292 190.475098,17.9609375 C190.152181,18.0911458 189.584473,18.2291667 188.771973,18.375 C188.532389,18.40625 188.412598,18.546875 188.412598,18.796875 C188.412598,19.0364583 188.542806,19.1770833 188.803223,19.21875 C189.605306,19.34375 190.165202,19.46875 190.48291,19.59375 C190.800618,19.71875 191.008952,19.9453125 191.10791,20.2734375 C191.206868,20.6015625 191.318848,21.1302083 191.443848,21.859375 C191.506348,22.1197917 191.652181,22.25 191.881348,22.25 Z M204.350098,31.53125 C204.693848,31.53125 204.990723,31.40625 205.240723,31.15625 C205.490723,30.90625 205.615723,30.609375 205.615723,30.265625 C205.615723,29.9114583 205.490723,29.609375 205.240723,29.359375 C204.990723,29.109375 204.693848,28.984375 204.350098,28.984375 L189.350098,28.984375 C188.995931,28.984375 188.696452,29.109375 188.45166,29.359375 C188.206868,29.609375 188.084473,29.9114583 188.084473,30.265625 C188.084473,30.609375 188.206868,30.90625 188.45166,31.15625 C188.696452,31.40625 188.995931,31.53125 189.350098,31.53125 L204.350098,31.53125 Z" id="tv_icon"></path>
            </g>
        </g>
    </g>
</svg>