<?xml version="1.0" encoding="UTF-8"?>
<svg width="23px" height="34px" viewBox="0 0 23 34" version="1.1" xmlns="http://www.w3.org/2000/svg" xmlns:xlink="http://www.w3.org/1999/xlink">
    <title>watch_icon</title>
    <g id="Page-1" stroke="none" stroke-width="1" fill="none" fill-rule="evenodd">
        <g id="App-Icons" transform="translate(-334.000000, -176.000000)" fill="#75AEFF">
            <g id="device_icons" transform="translate(209.571777, 176.296875)">
                <g id="watch_icon" transform="translate(124.537598, 0.000000)">
                    <path d="M13.59375,32.078125 C14.6354167,32.078125 15.3072917,31.609375 15.609375,30.671875 L16.125,29 C16.28125,28.5208333 16.4869792,28.1276042 16.7421875,27.8203125 C16.9973958,27.5130208 17.328125,27.2447917 17.734375,27.015625 C18.578125,26.546875 19.21875,25.8958333 19.65625,25.0625 C20.09375,24.2291667 20.3125,23.2395833 20.3125,22.09375 L20.311625,15.032125 L20.5,15.03125 C20.8854167,15.03125 21.203125,14.9010417 21.453125,14.640625 C21.703125,14.3802083 21.828125,14.0364583 21.828125,13.609375 L21.828125,11.59375 C21.828125,11.15625 21.703125,10.8072917 21.453125,10.546875 C21.203125,10.2864583 20.8854167,10.15625 20.5,10.15625 L20.311625,10.157125 L20.3125,9.984375 C20.3125,8.83854167 20.09375,7.84895833 19.65625,7.015625 C19.21875,6.18229167 18.578125,5.53125 17.734375,5.0625 C17.328125,4.83333333 16.9973958,4.56770833 16.7421875,4.265625 C16.4869792,3.96354167 16.28125,3.57291667 16.125,3.09375 L15.609375,1.421875 C15.328125,0.473958333 14.65625,0 13.59375,0 L6.71875,0 C5.6875,0 5.02604167,0.473958333 4.734375,1.421875 L4.203125,3.09375 C4.046875,3.57291667 3.84375,3.96614583 3.59375,4.2734375 C3.34375,4.58072917 3.01041667,4.84375 2.59375,5.0625 C1.75,5.51041667 1.10677083,6.15364583 0.6640625,6.9921875 C0.221354167,7.83072917 0,8.828125 0,9.984375 L0,22.09375 C0,23.2395833 0.221354167,24.2291667 0.6640625,25.0625 C1.10677083,25.8958333 1.75,26.546875 2.59375,27.015625 C3,27.2447917 3.33072917,27.5130208 3.5859375,27.8203125 C3.84114583,28.1276042 4.046875,28.5208333 4.203125,29 L4.734375,30.671875 C5.02604167,31.609375 5.6875,32.078125 6.71875,32.078125 L13.59375,32.078125 Z M14.546875,25.1875 L5.78125,25.1875 C4.71875,25.1875 3.88802083,24.8776042 3.2890625,24.2578125 C2.69010417,23.6380208 2.390625,22.7864583 2.390625,21.703125 L2.390625,10.375 C2.390625,9.29166667 2.69010417,8.44270833 3.2890625,7.828125 C3.88802083,7.21354167 4.71875,6.90625 5.78125,6.90625 L14.546875,6.90625 C15.6197917,6.90625 16.453125,7.21354167 17.046875,7.828125 C17.640625,8.44270833 17.9375,9.29166667 17.9375,10.375 L17.9375,21.703125 C17.9375,22.7760417 17.640625,23.625 17.046875,24.25 C16.453125,24.875 15.6197917,25.1875 14.546875,25.1875 Z" id="􀫋" fill-rule="nonzero"></path>
                    <g id="Group" transform="translate(6.150391, 8.723145)">
                        <path d="M2.1628418,2.92993164 C2.38256836,2.92993164 2.56534831,2.86458333 2.71118164,2.73388672 C2.85701497,2.6031901 2.92993164,2.43416341 2.92993164,2.22680664 L2.92993164,0.720214844 C2.92993164,0.51188151 2.85701497,0.33976237 2.71118164,0.203857422 C2.56534831,0.067952474 2.38256836,0 2.1628418,0 L0.704589844,0 C0.505696615,0 0.338541667,0.067952474 0.203125,0.203857422 C0.0677083333,0.33976237 0,0.51188151 0,0.720214844 L0,2.22680664 C0,2.42472331 0.0677083333,2.59138997 0.203125,2.72680664 C0.338541667,2.86222331 0.505696615,2.92993164 0.704589844,2.92993164 L2.1628418,2.92993164 Z" id="Path"></path>
                        <path d="M7.45263672,2.92993164 C7.67236328,2.92993164 7.85514323,2.86458333 8.00097656,2.73388672 C8.1468099,2.6031901 8.21972656,2.43416341 8.21972656,2.22680664 L8.21972656,0.720214844 C8.21972656,0.51188151 8.1468099,0.33976237 8.00097656,0.203857422 C7.85514323,0.067952474 7.67236328,0 7.45263672,0 L6.00854492,0 C5.80021159,0 5.62809245,0.067952474 5.4921875,0.203857422 C5.35628255,0.33976237 5.28833008,0.51188151 5.28833008,0.720214844 L5.28833008,2.22680664 C5.28833008,2.42472331 5.35603841,2.59138997 5.49145508,2.72680664 C5.62687174,2.86222331 5.79923503,2.92993164 6.00854492,2.92993164 L7.45263672,2.92993164 Z" id="Path"></path>
                        <path d="M2.1628418,7.79272461 C2.38256836,7.79272461 2.56534831,7.7273763 2.71118164,7.59667969 C2.85701497,7.46598307 2.92993164,7.29695638 2.92993164,7.08959961 L2.92993164,5.58300781 C2.92993164,5.37467448 2.85701497,5.20255534 2.71118164,5.06665039 C2.56534831,4.93074544 2.38256836,4.86279297 2.1628418,4.86279297 L0.704589844,4.86279297 C0.505696615,4.86279297 0.338541667,4.93074544 0.203125,5.06665039 C0.0677083333,5.20255534 0,5.37467448 0,5.58300781 L0,7.08959961 C0,7.28751628 0.0677083333,7.45418294 0.203125,7.58959961 C0.338541667,7.72501628 0.505696615,7.79272461 0.704589844,7.79272461 L2.1628418,7.79272461 Z" id="Path"></path>
                        <path d="M7.45263672,7.79272461 C7.67236328,7.79272461 7.85514323,7.7273763 8.00097656,7.59667969 C8.1468099,7.46598307 8.21972656,7.29695638 8.21972656,7.08959961 L8.21972656,5.58300781 C8.21972656,5.37467448 8.1468099,5.20255534 8.00097656,5.06665039 C7.85514323,4.93074544 7.67236328,4.86279297 7.45263672,4.86279297 L6.00854492,4.86279297 C5.80021159,4.86279297 5.62809245,4.93074544 5.4921875,5.06665039 C5.35628255,5.20255534 5.28833008,5.37467448 5.28833008,5.58300781 L5.28833008,7.08959961 C5.28833008,7.28751628 5.35603841,7.45418294 5.49145508,7.58959961 C5.62687174,7.72501628 5.79923503,7.79272461 6.00854492,7.79272461 L7.45263672,7.79272461 Z" id="Path"></path>
                        <path d="M2.45263672,12.7927246 C2.67236328,12.7927246 2.85514323,12.7273763 3.00097656,12.5966797 C3.1468099,12.4659831 3.21972656,12.2969564 3.21972656,12.0895996 L3.21972656,10.5830078 C3.21972656,10.3746745 3.1468099,10.2025553 3.00097656,10.0666504 C2.85514323,9.93074544 2.67236328,9.86279297 2.45263672,9.86279297 L1.00854492,9.86279297 C0.800211589,9.86279297 0.628092448,9.93074544 0.4921875,10.0666504 C0.356282552,10.2025553 0.288330078,10.3746745 0.288330078,10.5830078 L0.288330078,12.0895996 C0.288330078,12.2875163 0.356038411,12.4541829 0.491455078,12.5895996 C0.626871745,12.7250163 0.799235026,12.7927246 1.00854492,12.7927246 L2.45263672,12.7927246 Z" id="Path"></path>
                    </g>
                </g>
            </g>
        </g>
    </g>
</svg>