<?xml version="1.0" encoding="UTF-8"?>
<svg width="24px" height="26px" viewBox="0 0 24 26" version="1.1" xmlns="http://www.w3.org/2000/svg" xmlns:xlink="http://www.w3.org/1999/xlink">
    <title>appstore_icon</title>
    <g id="Page-1" stroke="none" stroke-width="1" fill="none" fill-rule="evenodd">
        <g id="App-Icons" transform="translate(-30.000000, -185.000000)" fill="#FFFFFF" fill-rule="nonzero">
            <g id="appstore_btn" transform="translate(17.000000, 176.000000)">
                <g id="appstore_icon" transform="translate(13.000000, 9.000000)">
                    <path d="M17.8090363,23.099762 C18.7568105,23.099762 19.4924545,22.82827 20.0159683,22.2852859 C20.5394821,21.7423019 20.801239,20.9376729 20.801239,19.8713989 L20.801239,9.35127258 C20.801239,8.28566996 20.5263621,7.4812088 19.9766083,6.9378891 C19.4268545,6.3945694 18.6126862,6.12290955 17.5341034,6.12290955 L16.0023346,6.12290955 C15.9886831,5.38975525 15.7861481,4.71641032 15.3947296,4.10287476 C15.0033112,3.48933919 14.4861476,2.9961497 13.8432388,2.62330627 C13.2003301,2.25046285 12.4860586,2.06404114 11.7004242,2.06404114 C10.9141184,2.06404114 10.1979167,2.25046285 9.55181885,2.62330627 C8.90572103,2.9961497 8.38693492,3.48933919 7.99546051,4.10287476 C7.6039861,4.71641032 7.40147909,5.38975525 7.38793945,6.12290955 L5.85600281,6.12290955 C4.77742004,6.12290955 3.96325175,6.3945694 3.41349792,6.9378891 C2.8637441,7.4812088 2.58886719,8.28566996 2.58886719,9.35127258 L2.58886719,19.8713989 C2.58886719,20.944163 2.8637441,21.7504145 3.41349792,22.2901535 C3.96325175,22.8298925 4.77742004,23.099762 5.85600281,23.099762 L17.8090363,23.099762 Z M14.2129211,6.12290955 L9.17735291,6.12290955 C9.19022115,5.68684387 9.30830129,5.2875646 9.53159332,4.92507172 C9.75488536,4.56257884 10.0539602,4.27332306 10.4288177,4.05730438 C10.8036753,3.84128571 11.2275441,3.73327637 11.7004242,3.73327637 C12.1661428,3.73327637 12.5864309,3.84128571 12.9612885,4.05730438 C13.336146,4.27332306 13.6352208,4.56257884 13.8585129,4.92507172 C14.0818049,5.2875646 14.199941,5.68684387 14.2129211,6.12290955 Z M17.7366943,21.2761078 L5.92834473,21.2761078 C5.44572957,21.2761078 5.07406108,21.1480687 4.81333923,20.8919907 C4.55261739,20.6359126 4.42225647,20.2521871 4.42225647,19.7408142 L4.42225647,9.49259949 C4.42225647,8.9813385 4.55261739,8.59747314 4.81333923,8.34100342 C5.07406108,8.08453369 5.44572957,7.95629883 5.92834473,7.95629883 L17.4617615,7.95629883 C17.9444885,7.95629883 18.3178075,8.08453369 18.5817184,8.34100342 C18.8456294,8.59747314 18.9775848,8.9813385 18.9775848,9.49259949 L18.9775848,19.7408142 C18.9775848,20.2521871 18.8571269,20.6359126 18.6162109,20.8919907 C18.375295,21.1480687 18.0821228,21.2761078 17.7366943,21.2761078 Z" id="􀍣"></path>
                    <path d="M12.0424805,11.0427246 C12.2820638,11.0427246 12.5356852,10.9725342 12.8033447,10.8321533 C13.0710042,10.6917725 13.292806,10.5148926 13.46875,10.3015137 C13.6297201,10.1031087 13.7626139,9.87569173 13.8674316,9.6192627 C13.9722493,9.36283366 14.0246582,9.09985352 14.0246582,8.83032227 C14.0246582,8.75170898 14.0171712,8.68058268 14.0021973,8.61694336 C13.740153,8.62817383 13.4650065,8.70865885 13.1767578,8.85839844 C12.8885091,9.00813802 12.6489258,9.1953125 12.4580078,9.41992188 C12.3082682,9.58837891 12.1744385,9.79988607 12.0565186,10.0544434 C11.9385986,10.3090007 11.8796387,10.5710449 11.8796387,10.8405762 C11.8796387,10.8817546 11.8824463,10.9201253 11.8880615,10.9556885 C11.8936768,10.9912516 11.8983561,11.0165202 11.9020996,11.0314941 C11.9470215,11.0389811 11.9938151,11.0427246 12.0424805,11.0427246 Z M10.3747559,19.1342773 C10.5918783,19.1342773 10.7809245,19.0977783 10.9418945,19.0247803 C11.1028646,18.9517822 11.2722575,18.8797201 11.4500732,18.8085938 C11.627889,18.7374674 11.8515625,18.7019043 12.1210938,18.7019043 C12.3943685,18.7019043 12.6124268,18.7365316 12.7752686,18.8057861 C12.9381104,18.8750407 13.0962728,18.9452311 13.2497559,19.0163574 C13.4032389,19.0874837 13.5997721,19.1230469 13.8393555,19.1230469 C14.0789388,19.1230469 14.2932536,19.0594076 14.4822998,18.9321289 C14.671346,18.8048503 14.8463542,18.6420085 15.0073242,18.4436035 C15.1682943,18.2451986 15.3236491,18.0393066 15.4733887,17.8259277 C15.6418457,17.5788574 15.7784831,17.3439535 15.8833008,17.1212158 C15.9881185,16.8984782 16.0657959,16.7141113 16.116333,16.5681152 C16.1668701,16.4221191 16.1921387,16.3435059 16.1921387,16.3322754 C16.1846517,16.3285319 16.108846,16.2882894 15.9647217,16.2115479 C15.8205973,16.1348063 15.6577555,16.0140788 15.4761963,15.8493652 C15.294637,15.6846517 15.1346029,15.4665934 14.9960938,15.1951904 C14.8575846,14.9237874 14.7883301,14.5934245 14.7883301,14.2041016 C14.7883301,13.8671875 14.8426107,13.5751953 14.9511719,13.328125 C15.0597331,13.0810547 15.1870117,12.8770345 15.3330078,12.7160645 C15.4790039,12.5550944 15.610026,12.4324951 15.7260742,12.3482666 C15.8421224,12.2640381 15.9076335,12.2163086 15.9226074,12.2050781 C15.7466634,11.9505208 15.5538737,11.7521159 15.3442383,11.6098633 C15.1346029,11.4676107 14.9296468,11.3646647 14.7293701,11.3010254 C14.5290934,11.2373861 14.3494059,11.1980794 14.1903076,11.1831055 C14.0312093,11.1681315 13.9142253,11.1606445 13.8393555,11.1606445 C13.5773112,11.1606445 13.3311768,11.200887 13.1009521,11.2813721 C12.8707275,11.3618571 12.662028,11.4423421 12.4748535,11.5228271 C12.287679,11.6033122 12.126709,11.6435547 11.9919434,11.6435547 C11.8422038,11.6435547 11.679362,11.6051839 11.503418,11.5284424 C11.327474,11.4517008 11.1374919,11.3758952 10.9334717,11.3010254 C10.7294515,11.2261556 10.5113932,11.1887207 10.2792969,11.1887207 C9.84505208,11.1887207 9.42578125,11.3075765 9.02148438,11.5452881 C8.6171875,11.7829997 8.28682454,12.1339518 8.03039551,12.5981445 C7.77396647,13.0623372 7.64575195,13.6332194 7.64575195,14.310791 C7.64575195,14.7375488 7.69441732,15.1633708 7.79174805,15.5882568 C7.88907878,16.0131429 8.02103678,16.415568 8.18762207,16.7955322 C8.35420736,17.1754964 8.53857422,17.5096029 8.74072266,17.7978516 C9.00276693,18.1647135 9.25826009,18.4791667 9.50720215,18.7412109 C9.75614421,19.0032552 10.0453288,19.1342773 10.3747559,19.1342773 Z" id="􀣺"></path>
                </g>
            </g>
        </g>
    </g>
</svg>