<?xml version="1.0" encoding="UTF-8"?>
<svg width="22px" height="22px" viewBox="0 0 22 22" version="1.1" xmlns="http://www.w3.org/2000/svg" xmlns:xlink="http://www.w3.org/1999/xlink">
    <title>github_icon</title>
    <g id="Page-1" stroke="none" stroke-width="1" fill="none" fill-rule="evenodd">
        <g id="App-Icons" transform="translate(-43.000000, -249.000000)" fill="#FFFFFF" fill-rule="nonzero">
            <g id="github_btn" transform="translate(17.000000, 238.000000)">
                <g id="Group-8" transform="translate(26.000000, 11.000000)">
                    <path d="M7.35846774,17.2717742 C7.35846774,17.3604839 7.25645161,17.4314516 7.12782258,17.4314516 C6.98145161,17.4447581 6.87943548,17.3737903 6.87943548,17.2717742 C6.87943548,17.1830645 6.98145161,17.1120968 7.11008065,17.1120968 C7.24314516,17.0987903 7.35846774,17.1697581 7.35846774,17.2717742 Z M5.97903226,17.0721774 C5.94798387,17.1608871 6.03669355,17.2629032 6.16975806,17.2895161 C6.28508065,17.333871 6.41814516,17.2895161 6.44475806,17.2008065 C6.47137097,17.1120968 6.38709677,17.0100806 6.25403226,16.9701613 C6.13870968,16.9391129 6.01008065,16.9834677 5.97903226,17.0721774 Z M7.93951613,16.9967742 C7.8108871,17.0278226 7.72217742,17.1120968 7.73548387,17.2141129 C7.74879032,17.3028226 7.8641129,17.3604839 7.99717742,17.3294355 C8.12580645,17.2983871 8.21451613,17.2141129 8.20120968,17.1254032 C8.18790323,17.041129 8.06814516,16.9834677 7.93951613,16.9967742 Z M10.8580645,-3.55271368e-15 C4.70604839,-3.55271368e-15 0,4.67056452 0,10.8225806 C0,15.7415323 3.09596774,19.9508065 7.51814516,21.4322581 C8.0858871,21.5342742 8.28548387,21.183871 8.28548387,20.8955645 C8.28548387,20.6205645 8.27217742,19.103629 8.27217742,18.1721774 C8.27217742,18.1721774 5.16733871,18.8375 4.51532258,16.8504032 C4.51532258,16.8504032 4.00967742,15.5596774 3.28225806,15.2270161 C3.28225806,15.2270161 2.26653226,14.5306452 3.35322581,14.5439516 C3.35322581,14.5439516 4.45766129,14.6326613 5.06532258,15.6883065 C6.03669355,17.4004032 7.66451613,16.9080645 8.29879032,16.6153226 C8.40080645,15.9056452 8.6891129,15.4133065 9.00846774,15.1205645 C6.52903226,14.8455645 4.02741935,14.4862903 4.02741935,10.2193548 C4.02741935,8.99959677 4.36451613,8.3875 5.07419355,7.60685484 C4.95887097,7.31854839 4.58185484,6.12983871 5.18951613,4.59516129 C6.11653226,4.30685484 8.25,5.79274194 8.25,5.79274194 C9.13709677,5.54435484 10.0907258,5.41572581 11.0354839,5.41572581 C11.9802419,5.41572581 12.933871,5.54435484 13.8209677,5.79274194 C13.8209677,5.79274194 15.9544355,4.30241935 16.8814516,4.59516129 C17.4891129,6.13427419 17.1120968,7.31854839 16.9967742,7.60685484 C17.7064516,8.39193548 18.141129,9.00403226 18.141129,10.2193548 C18.141129,14.4995968 15.528629,14.841129 13.0491935,15.1205645 C13.4572581,15.4709677 13.8032258,16.1362903 13.8032258,17.178629 C13.8032258,18.6733871 13.7899194,20.5229839 13.7899194,20.8866935 C13.7899194,21.175 13.9939516,21.5254032 14.5572581,21.4233871 C18.9927419,19.9508065 22,15.7415323 22,10.8225806 C22,4.67056452 17.0100806,-3.55271368e-15 10.8580645,-3.55271368e-15 Z M4.31129032,15.2979839 C4.25362903,15.3423387 4.26693548,15.4443548 4.34233871,15.528629 C4.41330645,15.5995968 4.51532258,15.6306452 4.57298387,15.5729839 C4.63064516,15.528629 4.61733871,15.4266129 4.54193548,15.3423387 C4.47096774,15.271371 4.36895161,15.2403226 4.31129032,15.2979839 Z M3.83225806,14.9387097 C3.80120968,14.996371 3.84556452,15.0673387 3.93427419,15.1116935 C4.00524194,15.1560484 4.09395161,15.1427419 4.125,15.0806452 C4.15604839,15.0229839 4.11169355,14.9520161 4.02298387,14.9076613 C3.93427419,14.8810484 3.86330645,14.8943548 3.83225806,14.9387097 Z M5.26935484,16.5177419 C5.1983871,16.5754032 5.225,16.7084677 5.32701613,16.7927419 C5.42903226,16.8947581 5.55766129,16.9080645 5.61532258,16.8370968 C5.67298387,16.7794355 5.64637097,16.646371 5.55766129,16.5620968 C5.46008065,16.4600806 5.32701613,16.4467742 5.26935484,16.5177419 Z M4.76370968,15.8657258 C4.69274194,15.9100806 4.69274194,16.0254032 4.76370968,16.1274194 C4.83467742,16.2294355 4.95443548,16.2737903 5.01209677,16.2294355 C5.08306452,16.1717742 5.08306452,16.0564516 5.01209677,15.9544355 C4.95,15.8524194 4.83467742,15.8080645 4.76370968,15.8657258 Z" id="github_icon"></path>
                </g>
            </g>
        </g>
    </g>
</svg>