<?xml version="1.0" encoding="UTF-8"?>
<svg width="137px" height="71px" viewBox="0 0 137 71" version="1.1" xmlns="http://www.w3.org/2000/svg" xmlns:xlink="http://www.w3.org/1999/xlink">
    <title>Logo</title>
    <defs>
        <linearGradient x1="0%" y1="43.9145384%" x2="100%" y2="56.0854616%" id="linearGradient-1">
            <stop stop-color="#9DCCFF" offset="0%"></stop>
            <stop stop-color="#B1C6FA" offset="49.191775%"></stop>
            <stop stop-color="#B1A0FC" offset="100%"></stop>
        </linearGradient>
    </defs>
    <g id="Page-1" stroke="none" stroke-width="1" fill="none" fill-rule="evenodd">
        <g id="WebApp-v2---Desktop---home" transform="translate(-48.000000, -55.000000)" fill-rule="nonzero">
            <g id="Logo" transform="translate(48.000000, 55.000000)">
                <path d="M5.454,65.162 C6.306,65.162 7.05,64.973 7.686,64.595 C8.322,64.217 8.802,63.734 9.126,63.146 L9.126,63.146 L9.126,65 L10.782,65 L10.782,51.68 L9.126,51.68 L9.126,56.9 C8.778,56.324 8.274,55.859 7.614,55.505 C6.954,55.151 6.24,54.974 5.472,54.974 C4.584,54.974 3.783,55.184 3.069,55.604 C2.355,56.024 1.794,56.615 1.386,57.377 C0.978,58.139 0.774,59.024 0.774,60.032 C0.774,61.028 0.978,61.916 1.386,62.696 C1.794,63.476 2.355,64.082 3.069,64.514 C3.783,64.946 4.578,65.162 5.454,65.162 Z M5.778,63.722 C5.166,63.722 4.608,63.575 4.104,63.281 C3.6,62.987 3.198,62.561 2.898,62.003 C2.598,61.445 2.448,60.788 2.448,60.032 C2.448,59.288 2.598,58.64 2.898,58.088 C3.198,57.536 3.6,57.116 4.104,56.828 C4.608,56.54 5.166,56.396 5.778,56.396 C6.39,56.396 6.951,56.543 7.461,56.837 C7.971,57.131 8.376,57.554 8.676,58.106 C8.976,58.658 9.126,59.306 9.126,60.05 C9.126,60.794 8.976,61.445 8.676,62.003 C8.376,62.561 7.971,62.987 7.461,63.281 C6.951,63.575 6.39,63.722 5.778,63.722 Z M22.92,65.162 C24.096,65.162 25.08,64.865 25.872,64.271 C26.664,63.677 27.192,62.906 27.456,61.958 L27.456,61.958 L25.692,61.958 C25.5,62.51 25.167,62.951 24.693,63.281 C24.219,63.611 23.628,63.776 22.92,63.776 C22.056,63.776 21.321,63.503 20.715,62.957 C20.109,62.411 19.776,61.652 19.716,60.68 L19.716,60.68 L27.6,60.68 C27.636,60.332 27.654,60.002 27.654,59.69 C27.654,58.79 27.459,57.983 27.069,57.269 C26.679,56.555 26.124,55.994 25.404,55.586 C24.684,55.178 23.856,54.974 22.92,54.974 C21.96,54.974 21.111,55.181 20.373,55.595 C19.635,56.009 19.062,56.6 18.654,57.368 C18.246,58.136 18.042,59.03 18.042,60.05 C18.042,61.07 18.252,61.967 18.672,62.741 C19.092,63.515 19.671,64.112 20.409,64.532 C21.147,64.952 21.984,65.162 22.92,65.162 Z M25.962,59.348 L19.734,59.348 C19.818,58.412 20.151,57.68 20.733,57.152 C21.315,56.624 22.02,56.36 22.848,56.36 C23.424,56.36 23.949,56.477 24.423,56.711 C24.897,56.945 25.272,57.287 25.548,57.737 C25.824,58.187 25.962,58.724 25.962,59.348 L25.962,59.348 Z M39.522,65 L43.392,55.136 L41.646,55.136 L38.586,63.488 L35.508,55.136 L33.744,55.136 L37.614,65 L39.522,65 Z M54.378,65.162 C55.554,65.162 56.538,64.865 57.33,64.271 C58.122,63.677 58.65,62.906 58.914,61.958 L58.914,61.958 L57.15,61.958 C56.958,62.51 56.625,62.951 56.151,63.281 C55.677,63.611 55.086,63.776 54.378,63.776 C53.514,63.776 52.779,63.503 52.173,62.957 C51.567,62.411 51.234,61.652 51.174,60.68 L51.174,60.68 L59.058,60.68 C59.094,60.332 59.112,60.002 59.112,59.69 C59.112,58.79 58.917,57.983 58.527,57.269 C58.137,56.555 57.582,55.994 56.862,55.586 C56.142,55.178 55.314,54.974 54.378,54.974 C53.418,54.974 52.569,55.181 51.831,55.595 C51.093,56.009 50.52,56.6 50.112,57.368 C49.704,58.136 49.5,59.03 49.5,60.05 C49.5,61.07 49.71,61.967 50.13,62.741 C50.55,63.515 51.129,64.112 51.867,64.532 C52.605,64.952 53.442,65.162 54.378,65.162 Z M57.42,59.348 L51.192,59.348 C51.276,58.412 51.609,57.68 52.191,57.152 C52.773,56.624 53.478,56.36 54.306,56.36 C54.882,56.36 55.407,56.477 55.881,56.711 C56.355,56.945 56.73,57.287 57.006,57.737 C57.282,58.187 57.42,58.724 57.42,59.348 L57.42,59.348 Z M68.01,65 L68.01,51.68 L66.372,51.68 L66.372,65 L68.01,65 Z M80.202,65.162 C81.138,65.162 81.99,64.952 82.758,64.532 C83.526,64.112 84.135,63.515 84.585,62.741 C85.035,61.967 85.26,61.07 85.26,60.05 C85.26,59.03 85.041,58.136 84.603,57.368 C84.165,56.6 83.568,56.009 82.812,55.595 C82.056,55.181 81.21,54.974 80.274,54.974 C79.338,54.974 78.492,55.181 77.736,55.595 C76.98,56.009 76.383,56.603 75.945,57.377 C75.507,58.151 75.288,59.042 75.288,60.05 C75.288,61.07 75.501,61.967 75.927,62.741 C76.353,63.515 76.941,64.112 77.691,64.532 C78.441,64.952 79.278,65.162 80.202,65.162 Z M80.202,63.722 C79.614,63.722 79.074,63.587 78.582,63.317 C78.09,63.047 77.697,62.636 77.403,62.084 C77.109,61.532 76.962,60.854 76.962,60.05 C76.962,59.258 77.112,58.586 77.412,58.034 C77.712,57.482 78.111,57.071 78.609,56.801 C79.107,56.531 79.656,56.396 80.256,56.396 C80.844,56.396 81.39,56.531 81.894,56.801 C82.398,57.071 82.806,57.482 83.118,58.034 C83.43,58.586 83.586,59.258 83.586,60.05 C83.586,60.842 83.427,61.514 83.109,62.066 C82.791,62.618 82.374,63.032 81.858,63.308 C81.342,63.584 80.79,63.722 80.202,63.722 Z M94.158,69.68 L94.158,63.182 C94.494,63.746 94.983,64.217 95.625,64.595 C96.267,64.973 97.008,65.162 97.848,65.162 C98.724,65.162 99.519,64.946 100.233,64.514 C100.947,64.082 101.508,63.476 101.916,62.696 C102.324,61.916 102.528,61.028 102.528,60.032 C102.528,59.024 102.324,58.139 101.916,57.377 C101.508,56.615 100.947,56.024 100.233,55.604 C99.519,55.184 98.724,54.974 97.848,54.974 C96.996,54.974 96.249,55.163 95.607,55.541 C94.965,55.919 94.482,56.39 94.158,56.954 L94.158,56.954 L94.158,55.136 L92.52,55.136 L92.52,69.68 L94.158,69.68 Z M97.506,63.722 C96.906,63.722 96.351,63.575 95.841,63.281 C95.331,62.987 94.923,62.561 94.617,62.003 C94.311,61.445 94.158,60.794 94.158,60.05 C94.158,59.318 94.311,58.673 94.617,58.115 C94.923,57.557 95.331,57.131 95.841,56.837 C96.351,56.543 96.906,56.396 97.506,56.396 C98.118,56.396 98.679,56.54 99.189,56.828 C99.699,57.116 100.104,57.536 100.404,58.088 C100.704,58.64 100.854,59.288 100.854,60.032 C100.854,60.788 100.704,61.445 100.404,62.003 C100.104,62.561 99.699,62.987 99.189,63.281 C98.679,63.575 98.118,63.722 97.506,63.722 Z M114.054,65.162 C115.23,65.162 116.214,64.865 117.006,64.271 C117.798,63.677 118.326,62.906 118.59,61.958 L118.59,61.958 L116.826,61.958 C116.634,62.51 116.301,62.951 115.827,63.281 C115.353,63.611 114.762,63.776 114.054,63.776 C113.19,63.776 112.455,63.503 111.849,62.957 C111.243,62.411 110.91,61.652 110.85,60.68 L110.85,60.68 L118.734,60.68 C118.77,60.332 118.788,60.002 118.788,59.69 C118.788,58.79 118.593,57.983 118.203,57.269 C117.813,56.555 117.258,55.994 116.538,55.586 C115.818,55.178 114.99,54.974 114.054,54.974 C113.094,54.974 112.245,55.181 111.507,55.595 C110.769,56.009 110.196,56.6 109.788,57.368 C109.38,58.136 109.176,59.03 109.176,60.05 C109.176,61.07 109.386,61.967 109.806,62.741 C110.226,63.515 110.805,64.112 111.543,64.532 C112.281,64.952 113.118,65.162 114.054,65.162 Z M117.096,59.348 L110.868,59.348 C110.952,58.412 111.285,57.68 111.867,57.152 C112.449,56.624 113.154,56.36 113.982,56.36 C114.558,56.36 115.083,56.477 115.557,56.711 C116.031,56.945 116.406,57.287 116.682,57.737 C116.958,58.187 117.096,58.724 117.096,59.348 L117.096,59.348 Z M127.686,65 L127.686,59.636 C127.686,57.644 128.604,56.648 130.44,56.648 L130.44,56.648 L130.872,56.648 L130.872,54.956 C130.104,54.956 129.453,55.112 128.919,55.424 C128.385,55.736 127.974,56.174 127.686,56.738 L127.686,56.738 L127.686,55.136 L126.048,55.136 L126.048,65 L127.686,65 Z" id="developer" fill="#2E3F6C"></path>
                <path d="M108.912,0.752 C113.946667,0.752 118.32,1.97866667 122.032,4.432 C125.744,6.88533333 128.304,10.3306667 129.712,14.768 L129.712,14.768 L119.408,14.768 C118.384,12.8906667 116.976,11.4613333 115.184,10.48 C113.392,9.49866667 111.301333,9.008 108.912,9.008 C106.266667,9.008 103.92,9.60533333 101.872,10.8 C99.824,11.9946667 98.224,13.7013333 97.072,15.92 C95.92,18.1386667 95.344,20.6986667 95.344,23.6 C95.344,26.5866667 95.9306667,29.1893333 97.104,31.408 C98.2773333,33.6266667 99.9093333,35.3333333 102,36.528 C104.090667,37.7226667 106.522667,38.32 109.296,38.32 C112.709333,38.32 115.504,37.4133333 117.68,35.6 C119.856,33.7866667 121.285333,31.2586667 121.968,28.016 L121.968,28.016 L106.608,28.016 L106.608,21.168 L130.8,21.168 L130.8,28.976 C130.202667,32.0906667 128.922667,34.9706667 126.96,37.616 C124.997333,40.2613333 122.469333,42.384 119.376,43.984 C116.282667,45.584 112.816,46.384 108.976,46.384 C104.666667,46.384 100.773333,45.4133333 97.296,43.472 C93.8186667,41.5306667 91.088,38.832 89.104,35.376 C87.12,31.92 86.128,27.9946667 86.128,23.6 C86.128,19.2053333 87.12,15.2693333 89.104,11.792 C91.088,8.31466667 93.8186667,5.60533333 97.296,3.664 C100.773333,1.72266667 104.645333,0.752 108.912,0.752 Z M58.032,1.328 C62.7253333,1.328 66.8533333,2.24533333 70.416,4.08 C73.9786667,5.91466667 76.7306667,8.528 78.672,11.92 C80.6133333,15.312 81.584,19.248 81.584,23.728 C81.584,28.208 80.6133333,32.1226667 78.672,35.472 C76.7306667,38.8213333 73.9786667,41.4133333 70.416,43.248 C66.8533333,45.0826667 62.7253333,46 58.032,46 L58.032,46 L42.416,46 L42.416,1.328 Z M38.2,1.32072469 L26.2,46 L17,46 L29,1.32072469 L38.2,1.32072469 Z M21.2,1.32072469 L9.2,46 L0,46 L12,1.32072469 L21.2,1.32072469 Z M57.712,8.88 L51.376,8.88 L51.376,38.384 L57.712,38.384 C62.4053333,38.384 66.032,37.104 68.592,34.544 C71.152,31.984 72.432,28.3786667 72.432,23.728 C72.432,19.0773333 71.152,15.44 68.592,12.816 C66.032,10.192 62.4053333,8.88 57.712,8.88 L57.712,8.88 Z" id="Combined-Shape" fill="url(#linearGradient-1)"></path>
            </g>
        </g>
    </g>
</svg>