<?xml version="1.0" encoding="UTF-8"?>
<svg width="126px" height="66px" viewBox="0 0 126 66" version="1.1" xmlns="http://www.w3.org/2000/svg" xmlns:xlink="http://www.w3.org/1999/xlink">
    <title>Logo</title>
    <g id="Page-1" stroke="none" stroke-width="1" fill="none" fill-rule="evenodd">
        <g id="WebApp-v2---Tablet" transform="translate(-13.000000, -7.000000)" fill="#2E3F6C" fill-rule="nonzero">
            <g id="Logo" transform="translate(13.000000, 7.000000)">
                <path d="M5.02275349,59.5119814 C5.80738605,59.5119814 6.49255814,59.3379256 7.07826977,58.989814 C7.6639814,58.6417023 8.10602791,58.196893 8.4044093,57.655386 L8.4044093,57.655386 L8.4044093,59.3627907 L9.92946977,59.3627907 L9.92946977,47.096 L8.4044093,47.096 L8.4044093,51.9032558 C8.08392558,51.3728 7.61977674,50.9445674 7.01196279,50.6185581 C6.40414884,50.2925488 5.74660465,50.1295442 5.03933023,50.1295442 C4.22154419,50.1295442 3.48387907,50.3229395 2.82633488,50.7097302 C2.1687907,51.0965209 1.65214884,51.6407907 1.2764093,52.3425395 C0.900669767,53.0442884 0.7128,53.8593116 0.7128,54.7876093 C0.7128,55.7048558 0.900669767,56.5226419 1.2764093,57.2409674 C1.65214884,57.959293 2.1687907,58.5173767 2.82633488,58.9152186 C3.48387907,59.3130605 4.2160186,59.5119814 5.02275349,59.5119814 Z M5.32113488,58.1858419 C4.75752558,58.1858419 4.24364651,58.0504651 3.77949767,57.7797116 C3.31534884,57.5089581 2.94513488,57.1166419 2.66885581,56.6027628 C2.39257674,56.0888837 2.25443721,55.4838326 2.25443721,54.7876093 C2.25443721,54.1024372 2.39257674,53.5056744 2.66885581,52.9973209 C2.94513488,52.4889674 3.31534884,52.1021767 3.77949767,51.8369488 C4.24364651,51.5717209 4.75752558,51.439107 5.32113488,51.439107 C5.88474419,51.439107 6.40138605,51.5744837 6.87106047,51.8452372 C7.34073488,52.1159907 7.71371163,52.5055442 7.9899907,53.0138977 C8.26626977,53.5222512 8.4044093,54.119014 8.4044093,54.804186 C8.4044093,55.4893581 8.26626977,56.0888837 7.9899907,56.6027628 C7.71371163,57.1166419 7.34073488,57.5089581 6.87106047,57.7797116 C6.40138605,58.0504651 5.88474419,58.1858419 5.32113488,58.1858419 Z M21.1077207,59.5119814 C22.1907347,59.5119814 23.09693,59.2384651 23.8263068,58.6914326 C24.5556835,58.1444 25.0419347,57.4343628 25.2850602,56.5613209 L25.2850602,56.5613209 L23.6605393,56.5613209 C23.4837207,57.0696744 23.1770509,57.4758047 22.74053,57.7797116 C22.3040091,58.0836186 21.7597393,58.2355721 21.1077207,58.2355721 C20.312037,58.2355721 19.6351533,57.9841581 19.0770695,57.4813302 C18.5189858,56.9785023 18.2123161,56.2795163 18.1570602,55.3843721 L18.1570602,55.3843721 L25.4176742,55.3843721 C25.4508277,55.0638884 25.4674044,54.7599814 25.4674044,54.4726512 C25.4674044,53.643814 25.287823,52.9006233 24.9286602,52.2430791 C24.5694975,51.5855349 24.0583812,51.068893 23.3953114,50.6931535 C22.7322416,50.317414 21.9697114,50.1295442 21.1077207,50.1295442 C20.2236277,50.1295442 19.4417579,50.3201767 18.7621114,50.7014419 C18.0824649,51.082707 17.5547719,51.6269767 17.1790323,52.3342512 C16.8032928,53.0415256 16.615423,53.8648372 16.615423,54.804186 C16.615423,55.7435349 16.8088184,56.5696093 17.1956091,57.2824093 C17.5823998,57.9952093 18.1156184,58.5450047 18.7952649,58.9317953 C19.4749114,59.318586 20.24573,59.5119814 21.1077207,59.5119814 Z M23.9091905,54.157693 L18.173637,54.157693 C18.2509951,53.2957023 18.5576649,52.6215814 19.0936463,52.1353302 C19.6296277,51.6490791 20.2788835,51.4059535 21.0414137,51.4059535 C21.5718695,51.4059535 22.0553579,51.5137023 22.4918788,51.7292 C22.9283998,51.9446977 23.2737486,52.2596558 23.5279254,52.6740744 C23.7821021,53.088493 23.9091905,53.5830326 23.9091905,54.157693 L23.9091905,54.157693 Z M36.3970042,59.3627907 L39.9610042,50.2787349 L38.35306,50.2787349 L35.5350135,57.9703442 L32.7003903,50.2787349 L31.0758693,50.2787349 L34.6398693,59.3627907 L36.3970042,59.3627907 Z M50.0783435,59.5119814 C51.1613575,59.5119814 52.0675528,59.2384651 52.7969296,58.6914326 C53.5263063,58.1444 54.0125575,57.4343628 54.2556831,56.5613209 L54.2556831,56.5613209 L52.6311621,56.5613209 C52.4543435,57.0696744 52.1476738,57.4758047 51.7111528,57.7797116 C51.2746319,58.0836186 50.7303621,58.2355721 50.0783435,58.2355721 C49.2826598,58.2355721 48.6057761,57.9841581 48.0476924,57.4813302 C47.4896086,56.9785023 47.1829389,56.2795163 47.1276831,55.3843721 L47.1276831,55.3843721 L54.388297,55.3843721 C54.4214505,55.0638884 54.4380272,54.7599814 54.4380272,54.4726512 C54.4380272,53.643814 54.2584458,52.9006233 53.8992831,52.2430791 C53.5401203,51.5855349 53.029004,51.068893 52.3659342,50.6931535 C51.7028645,50.317414 50.9403342,50.1295442 50.0783435,50.1295442 C49.1942505,50.1295442 48.4123807,50.3201767 47.7327342,50.7014419 C47.0530877,51.082707 46.5253947,51.6269767 46.1496552,52.3342512 C45.7739156,53.0415256 45.5860458,53.8648372 45.5860458,54.804186 C45.5860458,55.7435349 45.7794412,56.5696093 46.1662319,57.2824093 C46.5530226,57.9952093 47.0862412,58.5450047 47.7658877,58.9317953 C48.4455342,59.318586 49.2163528,59.5119814 50.0783435,59.5119814 Z M52.8798133,54.157693 L47.1442598,54.157693 C47.2216179,53.2957023 47.5282877,52.6215814 48.0642691,52.1353302 C48.6002505,51.6490791 49.2495063,51.4059535 50.0120365,51.4059535 C50.5424924,51.4059535 51.0259807,51.5137023 51.4625017,51.7292 C51.8990226,51.9446977 52.2443714,52.2596558 52.4985482,52.6740744 C52.7527249,53.088493 52.8798133,53.5830326 52.8798133,54.157693 L52.8798133,54.157693 Z M62.6324642,59.3627907 L62.6324642,47.096 L61.1239805,47.096 L61.1239805,59.3627907 L62.6324642,59.3627907 Z M73.8604454,59.5119814 C74.7224361,59.5119814 75.5070687,59.318586 76.2143431,58.9317953 C76.9216175,58.5450047 77.482464,57.9952093 77.8968826,57.2824093 C78.3113012,56.5696093 78.5185105,55.7435349 78.5185105,54.804186 C78.5185105,53.8648372 78.3168268,53.0415256 77.9134594,52.3342512 C77.5100919,51.6269767 76.9602966,51.082707 76.2640733,50.7014419 C75.5678501,50.3201767 74.7887431,50.1295442 73.9267524,50.1295442 C73.0647617,50.1295442 72.2856547,50.3201767 71.5894315,50.7014419 C70.8932082,51.082707 70.3434128,51.6297395 69.9400454,52.3425395 C69.536678,53.0553395 69.3349942,53.8758884 69.3349942,54.804186 C69.3349942,55.7435349 69.5311524,56.5696093 69.9234687,57.2824093 C70.3157849,57.9952093 70.8572919,58.5450047 71.5479896,58.9317953 C72.2386873,59.318586 73.0095059,59.5119814 73.8604454,59.5119814 Z M73.8604454,58.1858419 C73.3189384,58.1858419 72.8216361,58.0615163 72.3685384,57.8128651 C71.9154408,57.564214 71.5535152,57.1857116 71.2827617,56.6773581 C71.0120082,56.1690047 70.8766315,55.544614 70.8766315,54.804186 C70.8766315,54.0748093 71.014771,53.4559442 71.2910501,52.9475907 C71.5673291,52.4392372 71.9347803,52.0607349 72.3934035,51.8120837 C72.8520268,51.5634326 73.3576175,51.439107 73.9101756,51.439107 C74.4516826,51.439107 74.9545105,51.5634326 75.4186594,51.8120837 C75.8828082,52.0607349 76.2585477,52.4392372 76.545878,52.9475907 C76.8332082,53.4559442 76.9768733,54.0748093 76.9768733,54.804186 C76.9768733,55.5335628 76.8304454,56.1524279 76.5375896,56.6607814 C76.2447338,57.1691349 75.8607059,57.5504 75.3855059,57.8045767 C74.9103059,58.0587535 74.4019524,58.1858419 73.8604454,58.1858419 Z M86.7129475,63.6727442 L86.7129475,57.6885395 C87.0223801,58.2079442 87.472715,58.6417023 88.0639522,58.989814 C88.6551894,59.3379256 89.3375987,59.5119814 90.1111801,59.5119814 C90.917915,59.5119814 91.6500545,59.3130605 92.3075987,58.9152186 C92.9651429,58.5173767 93.4817847,57.959293 93.8575243,57.2409674 C94.2332638,56.5226419 94.4211336,55.7048558 94.4211336,54.7876093 C94.4211336,53.8593116 94.2332638,53.0442884 93.8575243,52.3425395 C93.4817847,51.6407907 92.9651429,51.0965209 92.3075987,50.7097302 C91.6500545,50.3229395 90.917915,50.1295442 90.1111801,50.1295442 C89.3265475,50.1295442 88.6386126,50.3036 88.0473754,50.6517116 C87.4561382,50.9998233 87.0113289,51.4335814 86.7129475,51.952986 L86.7129475,51.952986 L86.7129475,50.2787349 L85.2044638,50.2787349 L85.2044638,63.6727442 L86.7129475,63.6727442 Z M89.7962219,58.1858419 C89.2436638,58.1858419 88.7325475,58.0504651 88.2628731,57.7797116 C87.7931987,57.5089581 87.4174591,57.1166419 87.1356545,56.6027628 C86.8538498,56.0888837 86.7129475,55.4893581 86.7129475,54.804186 C86.7129475,54.1300651 86.8538498,53.5360651 87.1356545,53.022186 C87.4174591,52.508307 87.7931987,52.1159907 88.2628731,51.8452372 C88.7325475,51.5744837 89.2436638,51.439107 89.7962219,51.439107 C90.3598312,51.439107 90.8764731,51.5717209 91.3461475,51.8369488 C91.8158219,52.1021767 92.1887987,52.4889674 92.4650777,52.9973209 C92.7413568,53.5056744 92.8794963,54.1024372 92.8794963,54.7876093 C92.8794963,55.4838326 92.7413568,56.0888837 92.4650777,56.6027628 C92.1887987,57.1166419 91.8158219,57.5089581 91.3461475,57.7797116 C90.8764731,58.0504651 90.3598312,58.1858419 89.7962219,58.1858419 Z M105.035775,59.5119814 C106.118789,59.5119814 107.024985,59.2384651 107.754361,58.6914326 C108.483738,58.1444 108.969989,57.4343628 109.213115,56.5613209 L109.213115,56.5613209 L107.588594,56.5613209 C107.411775,57.0696744 107.105105,57.4758047 106.668585,57.7797116 C106.232064,58.0836186 105.687794,58.2355721 105.035775,58.2355721 C104.240091,58.2355721 103.563208,57.9841581 103.005124,57.4813302 C102.44704,56.9785023 102.140371,56.2795163 102.085115,55.3843721 L102.085115,55.3843721 L109.345729,55.3843721 C109.378882,55.0638884 109.395459,54.7599814 109.395459,54.4726512 C109.395459,53.643814 109.215878,52.9006233 108.856715,52.2430791 C108.497552,51.5855349 107.986436,51.068893 107.323366,50.6931535 C106.660296,50.317414 105.897766,50.1295442 105.035775,50.1295442 C104.151682,50.1295442 103.369812,50.3201767 102.690166,50.7014419 C102.010519,51.082707 101.482826,51.6269767 101.107087,52.3342512 C100.731347,53.0415256 100.543478,53.8648372 100.543478,54.804186 C100.543478,55.7435349 100.736873,56.5696093 101.123664,57.2824093 C101.510454,57.9952093 102.043673,58.5450047 102.723319,58.9317953 C103.402966,59.318586 104.173785,59.5119814 105.035775,59.5119814 Z M107.837245,54.157693 L102.101691,54.157693 C102.17905,53.2957023 102.485719,52.6215814 103.021701,52.1353302 C103.557682,51.6490791 104.206938,51.4059535 104.969468,51.4059535 C105.499924,51.4059535 105.983412,51.5137023 106.419933,51.7292 C106.856454,51.9446977 107.201803,52.2596558 107.45598,52.6740744 C107.710157,53.088493 107.837245,53.5830326 107.837245,54.157693 L107.837245,54.157693 Z M117.589896,59.3627907 L117.589896,54.4229209 C117.589896,52.5884279 118.43531,51.6711814 120.126138,51.6711814 L120.126138,51.6711814 L120.52398,51.6711814 L120.52398,50.1129674 C119.816705,50.1129674 119.21718,50.2566326 118.725403,50.5439628 C118.233626,50.831293 117.855124,51.2346605 117.589896,51.7540651 L117.589896,51.7540651 L117.589896,50.2787349 L116.081412,50.2787349 L116.081412,59.3627907 L117.589896,59.3627907 Z" id="developer"></path>
                <path d="M100.300353,0.692539535 C104.93693,0.692539535 108.964465,1.82221395 112.382958,4.08156279 C115.801451,6.34091163 118.159033,9.51382326 119.455702,13.6002977 L119.455702,13.6002977 L109.966437,13.6002977 C109.023405,11.8714047 107.726735,10.5550884 106.076428,9.65134884 C104.426121,8.7476093 102.500763,8.29573953 100.300353,8.29573953 C97.864186,8.29573953 95.7030698,8.84584186 93.8170047,9.94604651 C91.9309395,11.0462512 90.4574512,12.6179721 89.3965395,14.6612093 C88.3356279,16.7044465 87.8051721,19.0620279 87.8051721,21.7339535 C87.8051721,24.4844651 88.3454512,26.8813395 89.4260093,28.9245767 C90.5065674,30.967814 92.0095256,32.5395349 93.9348837,33.6397395 C95.8602419,34.7399442 98.0999442,35.2900465 100.653991,35.2900465 C103.797433,35.2900465 106.371126,34.4550698 108.37507,32.7851163 C110.379014,31.1151628 111.69533,28.7870512 112.324019,25.8007814 L112.324019,25.8007814 L98.1785302,25.8007814 L98.1785302,19.4942512 L120.457674,19.4942512 L120.457674,26.6848744 C119.907572,29.5532651 118.728781,32.2055442 116.921302,34.6417116 C115.113823,37.0778791 112.785712,39.032707 109.936967,40.5061953 C107.088223,41.9796837 103.895665,42.7164279 100.359293,42.7164279 C96.3906977,42.7164279 92.8052093,41.8225116 89.6028279,40.0346791 C86.4004465,38.2468465 83.885693,35.7615628 82.0585674,32.5788279 C80.2314419,29.396093 79.3178791,25.7811349 79.3178791,21.7339535 C79.3178791,17.6867721 80.2314419,14.0619907 82.0585674,10.8596093 C83.885693,7.65722791 86.4004465,5.16212093 89.6028279,3.37428837 C92.8052093,1.58645581 96.3710512,0.692539535 100.300353,0.692539535 Z M53.4434233,1.22299535 C57.7656558,1.22299535 61.5672558,2.06779535 64.8482233,3.75739535 C68.1291907,5.44699535 70.6635907,7.85369302 72.4514233,10.9774884 C74.2392558,14.1012837 75.1331721,17.7260651 75.1331721,21.8518326 C75.1331721,25.9776 74.2392558,29.5827349 72.4514233,32.6672372 C70.6635907,35.7517395 68.1291907,38.1387907 64.8482233,39.8283907 C61.5672558,41.5179907 57.7656558,42.3627907 53.4434233,42.3627907 L53.4434233,42.3627907 L39.0621767,42.3627907 L39.0621767,1.22299535 Z M35.1795349,1.2162953 L24.1283721,42.3627907 L15.655814,42.3627907 L26.7069767,1.2162953 L35.1795349,1.2162953 Z M19.5237209,1.2162953 L8.47255814,42.3627907 L0,42.3627907 L11.0511628,1.2162953 L19.5237209,1.2162953 Z M53.1487256,8.17786047 L47.3137116,8.17786047 L47.3137116,35.348986 L53.1487256,35.348986 C57.4709581,35.348986 60.8108651,34.1701953 63.1684465,31.812614 C65.5260279,29.4550326 66.7048186,26.1347721 66.7048186,21.8518326 C66.7048186,17.568893 65.5260279,14.2191628 63.1684465,11.8026419 C60.8108651,9.38612093 57.4709581,8.17786047 53.1487256,8.17786047 L53.1487256,8.17786047 Z" id="Combined-Shape"></path>
            </g>
        </g>
    </g>
</svg>