<?xml version="1.0" encoding="UTF-8"?>
<svg width="32px" height="32px" viewBox="0 0 32 32" version="1.1" xmlns="http://www.w3.org/2000/svg" xmlns:xlink="http://www.w3.org/1999/xlink">
    <title>auth0_icon</title>
    <g id="Page-1" stroke="none" stroke-width="1" fill="none" fill-rule="evenodd">
        <g id="Tech-Icons" transform="translate(-74.000000, -237.000000)">
            <g id="auth0_icon" transform="translate(74.000000, 237.000000)">
                <circle id="Oval" cx="16" cy="16" r="16"></circle>
                <path d="M22.4659656,24.4154508 L19.9968724,16.9996426 L26.4601818,12.4176671 L18.4708702,12.4176671 L16.0016304,5.00214478 L16.0008977,5.00014299 L23.9913816,5.00014299 L26.4612076,12.4169522 L26.4613541,12.4168092 L26.4634055,12.4156653 C27.8976776,16.7183897 26.4204711,21.612217 22.4659656,24.4154508 L22.4659656,24.4154508 Z M9.53670909,24.4154508 L9.53465761,24.4168807 L15.9995789,29 L22.4659656,24.4155938 L16.0016304,19.8323315 L9.53670909,24.4154508 L9.53670909,24.4154508 Z M5.540881,12.4158083 L5.540881,12.4158083 C4.03099752,16.9514564 5.78368738,21.7574904 9.53539028,24.4163088 L9.53597642,24.414021 L12.0053627,16.9986416 L5.54351861,12.4175241 L13.5309253,12.4175241 L16.0003116,5.0020018 L16.0008977,5 L8.00997423,5 L5.540881,12.4158083 L5.540881,12.4158083 Z" id="auth0-logo" fill="#EB5424" fill-rule="nonzero"></path>
            </g>
        </g>
    </g>
</svg>