<?xml version="1.0" encoding="UTF-8"?>
<svg width="32px" height="32px" viewBox="0 0 32 32" version="1.1" xmlns="http://www.w3.org/2000/svg" xmlns:xlink="http://www.w3.org/1999/xlink">
    <title>bitbucket_icon</title>
    <defs>
        <linearGradient x1="108.63338%" y1="13.818022%" x2="46.9265964%" y2="78.7761408%" id="linearGradient-1">
            <stop stop-color="#0052CC" offset="18%"></stop>
            <stop stop-color="#2684FF" offset="100%"></stop>
        </linearGradient>
    </defs>
    <g id="Page-1" stroke="none" stroke-width="1" fill="none" fill-rule="evenodd">
        <g id="Tech-Icons" transform="translate(-152.000000, -135.000000)">
            <g id="bitbucket_icon" transform="translate(152.000000, 135.000000)">
                <g id="objc_icon">
                    <circle id="Oval" cx="16" cy="16" r="16"></circle>
                </g>
                <g id="bitbucket-logo" transform="translate(5.000000, 7.000000)">
                    <polygon id="Path" points="8.70307006 13.1107351 13.2963112 13.1107351 14.4050246 6.63796079 7.48172549 6.63796079"></polygon>
                    <path d="M0.713979979,1.50990338e-13 C0.505744743,-0.00262698449 0.306979632,0.0869048718 0.171003288,0.244637431 C0.0350269432,0.402369991 -0.0242417657,0.612157366 0.00909596196,0.817724198 L3.00132862,18.9825854 C3.07828436,19.4414279 3.47358907,19.7787745 3.93882436,19.7826879 L18.2937874,19.7826879 C18.6429818,19.787123 18.9428246,19.5352551 18.9986714,19.1905261 L21.990904,0.821248618 C22.0242418,0.615681785 21.9649731,0.405894411 21.8289967,0.248161851 C21.6930203,0.0904292916 21.4942552,0.000897435593 21.28602,0.00358315821 L0.713979979,1.50990338e-13 Z M13.3137818,13.1285235 L8.73203564,13.1285235 L7.4914398,6.64711502 L14.4239741,6.64711502 L13.3137818,13.1285235 Z" id="Shape" fill="#2684FF" fill-rule="nonzero"></path>
                    <path d="M21.0212427,6.63796079 L14.4111839,6.63796079 L13.3018772,13.1141985 L8.72378641,13.1141985 L3.31811764,19.5305688 C3.48945346,19.6787238 3.70789898,19.761109 3.9343991,19.7630541 L18.2814314,19.7630541 C18.6303472,19.7674857 18.9299508,19.5158188 18.985753,19.1713648 L21.0212427,6.63796079 Z" id="Path" fill="url(#linearGradient-1)" fill-rule="nonzero"></path>
                </g>
            </g>
        </g>
    </g>
</svg>