<?xml version="1.0" encoding="UTF-8"?>
<svg width="32px" height="32px" viewBox="0 0 32 32" version="1.1" xmlns="http://www.w3.org/2000/svg" xmlns:xlink="http://www.w3.org/1999/xlink">
    <title>dartpkg_icon</title>
    <defs>
        <radialGradient cx="51.3727246%" cy="84.1679976%" fx="51.3727246%" fy="84.1679976%" r="62.0542436%" gradientTransform="translate(0.513727,0.841680),scale(0.559888,1.000000),rotate(-90.000000),translate(-0.513727,-0.841680)" id="radialGradient-1">
            <stop stop-color="#2D1B00" offset="0%"></stop>
            <stop stop-color="#694411" offset="100%"></stop>
        </radialGradient>
        <path d="M8.84746179,9.85829062 L17.6076104,4.92914531 C17.4660723,4.78845165 17.3889331,4.62199022 17.1634892,4.49564222 L10.6320497,0.511024021 C10.0295592,0.17034134 9.43469662,0 8.84746179,0 C8.25895567,0 7.66372225,0.17034134 7.06176153,0.511024021 L0,4.92914531 L8.84746179,9.85829062 Z" id="path-2"></path>
        <linearGradient x1="56.889496%" y1="24.809489%" x2="56.889496%" y2="135.657766%" id="linearGradient-4">
            <stop stop-color="#B68828" offset="0%"></stop>
            <stop stop-color="#694411" offset="100%"></stop>
        </linearGradient>
    </defs>
    <g id="Page-1" stroke="none" stroke-width="1" fill="none" fill-rule="evenodd">
        <g id="Tech-Icons" transform="translate(-42.000000, -313.000000)">
            <g id="dartpkg_icon" transform="translate(42.000000, 313.000000)">
                <circle id="Oval" cx="16" cy="16" r="16"></circle>
                <g id="DartPkg_icon" transform="translate(6.000000, 5.000000)">
                    <g id="Group-8" transform="translate(0.927117, 0.956522)">
                        <mask id="mask-3" fill="white">
                            <use xlink:href="#path-2"></use>
                        </mask>
                        <use id="Path" fill="url(#radialGradient-1)" fill-rule="nonzero" xlink:href="#path-2"></use>
                    </g>
                    <path d="M9.8058575,1.68879703 C10.246886,1.68879703 10.8076894,1.88550994 11.4882676,2.27893576 L18.3515385,6.07336305 L18.9765824,5.77689842 C18.8350443,5.63620476 18.5769824,5.42992125 18.3515385,5.30357324 L11.5904454,1.46754576 C10.9879549,1.12686308 10.3930923,0.956521739 9.8058575,0.956521739 C9.21735137,0.956521739 8.62211795,1.12686308 8.02015723,1.46754576 L0.73303055,5.70413574 L1.38850843,6.07336305 L8.25714373,2.27893576 C8.84859106,1.88550994 9.36482898,1.68879703 9.8058575,1.68879703 Z M10.4904527,22 C10.5309225,21.9925615 10.5701739,21.9791988 10.6082069,21.9599119 C10.64624,21.9406249 10.6827369,21.9188142 10.7176977,21.8944798 L18.208835,17.6456163 C18.6674566,17.3900511 19.0154222,17.092857 19.2527316,16.754034 C19.490041,16.4152109 19.6086957,15.8985283 19.6086957,15.2039862 L19.6086957,7.58995146 C19.6086957,7.31727779 19.5841701,7.08758796 19.5351191,6.90088195 L10.4904527,12.0541591 L10.4904527,22 Z M9.11919639,22 L9.11919639,12.0541591 L0.0745299836,6.90088195 C0.0248433279,7.08758796 0,7.31727779 0,7.58995146 L0,15.2039862 C0,15.8985283 0.118813613,16.4152109 0.356440838,16.754034 C0.594068064,17.092857 0.941874654,17.3900511 1.39986061,17.6456163 L8.89099797,21.8944798 C8.92595873,21.9188142 8.9639918,21.9406249 9.00509718,21.9599119 C9.04620256,21.9791988 9.08423563,21.9925615 9.11919639,22 Z" id="ô€›" fill="url(#linearGradient-4)" fill-rule="nonzero" transform="translate(9.804348, 11.478261) scale(-1, 1) translate(-9.804348, -11.478261) "></path>
                    <g id="dartlang-icon" transform="translate(3.108696, 0.000000)" fill-rule="nonzero">
                        <path d="M2.41115217,2.38245652 L2.41402174,7.74549457 L2.42298913,7.99586413 C2.42657609,8.1142337 2.44899457,8.24695109 2.48486413,8.38504891 L8.36298913,10.4583098 L9.8336413,9.80727717 L9.83489674,9.805125 L3.15293478,3.12495652 L2.41115217,2.38245652 Z" id="Path" fill="#00C4B3"></path>
                        <path d="M9.83220652,9.80727717 L8.36155435,10.4583098 L2.48432609,8.38504891 C2.59641848,8.81620109 2.84517391,9.30079891 3.11240217,9.56515761 L5.14438595,11.1448895 L8.76478449,10.6993314 L9.83041304,9.80727717 L9.83220652,9.80727717 Z" id="Shape" fill="#22D3C5"></path>
                        <g id="Group" transform="translate(0.000000, 2.331522)" fill="#0075C9">
                            <path d="M2.43123913,0.0511141304 L0.145809783,3.50266304 C-0.0439402174,3.70532609 0.0507554348,4.12356522 0.356184783,4.43168478 L1.67546739,5.76172826 L2.50477174,6.05406522 C2.46890217,5.91632609 2.44630435,5.78504348 2.44289674,5.66488043 L2.43392935,5.41451087 L2.43123913,0.0514728261 L2.43123913,0.0511141304 Z" id="Path"></path>
                            <path d="M8.41141304,0.120163043 C8.27331522,0.0851902174 8.14095652,0.0631304348 8.02169022,0.0597228261 L7.75661413,0.0500380435 L2.41115217,0.0512934783 L9.83471739,7.47378261 L10.4868261,6.00313043 L8.41177174,0.120521739 L8.41141304,0.120163043 Z" id="Path"></path>
                        </g>
                        <path d="M9.5909837,3.081375 C9.32106522,2.80966304 8.84310326,2.5612663 8.41141304,2.45222283 L10.4864674,8.33429348 L9.8336413,9.80494565 L11.4266087,9.29595652 L11.4301957,4.92847826 L9.59080435,3.08119565 L9.5909837,3.081375 Z" id="Shape" fill="#00A8E1"></path>
                        <path d="M8.12051087,1.62758152 L6.79333696,0.307581522 C6.48378261,0.00322826087 6.06554348,-0.091826087 5.86467391,0.0975652174 L2.41330435,2.38245652 L7.7587663,2.38120109 L8.02384239,2.39088587 C8.1431087,2.39447283 8.27564674,2.41635326 8.41356522,2.45132609 L8.12086957,1.62722283 L8.12051087,1.62758152 Z" id="Path" fill="#00C4B3"></path>
                    </g>
                    <polygon id="Path-4" fill="#FFFFFF" fill-rule="nonzero" points="15.7805205 7.42566456 9.91833836 10.8148124 4.38505419 7.81261419 4.23603015 9.01949362 8.36956522 11.4093553 11.9136689 11 14.4418162 9.73991184"></polygon>
                </g>
            </g>
        </g>
    </g>
</svg>