<?xml version="1.0" encoding="UTF-8"?>
<svg width="32px" height="32px" viewBox="0 0 32 32" version="1.1" xmlns="http://www.w3.org/2000/svg" xmlns:xlink="http://www.w3.org/1999/xlink">
    <title>dart_icon</title>
    <g id="Page-1" stroke="none" stroke-width="1" fill="none" fill-rule="evenodd">
        <g id="Tech-Icons" transform="translate(-8.000000, -58.000000)">
            <g id="dart_icon" transform="translate(8.000000, 58.000000)">
                <circle id="Oval" cx="16" cy="16" r="16"></circle>
                <g id="dartlang-icon" transform="translate(5.000000, 5.000000)" fill-rule="nonzero">
                    <path d="M6.0438125,5.9895 L4.621375,4.566375 L4.626875,14.8455313 L4.6440625,15.3254063 C4.6509375,15.5522812 4.69390625,15.8066562 4.76265625,16.0713438 L16.0290625,20.0450937 L18.8478125,18.7972813 L18.8502187,18.7931563 L6.043125,5.9895 L6.0438125,5.9895 Z" id="Path" fill="#00C4B3"></path>
                    <path d="M18.8450625,18.7972813 L16.0263125,20.0450938 L4.761625,16.0713438 C4.97646875,16.8977187 5.45325,17.8265313 5.9654375,18.3332188 L9.640125,21.9896875 L17.81725,22 L18.841625,18.7972813 L18.8450625,18.7972813 Z" id="Shape" fill="#22D3C5"></path>
                    <g id="Group" transform="translate(0.000000, 4.468750)" fill="#0075C9">
                        <path d="M4.659875,0.09796875 L0.27946875,6.7134375 C-0.08421875,7.101875 0.09728125,7.9035 0.6826875,8.4940625 L3.2113125,11.0433125 L4.8008125,11.603625 C4.7320625,11.339625 4.68875,11.088 4.68221875,10.8576875 L4.66503125,10.3778125 L4.659875,0.09865625 L4.659875,0.09796875 Z" id="Path"></path>
                        <path d="M16.121875,0.2303125 C15.8571875,0.16328125 15.6035,0.121 15.3749062,0.11446875 L14.8668437,0.09590625 L4.621375,0.0983125 L18.849875,14.32475 L20.09975,11.506 L16.1225625,0.231 L16.121875,0.2303125 Z" id="Path"></path>
                    </g>
                    <path d="M18.3827187,5.90596875 C17.865375,5.3851875 16.9492812,4.90909375 16.121875,4.70009375 L20.0990625,15.9740625 L18.8478125,18.7928125 L21.901,17.81725 L21.907875,9.44625 L18.382375,5.905625 L18.3827187,5.90596875 Z" id="Shape" fill="#00A8E1"></path>
                    <path d="M15.5643125,3.11953125 L13.0205625,0.58953125 C12.42725,0.0061875 11.625625,-0.176 11.240625,0.187 L4.6255,4.566375 L14.8709687,4.56396875 L15.3790313,4.58253125 C15.607625,4.58940625 15.8616562,4.63134375 16.126,4.698375 L15.565,3.11884375 L15.5643125,3.11953125 Z" id="Path" fill="#00C4B3"></path>
                </g>
            </g>
        </g>
    </g>
</svg>