<?xml version="1.0" encoding="UTF-8"?>
<svg width="32px" height="32px" viewBox="0 0 32 32" version="1.1" xmlns="http://www.w3.org/2000/svg" xmlns:xlink="http://www.w3.org/1999/xlink">
    <title>figma_icon</title>
    <g id="Page-1" stroke="none" stroke-width="1" fill="none" fill-rule="evenodd">
        <g id="Tech-Icons" transform="translate(-40.000000, -167.000000)">
            <g id="figma_icon" transform="translate(40.000000, 167.000000)">
                <g id="objc_icon">
                    <circle id="Oval" cx="16" cy="16" r="16"></circle>
                </g>
                <g id="figma-logo" transform="translate(9.000000, 5.000000)" fill-rule="nonzero">
                    <path d="M3.66593363,21.9956018 C5.68952899,21.9956018 7.33186725,20.3532635 7.33186725,18.3296681 L7.33186725,14.6637345 L3.66593363,14.6637345 C1.64233826,14.6637345 0,16.3060728 0,18.3296681 C0,20.3532635 1.64233826,21.9956018 3.66593363,21.9956018 Z" id="path0_fill" fill="#0ACF83"></path>
                    <path d="M0,10.9978009 C0,8.97420552 1.64233826,7.33186725 3.66593363,7.33186725 L7.33186725,7.33186725 L7.33186725,14.6637345 L3.66593363,14.6637345 C1.64233826,14.6637345 0,13.0213962 0,10.9978009 Z" id="path1_fill" fill="#A259FF"></path>
                    <path d="M0,3.66593363 C0,1.64233826 1.64233826,0 3.66593363,0 L7.33186725,0 L7.33186725,7.33186725 L3.66593363,7.33186725 C1.64233826,7.33186725 0,5.68952899 0,3.66593363 Z" id="path1_fill_1_" fill="#F24E1E"></path>
                    <path d="M7.33186725,0 L10.9978009,0 C13.0213962,0 14.6637345,1.64233826 14.6637345,3.66593363 C14.6637345,5.68952899 13.0213962,7.33186725 10.9978009,7.33186725 L7.33186725,7.33186725 L7.33186725,0 Z" id="path2_fill" fill="#FF7262"></path>
                    <path d="M14.6637345,10.9978009 C14.6637345,13.0213962 13.0213962,14.6637345 10.9978009,14.6637345 C8.97420552,14.6637345 7.33186725,13.0213962 7.33186725,10.9978009 C7.33186725,8.97420552 8.97420552,7.33186725 10.9978009,7.33186725 C13.0213962,7.33186725 14.6637345,8.97420552 14.6637345,10.9978009 Z" id="path3_fill" fill="#1ABCFE"></path>
                </g>
            </g>
        </g>
    </g>
</svg>