<?xml version="1.0" encoding="UTF-8"?>
<svg width="32px" height="32px" viewBox="0 0 32 32" version="1.1" xmlns="http://www.w3.org/2000/svg" xmlns:xlink="http://www.w3.org/1999/xlink">
    <title>git_icon</title>
    <defs>
        <polygon id="path-1" points="0 0.0319347826 25.9680652 0.0319347826 25.9680652 26 0 26"></polygon>
    </defs>
    <g id="Page-1" stroke="none" stroke-width="1" fill="none" fill-rule="evenodd">
        <g id="Tech-Icons" transform="translate(-118.000000, -135.000000)">
            <g id="git_icon" transform="translate(118.000000, 135.000000)">
                <g id="objc_icon">
                    <circle id="Oval" cx="16" cy="16" r="16"></circle>
                </g>
                <g id="Git-Icon-Black" transform="translate(3.000000, 3.000000)">
                    <mask id="mask-2" fill="white">
                        <use xlink:href="#path-1"></use>
                    </mask>
                    <g id="Path"></g>
                    <path d="M25.4788696,11.8596739 L14.1406087,0.52226087 C13.8271573,0.208377562 13.4017666,0.0320034035 12.9581739,0.0320034035 C12.5145812,0.0320034035 12.0891905,0.208377562 11.7757391,0.52226087 L9.42104348,2.87695652 L12.407087,5.863 C13.1232394,5.61978449 13.9153692,5.8042861 14.4503478,6.33891304 C14.988266,6.87760271 15.1718039,7.67593251 14.9231522,8.39545652 L17.8009565,11.2735435 C18.5204456,11.023504 19.3195573,11.2070867 19.8577826,11.7460652 C20.2309794,12.1191918 20.4406451,12.6253023 20.4406451,13.1530326 C20.4406451,13.680763 20.2309794,14.1868734 19.8577826,14.56 C19.0803263,15.3371233 17.8201737,15.3371233 17.0427174,14.56 C16.4744302,13.9920755 16.3036206,13.1380274 16.6097609,12.3952174 L13.9249783,9.71128261 L13.9249783,16.7756522 C14.4998911,17.0596482 14.9026836,17.6033278 15.0069199,18.236031 C15.1111562,18.8687341 14.904057,19.5128919 14.4506304,19.9663043 C14.0775038,20.3395012 13.5713934,20.5491669 13.043663,20.5491669 C12.5159327,20.5491669 12.0098223,20.3395012 11.6366957,19.9663043 C11.2634124,19.5931663 11.0536918,19.0869953 11.0536918,18.5591957 C11.0536918,18.031396 11.2634124,17.525225 11.6366957,17.152087 C11.8230887,16.9652481 12.0448203,16.8173951 12.2889565,16.7171522 L12.2889565,9.58778261 C12.0447977,9.48809699 11.8230317,9.34060529 11.6366957,9.15397826 C11.0659746,8.58252697 10.8967557,7.72303804 11.2082609,6.9778913 L8.26404348,4.03367391 L0.490043478,11.8065435 C0.176247357,12.1202133 -5.2086862e-05,12.5457167 -5.2086862e-05,12.9894022 C-5.2086862e-05,13.4330876 0.176247357,13.858591 0.490043478,14.1722609 L11.828587,25.511087 C12.4818169,26.1636707 13.5402266,26.1636707 14.1934565,25.511087 L25.4788696,14.2253913 C26.1312392,13.5717418 26.1312392,12.5133234 25.4788696,11.8596739" id="Path" fill="#FF7B4F" fill-rule="nonzero" mask="url(#mask-2)"></path>
                </g>
            </g>
        </g>
    </g>
</svg>