<?xml version="1.0" encoding="UTF-8"?>
<svg width="32px" height="32px" viewBox="0 0 32 32" version="1.1" xmlns="http://www.w3.org/2000/svg" xmlns:xlink="http://www.w3.org/1999/xlink">
    <title>github_icon</title>
    <g id="Page-1" stroke="none" stroke-width="1" fill="none" fill-rule="evenodd">
        <g id="Tech-Icons" transform="translate(-186.000000, -135.000000)">
            <g id="github_icon" transform="translate(186.000000, 135.000000)">
                <g id="objc_icon">
                    <circle id="Oval" cx="16" cy="16" r="16"></circle>
                </g>
                <path d="M11.696371,23.1299634 C11.696371,23.2333531 11.5758065,23.3160648 11.4237903,23.3160648 C11.2508065,23.3315732 11.1302419,23.2488615 11.1302419,23.1299634 C11.1302419,23.0265738 11.2508065,22.9438621 11.4028226,22.9438621 C11.5600806,22.9283536 11.696371,23.0110654 11.696371,23.1299634 Z M10.066129,22.8973367 C10.0294355,23.0007264 10.1342742,23.1196245 10.2915323,23.1506414 C10.4278226,23.2023362 10.5850806,23.1506414 10.6165323,23.0472517 C10.6479839,22.9438621 10.5483871,22.824964 10.391129,22.7784387 C10.2548387,22.7422523 10.1028226,22.7939471 10.066129,22.8973367 Z M12.3830645,22.8094555 C12.2310484,22.8456419 12.1262097,22.9438621 12.1419355,23.0627602 C12.1576613,23.1661498 12.2939516,23.2333531 12.4512097,23.1971667 C12.6032258,23.1609803 12.7080645,23.0627602 12.6923387,22.9593705 C12.6766129,22.8611504 12.5350806,22.7939471 12.3830645,22.8094555 Z M15.8322581,3 C8.56169355,3 3,8.44346469 3,15.6135364 C3,21.3464921 6.65887097,26.2523307 11.8850806,27.9789377 C12.5560484,28.0978358 12.7919355,27.6894467 12.7919355,27.3534303 C12.7919355,27.0329225 12.7762097,25.2649596 12.7762097,24.1793683 C12.7762097,24.1793683 9.10685484,24.9547906 8.33629032,22.6388626 C8.33629032,22.6388626 7.73870968,21.1345433 6.87903226,20.7468322 C6.87903226,20.7468322 5.67862903,19.9352235 6.96290323,19.9507319 C6.96290323,19.9507319 8.26814516,20.0541216 8.98629032,21.2844583 C10.1342742,23.2798784 12.0580645,22.7060659 12.8076613,22.3648801 C12.9282258,21.5377629 13.2689516,20.9639504 13.646371,20.6227646 C10.716129,20.3022567 7.75967742,19.8835287 7.75967742,14.9104868 C7.75967742,13.4888793 8.15806452,12.7754907 8.99677419,11.8656619 C8.86048387,11.5296455 8.41491935,10.1442243 9.13306452,8.35558349 C10.228629,8.01956715 12.75,9.75134367 12.75,9.75134367 C13.7983871,9.46185267 14.9254032,9.31193769 16.0419355,9.31193769 C17.1584677,9.31193769 18.2854839,9.46185267 19.333871,9.75134367 C19.333871,9.75134367 21.8552419,8.01439767 22.9508065,8.35558349 C23.6689516,10.1493938 23.2233871,11.5296455 23.0870968,11.8656619 C23.9258065,12.7806602 24.4395161,13.4940487 24.4395161,14.9104868 C24.4395161,19.8990371 21.3520161,20.2970872 18.4217742,20.6227646 C18.9040323,21.0311537 19.3129032,21.806576 19.3129032,23.0214043 C19.3129032,24.7635198 19.2971774,26.9191938 19.2971774,27.3430914 C19.2971774,27.6791077 19.5383065,28.0874968 20.2040323,27.9685987 C25.4459677,26.2523307 29,21.3464921 29,15.6135364 C29,8.44346469 23.1028226,3 15.8322581,3 Z M8.09516129,20.8295439 C8.02701613,20.8812387 8.04274194,21.0001368 8.13185484,21.098357 C8.21572581,21.1810687 8.33629032,21.2172551 8.40443548,21.1500518 C8.47258065,21.098357 8.45685484,20.9794589 8.36774194,20.8812387 C8.28387097,20.798527 8.16330645,20.7623406 8.09516129,20.8295439 Z M7.52903226,20.4108158 C7.49233871,20.4780191 7.54475806,20.5607308 7.64959677,20.6124256 C7.73346774,20.6641205 7.83830645,20.648612 7.875,20.5762393 C7.91169355,20.509036 7.85927419,20.4263243 7.75443548,20.3746295 C7.64959677,20.3436126 7.56572581,20.359121 7.52903226,20.4108158 Z M9.22741935,22.2511515 C9.14354839,22.3183547 9.175,22.4734392 9.29556452,22.5716594 C9.41612903,22.6905575 9.56814516,22.7060659 9.63629032,22.6233542 C9.70443548,22.5561509 9.67298387,22.4010665 9.56814516,22.3028463 C9.45282258,22.1839482 9.29556452,22.1684398 9.22741935,22.2511515 Z M8.62983871,21.4912376 C8.54596774,21.5429324 8.54596774,21.677339 8.62983871,21.796237 C8.71370968,21.9151351 8.85524194,21.96683 8.9233871,21.9151351 C9.00725806,21.8479319 9.00725806,21.7135253 8.9233871,21.5946272 C8.85,21.4757292 8.71370968,21.4240343 8.62983871,21.4912376 Z" fill="#000000" fill-rule="nonzero"></path>
            </g>
        </g>
    </g>
</svg>