<?xml version="1.0" encoding="UTF-8"?>
<svg width="32px" height="32px" viewBox="0 0 32 32" version="1.1" xmlns="http://www.w3.org/2000/svg" xmlns:xlink="http://www.w3.org/1999/xlink">
    <title>pods_icon</title>
    <g id="Page-1" stroke="none" stroke-width="1" fill="none" fill-rule="evenodd">
        <g id="Tech-Icons" transform="translate(-8.000000, -313.000000)">
            <g id="pods_icon" transform="translate(8.000000, 313.000000)">
                <circle id="Oval" cx="16" cy="16" r="16"></circle>
                <g id="cocoapods_logo" transform="translate(5.000000, 8.000000)" fill="#E76666" fill-rule="nonzero">
                    <path d="M14.8366659,9.55862829 C14.2848889,12.585695 11.6851328,15.0620873 7.67484439,15.0620873 C2.88431541,15.0620873 -1.12386498e-14,11.5433885 -1.12386498e-14,7.53305766 C-1.12386498e-14,3.6033935 2.74152163,2.45206905e-14 7.63302714,2.45206905e-14 C11.8289442,2.45206905e-14 14.4287003,2.6395276 14.8162607,5.93382259 L11.3577386,5.93382259 C11.051767,4.25614685 9.78198268,2.98837647 7.67484439,2.98837647 C4.93127695,2.98837647 3.37693324,5.15768416 3.37693324,7.53305766 C3.37693324,10.0492002 5.11587747,12.0758309 7.71563355,12.0758309 C9.63918888,12.0758309 10.9079556,10.9702418 11.3169494,9.55862829 L14.8366659,9.55862829 Z" id="Path"></path>
                    <polygon id="Path" points="18.8535899 0.334538744 16.7403249 1.24021016 19.3890426 7.43415889 16.7393073 13.6301216 18.8535899 14.5337789 20.631288 10.3470627 20.6404678 10.3663548 21.8704806 7.43415889"></polygon>
                </g>
            </g>
        </g>
    </g>
</svg>