<?xml version="1.0" encoding="UTF-8"?>
<svg width="32px" height="32px" viewBox="0 0 32 32" version="1.1" xmlns="http://www.w3.org/2000/svg" xmlns:xlink="http://www.w3.org/1999/xlink">
    <title>snapkit_icon</title>
    <g id="Page-1" stroke="none" stroke-width="1" fill="none" fill-rule="evenodd">
        <g id="Tech-Icons" transform="translate(-118.000000, -57.000000)">
            <g id="snapkit_icon" transform="translate(118.000000, 57.000000)">
                <circle id="Oval" cx="16" cy="16" r="16"></circle>
                <path d="M16.006867,26 C17.6640916,26 19.0969957,25.7361478 20.3055794,25.2084433 C21.5141631,24.6807388 22.4320458,23.9507476 23.0592275,23.0184697 C23.6864092,22.0861917 24,21.0351803 24,19.8654354 C24,18.8891821 23.8191702,18.0646438 23.4575107,17.3918206 C23.0958512,16.7189974 22.5922747,16.1627089 21.9467811,15.7229551 C21.3012876,15.2832014 20.5184549,14.9094107 19.5982833,14.6015831 C18.6781116,14.2937555 17.6503577,14.0123131 16.5150215,13.7572559 C15.6085837,13.5373791 14.9585122,13.3702726 14.5648069,13.2559367 C14.1711016,13.1416007 13.7819742,12.9832894 13.3974249,12.7810026 C13.0128755,12.5787159 12.7107296,12.3368514 12.4909871,12.055409 C12.2712446,11.7739666 12.1613734,11.4397537 12.1613734,11.0527704 C12.1613734,10.4283201 12.4841202,9.89401935 13.1296137,9.44986807 C13.7751073,9.0057168 14.6243205,8.78364116 15.6772532,8.78364116 C16.8125894,8.78364116 17.6366237,8.98812665 18.1493562,9.39709763 C18.6620887,9.8060686 19.1015737,10.3755497 19.4678112,11.1055409 C19.7516452,11.6156552 20.0148784,11.9828496 20.2575107,12.207124 C20.5001431,12.4313984 20.8549356,12.5435356 21.3218884,12.5435356 C21.8346209,12.5435356 22.2626609,12.3566403 22.6060086,11.9828496 C22.9493562,11.6090589 23.12103,11.1890941 23.12103,10.7229551 C23.12103,10.2128408 22.983691,9.68953386 22.7090129,9.1530343 C22.4343348,8.61653474 21.9994278,8.10422164 21.4042918,7.61609499 C20.8091559,7.12796834 20.0606581,6.73658751 19.1587983,6.44195251 C18.2569385,6.1473175 17.1879828,6 15.9519313,6 C14.404578,6 13.0586552,6.22207564 11.9141631,6.66622691 C10.769671,7.11037819 9.89527897,7.74582234 9.29098712,8.57255937 C8.68669528,9.39929639 8.38454936,10.3447669 8.38454936,11.408971 C8.38454936,12.5259455 8.67067239,13.4604222 9.24291845,14.2124011 C9.81516452,14.9643799 10.5888412,15.5580475 11.5639485,15.9934037 C12.5390558,16.4287599 13.7499285,16.8091469 15.1965665,17.1345646 C16.2769671,17.3720317 17.1399142,17.5963061 17.7854077,17.8073879 C18.4309013,18.0184697 18.9573677,18.3240985 19.3648069,18.7242744 C19.7722461,19.1244503 19.9759657,19.6455585 19.9759657,20.2875989 C19.9759657,21.0967458 19.5982833,21.7717678 18.8429185,22.3126649 C18.0875536,22.853562 17.1055794,23.1240106 15.8969957,23.1240106 C15.0180258,23.1240106 14.3084406,22.9898857 13.7682403,22.7216359 C13.2280401,22.4533861 12.8091559,22.112577 12.511588,21.6992084 C12.21402,21.2858399 11.9370529,20.7713281 11.6806867,20.1556728 C11.4701001,19.6367634 11.2160229,19.2453826 10.9184549,18.9815303 C10.620887,18.7176781 10.2569385,18.585752 9.82660944,18.585752 C9.29556509,18.585752 8.8583691,18.7550572 8.51502146,19.0936675 C8.17167382,19.4322779 8,19.8390501 8,20.3139842 C8,21.1319261 8.28612303,21.9740545 8.8583691,22.8403694 C9.43061516,23.7066843 10.1745351,24.3992964 11.0901288,24.9182058 C12.3811159,25.6394019 14.0200286,26 16.006867,26 Z" id="S" stroke="#4FBFE4" stroke-width="1.5" fill-rule="nonzero"></path>
            </g>
        </g>
    </g>
</svg>