<?xml version="1.0" encoding="UTF-8"?>
<svg width="32px" height="32px" viewBox="0 0 32 32" version="1.1" xmlns="http://www.w3.org/2000/svg" xmlns:xlink="http://www.w3.org/1999/xlink">
    <title>spm_icon</title>
    <defs>
        <linearGradient x1="56.889496%" y1="24.809489%" x2="56.889496%" y2="135.657766%" id="linearGradient-1">
            <stop stop-color="#B68828" offset="0%"></stop>
            <stop stop-color="#694411" offset="100%"></stop>
        </linearGradient>
    </defs>
    <g id="Page-1" stroke="none" stroke-width="1" fill="none" fill-rule="evenodd">
        <g id="Tech-Icons" transform="translate(-110.000000, -313.000000)">
            <g id="spm_icon" transform="translate(110.000000, 313.000000)">
                <circle id="Oval" cx="16" cy="16" r="16"></circle>
                <g id="swift_pkg" transform="translate(6.000000, 5.000000)" fill-rule="nonzero">
                    <path d="M16.0148998,7.07149694 L19.767021,4.9498152 C19.6190057,4.80312939 19.4271176,4.6639219 19.1913567,4.53219272 L12.1208569,0.532788569 C11.4907948,0.17759619 10.8687096,0 10.2546012,0 C9.63916338,0 9.0166904,0.17759619 8.38718225,0.532788569 L6.40459722,1.65304052 L16.0148998,7.07149694 Z M10.2536041,10.3150925 L14.5391785,7.90109162 L4.98305217,2.46983896 L1.31668242,4.53219272 C1.0802568,4.6639219 0.888036344,4.80312939 0.740021054,4.9498152 L10.2536041,10.3150925 Z M10.9705255,21.9397214 C11.0128472,21.9319661 11.0538948,21.9180343 11.0936684,21.897926 C11.133442,21.8778176 11.1716091,21.855078 11.2081698,21.8297071 L19.0421227,17.3998842 C19.5217321,17.1334345 19.8856215,16.8235829 20.1337909,16.4703294 C20.3819602,16.1170758 20.5060449,15.5783877 20.5060449,14.854265 L20.5060449,6.91594794 C20.5060449,6.63166109 20.480397,6.39218875 20.4291013,6.19753092 L10.9705255,11.5702865 L10.9705255,21.9397214 Z M9.53651655,21.9397214 L9.53651655,11.5702865 L0.0779406859,6.19753092 C0.0259802286,6.39218875 0,6.63166109 0,6.91594794 L0,14.854265 C0,15.5783877 0.124250859,16.1170758 0.372752577,16.4703294 C0.621254295,16.8235829 0.984977496,17.1334345 1.46392218,17.3998842 L9.29787513,21.8297071 C9.33443579,21.855078 9.37420936,21.8778176 9.41719584,21.897926 C9.46018232,21.9180343 9.49995589,21.9319661 9.53651655,21.9397214 Z" id="􀐛" fill="url(#linearGradient-1)"></path>
                    <path d="M19.4557222,15.6667935 C19.4634576,15.621397 19.4711441,15.5701098 19.4787818,15.5129385 C19.4864195,15.4558071 19.4902384,15.393829 19.4902384,15.3269742 C19.4902384,15.2063205 19.4737421,15.0617992 19.4407496,14.8929422 C19.4077571,14.7234606 19.3426413,14.5506704 19.2454022,14.3733455 C19.1481631,14.1937611 19.0036914,14.0264042 18.8119871,13.8692996 C18.875003,13.6422274 18.9141291,13.4278606 18.9293655,13.2255287 C18.9446018,13.0234855 18.95222,12.8592562 18.95222,12.7326241 C18.95222,12.4491385 18.9105447,12.141556 18.8271941,11.8076186 C18.7438436,11.4706707 18.6061891,11.1358927 18.4142309,10.7998777 C18.2222726,10.4563096 17.9634502,10.1362592 17.6377638,9.83614337 C17.3120774,9.52369724 16.9068007,9.25965258 16.4219336,9.04192629 C16.5558962,9.23868447 16.6961095,9.47048335 16.8425737,9.73636596 C16.9890378,9.99823761 17.11338,10.3048972 17.2156002,10.656686 C17.3178203,11.0049187 17.3689304,11.4134199 17.3689304,11.8848567 C17.3689304,12.1427002 17.344943,12.4095454 17.296968,12.6862229 C17.2489931,12.9640082 17.1997485,13.1868183 17.1492342,13.3543111 C16.9372929,13.3074195 16.6942929,13.2286205 16.4202342,13.1157272 C16.1461755,12.9971288 15.8594883,12.8521809 15.5601724,12.6794956 C15.2608566,12.4992547 14.9660433,12.3039215 14.6757325,12.0934611 C14.3854218,11.8753986 14.1177897,11.6553509 13.8728363,11.434604 C13.6278829,11.2079695 13.4246732,10.9997503 13.2632071,10.8121505 C13.5886787,11.3952929 13.9421128,11.9279345 14.3235095,12.4088952 C14.7049062,12.8710618 15.1078193,13.3108318 15.5322489,13.7263131 C14.9613552,13.5191061 14.4082177,13.2531896 13.8728363,12.9277079 C13.337455,12.5791526 12.82108,12.1713831 12.3237113,11.7039819 C12.8010774,12.5290527 13.3466261,13.279177 13.9603573,13.9476548 C14.5740886,14.5719545 15.2797555,15.0838164 16.0773581,15.4754044 C15.847641,15.7592098 15.602756,16.0298997 15.3427031,16.2869712 C15.0826501,16.5464558 14.751797,16.7916222 14.3501438,17.0206604 C14.0269382,17.2049648 13.6892483,17.333515 13.3370741,17.4036845 C12.9848999,17.4703518 12.6516051,17.4817825 12.3371896,17.4368039 C12.0227742,17.3867597 11.7569588,17.2892945 11.5397433,17.1451887 C11.6609698,17.3730788 11.8188124,17.6002034 12.013271,17.8249599 C12.2077296,18.0450427 12.4363039,18.2355473 12.698994,18.3953981 C12.961684,18.5491412 13.2551788,18.6514468 13.5794783,18.702227 C13.9037778,18.7467825 14.2541353,18.7203872 14.6305509,18.6244485 C15.0069665,18.5241612 15.4072524,18.3345366 15.8314085,18.058836 C16.169577,17.8390272 16.4548285,17.6142766 16.6871631,17.3857771 C16.9194976,17.1588683 17.122766,16.9415001 17.296968,16.7336221 C17.4711701,16.5272676 17.6390628,16.3367259 17.8006461,16.1616842 C17.9622294,15.9877487 18.1402601,15.8412635 18.3347382,15.7213986 C18.5519536,15.5875199 18.7287244,15.521717 18.8650506,15.5231378 C19.0013767,15.5234224 19.1073473,15.5519246 19.1829625,15.6089101 C19.2585777,15.6651136 19.3128913,15.7133348 19.3459034,15.7540073 C19.3588738,15.7752113 19.3761026,15.782867 19.3975897,15.7769902 C19.4190769,15.7710959 19.4384544,15.734335 19.4557222,15.6667935 Z" id="􀫊" fill="#4D310E"></path>
                </g>
            </g>
        </g>
    </g>
</svg>