<?xml version="1.0" encoding="UTF-8"?>
<svg width="31px" height="31px" viewBox="0 0 31 31" version="1.1" xmlns="http://www.w3.org/2000/svg" xmlns:xlink="http://www.w3.org/1999/xlink">
    <title>swiftui_icon</title>
    <defs>
        <linearGradient x1="50%" y1="0%" x2="50%" y2="100%" id="linearGradient-1">
            <stop stop-color="#0EF3F7" offset="0%"></stop>
            <stop stop-color="#030A8D" offset="100%"></stop>
        </linearGradient>
    </defs>
    <g id="Page-1" stroke="none" stroke-width="1" fill="none" fill-rule="evenodd">
        <g id="Tech-Icons" transform="translate(-119.000000, -24.000000)">
            <g id="swiftui_icon" transform="translate(119.000000, 24.000000)">
                <ellipse id="Oval" cx="15.1912088" cy="15.0588235" rx="15.1912088" ry="15.0588235"></ellipse>
                <g id="SwiftUI_icon" transform="translate(3.000000, 3.000000)">
                    <circle id="Oval" fill="url(#linearGradient-1)" cx="12" cy="12" r="12"></circle>
                    <path d="M19.3124816,18.3167766 C19.3286474,18.2375688 19.3447112,18.1466792 19.3606728,18.0441079 C19.3766345,17.9415366 19.3846154,17.8245972 19.3846154,17.6932897 C19.3846154,17.4563174 19.3501406,17.1524296 19.281191,16.7816262 C19.2122414,16.4108228 19.0761588,15.9978309 18.8729432,15.5426504 C18.6697276,15.0874699 18.3678027,14.6098825 17.9671683,14.1098881 C18.0988625,13.7421782 18.1806304,13.372657 18.2124721,13.0013244 C18.2443139,12.6299919 18.2602347,12.3232346 18.2602347,12.0810523 C18.2602347,11.5388898 18.1731394,10.9140393 17.9989488,10.2065008 C17.8247582,9.4989624 17.5370804,8.75979782 17.1359153,7.98900709 C16.7347503,7.21821636 16.193849,6.46199726 15.5132115,5.72034981 C14.832574,4.97870235 13.9856043,4.30268831 12.9723023,3.69230769 C13.2522647,4.09225434 13.5452903,4.56045975 13.8513792,5.09692391 C14.157468,5.63338807 14.4173252,6.24236444 14.6309506,6.92385302 C14.8445759,7.6053416 14.9513886,8.36455235 14.9513886,9.20148529 C14.9513886,9.65923005 14.9012583,10.1142681 14.8009977,10.5665993 C14.700737,11.0189306 14.5978229,11.3713973 14.4922553,11.6239995 C14.0493286,11.3661874 13.5414938,11.0333802 12.9687508,10.6255778 C12.3960078,10.2177755 11.7968729,9.76662464 11.1713461,9.27212516 C10.5458193,8.77762569 9.92970211,8.27388665 9.3229946,7.76090806 C8.71628708,7.24792947 8.15697476,6.75601463 7.64505764,6.28516354 C7.13314052,5.81431244 6.70846159,5.39999767 6.37102085,5.04221922 C7.05120929,6.07867775 7.78983548,7.07956195 8.58689942,8.04487181 C9.38396335,9.01018168 10.2259935,9.98477181 11.11299,10.9686422 C9.91990466,10.2160457 8.76392722,9.41761766 7.64505764,8.57335821 C6.52618807,7.72909875 5.44703902,6.84161282 4.40761049,5.91090041 C5.40523654,7.3572371 6.54535434,8.78546099 7.82796391,10.1955721 C9.11057349,11.6056832 10.5853153,12.9815632 12.2521893,14.323212 C11.7721139,14.5861527 11.2603396,14.8085126 10.7168665,14.9902918 C10.1733934,15.1720709 9.48195833,15.2629605 8.64256122,15.2629605 C7.96710821,15.2629605 7.26138515,15.1655584 6.52539203,14.9707544 C5.7893989,14.7759503 5.09286095,14.5207432 4.43577818,14.2051329 C3.77869541,13.8895227 3.2231796,13.5502233 2.76923077,13.1872349 C3.02257667,13.5971131 3.3524448,14.0374573 3.75883515,14.5082677 C4.16522549,14.9790781 4.64291275,15.442216 5.19189691,15.8976814 C5.74088108,16.3531468 6.3542427,16.7688862 7.03198178,17.1448995 C7.70972086,17.5209129 8.44191747,17.8220736 9.22857161,18.0483817 C10.0152257,18.2746898 10.8517653,18.3878439 11.7381902,18.3878439 C12.4449134,18.3878439 13.0410478,18.3207858 13.5265935,18.1866698 C14.0121391,18.0525538 14.4369405,17.8998365 14.8009977,17.728518 C15.1650548,17.5571995 15.5159263,17.4044823 15.8536119,17.2703662 C16.1912976,17.1362502 16.563356,17.0691922 16.9697872,17.0691922 C17.423736,17.0691922 17.7931614,17.1508218 18.0780633,17.3140811 C18.3629652,17.4773404 18.5844285,17.6602593 18.7424533,17.8628376 C18.9004781,18.0654159 19.0139858,18.2271488 19.0829762,18.3480364 C19.1100825,18.4058345 19.1460881,18.4426707 19.1909931,18.4585448 C19.2358982,18.4744189 19.2763943,18.4271629 19.3124816,18.3167766 Z" id="swift" fill="#000000" fill-rule="nonzero"></path>
                </g>
            </g>
        </g>
    </g>
</svg>