<?xml version="1.0" encoding="UTF-8"?>
<svg width="31px" height="31px" viewBox="0 0 31 31" version="1.1" xmlns="http://www.w3.org/2000/svg" xmlns:xlink="http://www.w3.org/1999/xlink">
    <title>swift_icon</title>
    <defs>
        <linearGradient x1="68.6775713%" y1="97.6187591%" x2="61.2393224%" y2="58.5673627%" id="linearGradient-1">
            <stop stop-color="#E46E00" offset="0%"></stop>
            <stop stop-color="#FF7B4F" offset="100%"></stop>
        </linearGradient>
    </defs>
    <g id="Page-1" stroke="none" stroke-width="1" fill="none" fill-rule="evenodd">
        <g id="Tech-Icons" transform="translate(-7.000000, -24.000000)">
            <g id="swift_icon" transform="translate(7.000000, 24.000000)">
                <ellipse id="Oval" cx="15.1912088" cy="15.0588235" rx="15.1912088" ry="15.0588235"></ellipse>
                <path d="M24.9044895,23.4208932 C24.9258943,23.3157074 24.9471638,23.1950085 24.9682983,23.0587966 C24.9894328,22.9225848 25,22.7672924 25,22.5929196 C25,22.278227 24.9543528,21.8746723 24.8630584,21.3822556 C24.771764,20.8898389 24.5915806,20.341397 24.3225081,19.7369298 C24.0534356,19.1324626 23.6536646,18.4982396 23.1231951,17.8342608 C23.2975679,17.3459521 23.4058347,16.855238 23.4479955,16.3621187 C23.4901563,15.8689993 23.5112367,15.4616339 23.5112367,15.1400226 C23.5112367,14.4200456 23.3959161,13.5902612 23.1652748,12.6506696 C22.9346335,11.711078 22.5537268,10.7294878 22.0225546,9.70589883 C21.4913823,8.6823099 20.775189,7.67807171 19.8739745,6.69318425 C18.9727601,5.70829679 17.8513094,4.8105687 16.5096225,4 C16.8803134,4.53111817 17.268301,5.15288209 17.6735854,5.86529177 C18.0788697,6.57770145 18.4229398,7.38640535 18.7057956,8.29140347 C18.9886515,9.19640159 19.1300794,10.2046126 19.1300794,11.3160366 C19.1300794,11.9239091 19.0637031,12.5281871 18.9309506,13.1288706 C18.7981981,13.7295541 18.6619322,14.1976202 18.5221529,14.533069 C17.9356851,14.1907015 17.2632741,13.7487427 16.50492,13.2071924 C15.7465658,12.6656421 14.9532668,12.0665261 14.125023,11.4098444 C13.2967792,10.7531627 12.4809945,10.0842111 11.6776688,9.40298959 C10.8743431,8.7217681 10.1337721,8.0685187 9.45595595,7.44324137 C8.77813976,6.81796405 8.2158334,6.2677654 7.76903686,5.79264544 C8.66965674,7.16903391 9.64765253,8.49818065 10.7030242,9.78008565 C11.7583959,11.0619906 12.8733063,12.3562196 14.0477552,13.6627724 C12.4680219,12.6633449 10.9374221,11.6030544 9.45595595,10.4819011 C7.97448976,9.36074769 6.54561648,8.18219074 5.16933611,6.94623022 C6.4902669,8.86692563 7.99986733,10.7635677 9.69813741,12.6361566 C11.3964075,14.5087454 13.3490748,16.3358762 15.5561395,18.1175491 C14.9204841,18.4667271 14.2428571,18.762015 13.5232585,19.0034127 C12.8036598,19.2448104 11.8881485,19.3655092 10.7767246,19.3655092 C9.88237476,19.3655092 8.94794515,19.236162 7.97343574,18.9774676 C6.99892632,18.7187731 6.07665849,18.379865 5.20663222,17.9607433 C4.33660596,17.5416215 3.60106188,17.0910413 3,16.6090027 C3.33544874,17.1533096 3.77221858,17.7380747 4.3103095,18.363298 C4.84840042,18.9885213 5.48089373,19.6035557 6.20778943,20.2084012 C6.93468513,20.8132468 7.74682135,21.3653372 8.6441981,21.8646726 C9.54157484,22.364008 10.5110574,22.7639412 11.5526457,23.0644721 C12.5942341,23.3650031 13.7018744,23.5152686 14.8755666,23.5152686 C15.8113205,23.5152686 16.6006467,23.4262173 17.243545,23.2481149 C17.8864434,23.0700125 18.448912,22.8672082 18.9309506,22.6397019 C19.4129893,22.4121957 19.877569,22.2093913 20.3246899,22.0312889 C20.7718107,21.8531865 21.2644436,21.7641353 21.8025886,21.7641353 C22.4036505,21.7641353 22.892797,21.8725372 23.2700282,22.0893411 C23.6472594,22.306145 23.9404933,22.5490562 24.1497299,22.8180746 C24.3589664,23.087093 24.5092589,23.30187 24.6006074,23.4624054 C24.6364981,23.5391597 24.6841723,23.588077 24.7436298,23.6091574 C24.8030874,23.6302379 24.8567073,23.5674831 24.9044895,23.4208932 Z" id="swift" fill="url(#linearGradient-1)" fill-rule="nonzero"></path>
            </g>
        </g>
    </g>
</svg>