<?xml version="1.0" encoding="UTF-8"?>
<svg width="21px" height="20px" viewBox="0 0 21 20" version="1.1" xmlns="http://www.w3.org/2000/svg" xmlns:xlink="http://www.w3.org/1999/xlink">
    <title>github_icon</title>
    <g id="Page-1" stroke="none" stroke-width="1" fill="none" fill-rule="evenodd">
        <g id="WebApp-v2---Mobile" transform="translate(-19.000000, -520.000000)" fill="#FFFFFF" fill-rule="nonzero">
            <g id="Github-btn" transform="translate(13.000000, 514.000000)">
                <path d="M13.0239919,22.1039708 C13.0239919,22.1866825 12.9266129,22.2528518 12.8038306,22.2528518 C12.6641129,22.2652586 12.5667339,22.1990892 12.5667339,22.1039708 C12.5667339,22.021259 12.6641129,21.9550897 12.7868952,21.9550897 C12.9139113,21.9426829 13.0239919,22.0088523 13.0239919,22.1039708 Z M11.7072581,21.9178694 C11.677621,22.0005811 11.7622984,22.0956996 11.8893145,22.1205131 C11.9993952,22.161869 12.1264113,22.1205131 12.1518145,22.0378014 C12.1772177,21.9550897 12.0967742,21.8599712 11.9697581,21.8227509 C11.8596774,21.7938018 11.7368952,21.8351577 11.7072581,21.9178694 Z M13.578629,21.8475644 C13.4558468,21.8765135 13.3711694,21.9550897 13.383871,22.0502081 C13.3965726,22.1329199 13.5066532,22.1866825 13.6336694,22.1577334 C13.7564516,22.1287843 13.841129,22.0502081 13.8284274,21.9674964 C13.8157258,21.8889203 13.7014113,21.8351577 13.578629,21.8475644 Z M16.3645161,6 C10.4921371,6 6,10.3547718 6,16.0908291 C6,20.6771937 8.95524194,24.6018645 13.1764113,25.9831501 C13.7183468,26.0782686 13.908871,25.7515573 13.908871,25.4827443 C13.908871,25.226338 13.8961694,23.8119677 13.8961694,22.9434947 C13.8961694,22.9434947 10.9324597,23.5638325 10.3100806,21.7110901 C10.3100806,21.7110901 9.82741935,20.5076347 9.13306452,20.1974657 C9.13306452,20.1974657 8.16350806,19.5481788 9.20080645,19.5605855 C9.20080645,19.5605855 10.2550403,19.6432973 10.8350806,20.6275667 C11.7622984,22.2239027 13.316129,21.7648527 13.9215726,21.4919041 C14.0189516,20.8302104 14.2941532,20.3711603 14.5989919,20.0982117 C12.2322581,19.8418054 9.84435484,19.5068229 9.84435484,15.5283895 C9.84435484,14.3911034 10.166129,13.8203926 10.8435484,13.0925295 C10.7334677,12.8237164 10.3735887,11.7153795 10.953629,10.2844668 C11.8385081,10.0156537 13.875,11.4010749 13.875,11.4010749 C14.7217742,11.1694821 15.6320565,11.0495502 16.533871,11.0495502 C17.4356855,11.0495502 18.3459677,11.1694821 19.1927419,11.4010749 C19.1927419,11.4010749 21.2292339,10.0115181 22.1141129,10.2844668 C22.6941532,11.719515 22.3342742,12.8237164 22.2241935,13.0925295 C22.9016129,13.8245282 23.3165323,14.395239 23.3165323,15.5283895 C23.3165323,19.5192297 20.8227823,19.8376698 18.4560484,20.0982117 C18.8455645,20.424923 19.1758065,21.0452608 19.1758065,22.0171235 C19.1758065,23.4108158 19.1631048,25.1353551 19.1631048,25.4744731 C19.1631048,25.7432862 19.3578629,26.0699974 19.8955645,25.974879 C24.1294355,24.6018645 27,20.6771937 27,16.0908291 C27,10.3547718 22.2368952,6 16.3645161,6 Z M10.1153226,20.2636351 C10.0602823,20.304991 10.0729839,20.4001094 10.1449597,20.4786856 C10.2127016,20.5448549 10.3100806,20.573804 10.365121,20.5200414 C10.4201613,20.4786856 10.4074597,20.3835671 10.3354839,20.304991 C10.2677419,20.2388216 10.1703629,20.2098725 10.1153226,20.2636351 Z M9.65806452,19.9286527 C9.62842742,19.9824153 9.67076613,20.0485847 9.75544355,20.0899405 C9.82318548,20.1312964 9.9078629,20.1188896 9.9375,20.0609914 C9.9671371,20.0072288 9.92479839,19.9410594 9.84012097,19.8997036 C9.75544355,19.8748901 9.68770161,19.8872968 9.65806452,19.9286527 Z M11.0298387,21.4009212 C10.9620968,21.4546838 10.9875,21.5787514 11.084879,21.6573275 C11.1822581,21.752446 11.3050403,21.7648527 11.3600806,21.6986834 C11.415121,21.6449207 11.3897177,21.5208532 11.3050403,21.442277 C11.2118952,21.3471586 11.084879,21.3347518 11.0298387,21.4009212 Z M10.5471774,20.7929901 C10.4794355,20.8343459 10.4794355,20.9418712 10.5471774,21.0369896 C10.6149194,21.1321081 10.7292339,21.173464 10.7842742,21.1321081 C10.8520161,21.0783455 10.8520161,20.9708203 10.7842742,20.8757018 C10.725,20.7805833 10.6149194,20.7392275 10.5471774,20.7929901 Z" id="github_icon"></path>
            </g>
        </g>
    </g>
</svg>