<?xml version="1.0" encoding="UTF-8"?>
<svg width="20px" height="20px" viewBox="0 0 20 20" version="1.1" xmlns="http://www.w3.org/2000/svg" xmlns:xlink="http://www.w3.org/1999/xlink">
    <title>Shape</title>
    <g id="Page-1" stroke="none" stroke-width="1" fill="none" fill-rule="evenodd">
        <g id="WebApp-v2---Mobile" transform="translate(-19.000000, -391.000000)" fill="#FFFFFF" fill-rule="nonzero">
            <g id="LInkedIn-btn" transform="translate(13.000000, 385.000000)">
                <path d="M23.0408689,23.0412025 L20.0774944,23.0412025 L20.0774944,18.400333 C20.0774944,17.2936737 20.0577385,15.869062 18.5362309,15.869062 C16.9928067,15.869062 16.7566628,17.0748113 16.7566628,18.3197645 L16.7566628,23.0408938 L13.7932882,23.0408938 L13.7932882,13.4973844 L16.6381278,13.4973844 L16.6381278,14.8016064 L16.6779481,14.8016064 C17.258027,13.8097658 18.3366123,13.2173791 19.4848195,13.2600006 C22.488323,13.2600006 23.0421037,15.2356268 23.0421037,17.805793 L23.0408689,23.0412025 Z M10.449614,12.1928538 C9.49985913,12.1930242 8.72979252,11.4232172 8.72962199,10.4734416 C8.72945156,9.52366597 9.49924178,8.75358252 10.4489966,8.75341197 C11.3987514,8.75324153 12.1688181,9.52304857 12.1689886,10.4728242 C12.1690704,10.9289225 11.9879686,11.3663728 11.6655233,11.6889409 C11.343078,12.011509 10.9057023,12.1927719 10.449614,12.1928538 M11.9313012,23.0412025 L8.96483984,23.0412025 L8.96483984,13.4973844 L11.9313012,13.4973844 L11.9313012,23.0412025 Z M24.5182346,6.00142638 L7.47574413,6.00142638 C6.67028084,5.99233653 6.00975211,6.63754393 5.99992187,7.44301614 L5.99992187,24.5565696 C6.00941555,25.3624299 6.66989112,26.0082761 7.47574413,25.9999351 L24.5182346,25.9999351 C25.3256819,26.0098295 25.9887439,25.3640206 25.9999219,24.5565696 L25.9999219,7.44178138 C25.9884081,6.63471795 25.3252923,5.98954743 24.5182346,5.99993507" id="Shape"></path>
            </g>
        </g>
    </g>
</svg>