<?xml version="1.0" encoding="UTF-8"?>
<svg width="19px" height="21px" viewBox="0 0 19 21" version="1.1" xmlns="http://www.w3.org/2000/svg" xmlns:xlink="http://www.w3.org/1999/xlink">
    <title>Shape</title>
    <g id="Page-1" stroke="none" stroke-width="1" fill="none" fill-rule="evenodd">
        <g id="WebApp-v2---Mobile" transform="translate(-19.000000, -430.000000)" fill="#FFFFFF" fill-rule="nonzero">
            <g id="Mastodon-btn" transform="translate(13.000000, 425.000000)">
                <path d="M24.4775642,12.3774314 C24.4775642,8.08599889 21.661169,6.82770849 21.661169,6.82770849 C18.8973794,5.56058799 11.5573343,5.57383315 8.82006863,6.82770849 C8.82006863,6.82770849 6.00323128,8.08599889 6.00323128,12.3774314 C6.00323128,17.4856489 5.71146847,23.8300815 10.6727625,25.1413526 C12.4635673,25.6137634 14.0023951,25.7153096 15.2406188,25.6446687 C17.4867504,25.5210472 18.7470773,24.845544 18.7470773,24.845544 L18.6719263,23.216389 C18.6719263,23.216389 17.0667888,23.7197052 15.262722,23.6623095 C13.4763379,23.6004987 11.5935836,23.4680471 11.3004946,21.2781803 C11.2733202,21.0747533 11.2600276,20.8697162 11.2607088,20.6644878 C15.0461102,21.5872341 18.2740679,21.0662577 19.1626183,20.9602964 C21.6434864,20.6644878 23.8042994,19.1368791 24.0797059,17.741722 C24.5129294,15.5430251 24.4775642,12.3774314 24.4775642,12.3774314 Z M21.1567729,17.905079 L19.0954245,17.905079 L19.0954245,12.8630873 C19.0954245,10.6688055 16.2662093,10.5849195 16.2662093,13.1677261 L16.2662093,15.9271348 L14.2181227,15.9271348 L14.2181227,13.1672846 C14.2181227,10.584478 11.3889076,10.668364 11.3889076,12.8626458 L11.3889076,17.9046375 L9.32313845,17.9046375 C9.32313845,12.5138566 9.09326472,11.3747726 10.1369799,10.178293 C11.2819279,8.90234238 13.6655417,8.81845635 14.7269394,10.4476113 L15.2397347,11.3085468 L15.7525299,10.4476113 C16.8183483,8.80962624 19.2059407,8.91117249 20.3424894,10.178293 C21.3906253,11.3836027 21.1558888,12.5182716 21.1558888,17.9046375 L21.1567729,17.905079 Z" id="Shape"></path>
            </g>
        </g>
    </g>
</svg>