<?xml version="1.0" encoding="UTF-8"?>
<svg width="18px" height="20px" viewBox="0 0 18 20" version="1.1" xmlns="http://www.w3.org/2000/svg" xmlns:xlink="http://www.w3.org/1999/xlink">
    <title>Shape</title>
    <g id="Page-1" stroke="none" stroke-width="1" fill="none" fill-rule="evenodd">
        <g id="WebApp-v2---Mobile" transform="translate(-20.000000, -650.000000)" fill="#FFFFFF" fill-rule="nonzero">
            <g id="Threads-btn" transform="translate(13.000000, 643.000000)">
                <path d="M20.3892708,16.2696146 C20.303125,16.2283229 20.215625,16.1885833 20.1269792,16.1505313 C19.9726042,13.3060625 18.4183333,11.6776042 15.8085313,11.6609375 C15.7967083,11.6608646 15.7849479,11.6608646 15.773125,11.6608646 C14.212125,11.6608646 12.9138646,12.3271771 12.1147917,13.5396563 L13.5501042,14.52425 C14.1470417,13.6185729 15.083875,13.4255 15.7738125,13.4255 C15.7817813,13.4255 15.7897813,13.4255 15.7976667,13.4255729 C16.6569792,13.4310521 17.3054167,13.6808958 17.7251042,14.168125 C18.0305208,14.5228437 18.2347917,15.0130208 18.3359375,15.6316458 C17.5740625,15.5021563 16.7501042,15.4623438 15.8692708,15.5128438 C13.3879896,15.6557708 11.7928229,17.1029062 11.8999583,19.11375 C11.9543229,20.13375 12.4624688,21.01125 13.3307292,21.5844792 C14.0648333,22.0690625 15.0103125,22.3060417 15.9929479,22.2523958 C17.290625,22.18125 18.3086458,21.6861458 19.0188542,20.7808333 C19.5582292,20.0933333 19.899375,19.2023958 20.05,18.0797917 C20.6684375,18.4530208 21.1267708,18.9441667 21.3798958,19.5345833 C21.8103125,20.5382292 21.8354167,22.1875 20.4896875,23.5320833 C19.310625,24.71 17.8933333,25.2195833 15.7514063,25.2353125 C13.3754375,25.2177083 11.5785208,24.4557292 10.4102188,22.9705208 C9.31619792,21.5797917 8.75080208,19.5710417 8.72970833,17 C8.75080208,14.4289375 9.31619792,12.4201667 10.4102188,11.0294479 C11.5785208,9.54426042 13.3754063,8.78229167 15.751375,8.76463542 C18.1445833,8.78242708 19.9728125,9.5480625 21.1858333,11.0404167 C21.780625,11.77225 22.2290625,12.6925833 22.5246875,13.7656562 L24.2066667,13.3168958 C23.8483333,11.9960625 23.2844792,10.8578854 22.5171875,9.91395833 C20.9620833,8.00069583 18.6877083,7.02032792 15.7572396,7 L15.7455104,7 C12.821,7.02025729 10.5720938,8.00435417 9.06128125,9.92492708 C7.71686458,11.634 7.023375,14.0120521 7,16.9929688 L7,17 L7,17.0070313 C7.023375,19.9879167 7.71686458,22.3660417 9.06128125,24.0751042 C10.5720938,25.995625 12.821,26.9797917 15.7455104,27 L15.7572396,27 C18.3572917,26.9819792 20.19,26.30125 21.6997917,24.7928125 C23.6751042,22.819375 23.615625,20.3457292 22.9645833,18.8271875 C22.4975,17.7382292 21.6069792,16.8537708 20.3892708,16.2696146 Z M15.9000521,20.4903125 C14.8125521,20.5515625 13.68275,20.0634375 13.6270417,19.0179167 C13.58575,18.2427083 14.1787292,17.3777083 15.9667917,17.2746667 C16.1715625,17.2628542 16.3725,17.2570833 16.5698958,17.2570833 C17.219375,17.2570833 17.8269792,17.3201771 18.379375,17.4409375 C18.1733333,20.0140625 16.9647917,20.431875 15.9000521,20.4903125 Z" id="Shape"></path>
            </g>
        </g>
    </g>
</svg>