<?xml version="1.0" encoding="UTF-8"?>
<svg width="60px" height="60px" viewBox="0 0 60 60" version="1.1" xmlns="http://www.w3.org/2000/svg" xmlns:xlink="http://www.w3.org/1999/xlink">
    <title>blue_icon</title>
    <g id="Page-1" stroke="none" stroke-width="1" fill="none" fill-rule="evenodd">
        <g id="App-Icons" transform="translate(-17.000000, -82.000000)">
            <g id="blue_icon" transform="translate(17.000000, 82.000000)">
                <circle id="Oval" cx="30" cy="30" r="30"></circle>
                <circle id="Oval" stroke="#9A9EAD" stroke-width="0.625" cx="30" cy="30" r="24.6875"></circle>
                <path d="M37.0210284,13 L47,22.9016316 L47,37.0418055 L37.0194092,47 L22.7912823,47 L13,37.0472462 L13,22.8961846 L22.789657,13 L37.0210284,13 Z" id="Rectangle" stroke="#283F83" stroke-width="2"></path>
                <path d="M31.382,38.198 C32.438,38.198 33.4023333,37.9303333 34.275,37.395 C35.1476667,36.8596667 35.8333333,36.1116667 36.332,35.151 C36.8306667,34.1903333 37.08,33.1013333 37.08,31.884 C37.08,30.6666667 36.8306667,29.585 36.332,28.639 C35.8333333,27.693 35.1513333,26.9633333 34.286,26.45 C33.4206667,25.9366667 32.4526667,25.68 31.382,25.68 C30.4726667,25.68 29.6476667,25.867 28.907,26.241 C28.1663333,26.615 27.5833333,27.0953333 27.158,27.682 L27.158,27.682 L27.158,21.72 L24.65,21.72 L24.65,38 L27.158,38 L27.158,36.24 C27.5833333,36.812 28.159,37.2813333 28.885,37.648 C29.611,38.0146667 30.4433333,38.198 31.382,38.198 Z M30.832,36.02 C30.2013333,36.02 29.6036667,35.8586667 29.039,35.536 C28.4743333,35.2133333 28.0196667,34.7403333 27.675,34.117 C27.3303333,33.4936667 27.158,32.764 27.158,31.928 C27.158,31.092 27.3303333,30.366 27.675,29.75 C28.0196667,29.134 28.4743333,28.6646667 29.039,28.342 C29.6036667,28.0193333 30.2013333,27.858 30.832,27.858 C31.4773333,27.858 32.0823333,28.0156667 32.647,28.331 C33.2116667,28.6463333 33.6663333,29.1083333 34.011,29.717 C34.3556667,30.3256667 34.528,31.048 34.528,31.884 C34.528,32.72 34.3556667,33.4533333 34.011,34.084 C33.6663333,34.7146667 33.2116667,35.195 32.647,35.525 C32.0823333,35.855 31.4773333,36.02 30.832,36.02 Z" id="b" fill="#283F83" fill-rule="nonzero"></path>
            </g>
        </g>
    </g>
</svg>