<?xml version="1.0" encoding="UTF-8"?>
<svg width="60px" height="60px" viewBox="0 0 60 60" version="1.1" xmlns="http://www.w3.org/2000/svg" xmlns:xlink="http://www.w3.org/1999/xlink">
    <title>dgnotif_icon</title>
    <g id="Page-1" stroke="none" stroke-width="1" fill="none" fill-rule="evenodd">
        <g id="App-Icons" transform="translate(-357.000000, -14.000000)">
            <g id="dgnotif_icon" transform="translate(357.000000, 14.000000)">
                <circle id="Oval" cx="30" cy="30" r="30"></circle>
                <circle id="Oval" fill="#FD922C" cx="30" cy="30" r="25"></circle>
                <g id="Group-6" transform="translate(12.000000, 5.000000)" fill="#333840" fill-rule="nonzero">
                    <path d="M10.872,38 C13.536,38 15.87,37.502 17.874,36.506 C19.878,35.51 21.426,34.076 22.518,32.204 C23.61,30.332 24.156,28.124 24.156,25.58 C24.156,23.036 23.61,20.81 22.518,18.902 C21.426,16.994 19.878,15.53 17.874,14.51 C15.87,13.49 13.536,12.98 10.872,12.98 L10.872,12.98 L2.7,12.98 L2.7,38 L10.872,38 Z M10.872,34.652 L6.804,34.652 L6.804,16.328 L10.872,16.328 C13.8,16.328 16.044,17.144 17.604,18.776 C19.164,20.408 19.944,22.676 19.944,25.58 C19.944,28.46 19.164,30.692 17.604,32.276 C16.044,33.86 13.8,34.652 10.872,34.652 L10.872,34.652 Z" id="D"></path>
                    <path d="M24.112,38.216 C26.296,38.216 28.282,37.73 30.07,36.758 C31.858,35.786 33.31,34.484 34.426,32.852 C35.542,31.22 36.232,29.432 36.496,27.488 L36.496,27.488 L36.496,24.284 L22.708,24.284 L22.708,27.56 L32.104,27.56 C31.792,29.696 30.94,31.388 29.548,32.636 C28.156,33.884 26.344,34.508 24.112,34.508 C22.456,34.508 20.98,34.136 19.684,33.392 C18.388,32.648 17.374,31.586 16.642,30.206 C15.91,28.826 15.544,27.236 15.544,25.436 C15.544,23.636 15.91,22.052 16.642,20.684 C17.374,19.316 18.388,18.26 19.684,17.516 C20.98,16.772 22.456,16.4 24.112,16.4 C25.624,16.4 26.956,16.718 28.108,17.354 C29.26,17.99 30.16,18.932 30.808,20.18 L30.808,20.18 L35.74,20.18 C34.804,17.78 33.298,15.926 31.222,14.618 C29.146,13.31 26.776,12.656 24.112,12.656 C21.784,12.656 19.642,13.202 17.686,14.294 C15.73,15.386 14.182,16.904 13.042,18.848 C11.902,20.792 11.332,22.988 11.332,25.436 C11.332,27.884 11.902,30.08 13.042,32.024 C14.182,33.968 15.724,35.486 17.668,36.578 C19.612,37.67 21.76,38.216 24.112,38.216 Z" id="G"></path>
                </g>
            </g>
        </g>
    </g>
</svg>