<?xml version="1.0" encoding="UTF-8"?>
<svg width="60px" height="60px" viewBox="0 0 60 60" version="1.1" xmlns="http://www.w3.org/2000/svg" xmlns:xlink="http://www.w3.org/1999/xlink">
    <title>fived_icon</title>
    <g id="Page-1" stroke="none" stroke-width="1" fill="none" fill-rule="evenodd">
        <g id="App-Icons" transform="translate(-85.000000, -82.000000)">
            <g id="fived_icon" transform="translate(85.000000, 82.000000)">
                <circle id="Oval" cx="30" cy="30" r="30"></circle>
                <circle id="Oval" stroke="#9A9EAD" stroke-width="0.625" cx="30" cy="30" r="24.6875"></circle>
                <g id="5DLogo" transform="translate(14.000000, 18.000000)">
                    <rect id="Rectangle" fill="#0F85C3" x="0" y="0" width="4.7123792" height="14.1371376" rx="2.3561896"></rect>
                    <rect id="Rectangle" fill="#0F85C3" x="0" y="0" width="13.2535665" height="4.7123792" rx="2.3561896"></rect>
                    <path d="M7.3630925,7.6576162 C11.917599,7.6576162 15.6097561,11.3497733 15.6097561,15.9042798 C15.6097561,20.4587863 11.917599,24.1509434 7.3630925,24.1509434 C4.87213943,24.1509434 2.63913411,23.0465378 1.12702169,21.3006718 C0.104166969,19.8449869 1.27156032,18.7589449 1.70130272,18.4356737 C2.10173726,18.1344492 3.36270672,17.7166397 4.45746569,18.8145359 L4.32499821,18.6921181 C5.07869962,19.513041 6.16080385,20.0276116 7.3630925,20.0276116 C9.64034577,20.0276116 11.4864243,18.1815331 11.4864243,15.9042798 C11.4864243,13.6270265 9.64034577,11.780948 7.3630925,11.780948 C6.00007816,11.780948 4.79152932,12.4422934 4.04083104,13.4615992 C3.05875543,14.5973418 1.52648201,14.1583632 1.05449507,13.8267043 C0.68838746,13.5694453 0.140380975,12.9319168 0.0179181677,12.1504157 C1.38427843,9.48320681 4.1604907,7.6576162 7.3630925,7.6576162 Z" id="Combined-Shape" fill="#DC2868"></path>
                    <path d="M23.2673723,7.6576162 C27.8218788,7.6576162 31.5140359,11.3497733 31.5140359,15.9042798 C31.5140359,20.4587863 27.8218788,24.1509434 23.2673723,24.1509434 C20.7754716,24.1509434 18.5417149,23.0456973 17.029576,21.2986789 C16.0095258,19.8439831 17.1760388,18.7587955 17.6055825,18.4356737 C18.0060171,18.1344492 19.2669865,17.7166397 20.3617455,18.8145359 L20.229278,18.6921181 C20.9829794,19.513041 22.0650837,20.0276116 23.2673723,20.0276116 C25.5446256,20.0276116 27.3907041,18.1815331 27.3907041,15.9042798 C27.3907041,13.6270265 25.5446256,11.780948 23.2673723,11.780948 C21.904358,11.780948 20.6958091,12.4422934 19.9451108,13.4615992 C18.9681361,14.5988759 17.5786977,14.2028535 17.1067107,13.8711945 C16.6263701,13.5336654 16.0653104,12.579375 16.3306436,11.4663347 C16.3277471,11.4631683 16.3248412,11.4600148 16.3219261,11.456874 C17.7877377,9.17174535 20.3507331,7.6576162 23.2673723,7.6576162 Z" id="Combined-Shape" fill="#0F85C3" transform="translate(23.888213, 15.904280) scale(-1, 1) translate(-23.888213, -15.904280) "></path>
                    <rect id="Rectangle" fill="#DC2868" x="26.8016567" y="0" width="4.7123792" height="16.4933272" rx="2.3561896"></rect>
                </g>
            </g>
        </g>
    </g>
</svg>