<?xml version="1.0" encoding="UTF-8"?>
<svg width="60px" height="60px" viewBox="0 0 60 60" version="1.1" xmlns="http://www.w3.org/2000/svg" xmlns:xlink="http://www.w3.org/1999/xlink">
    <title>pocket_icon</title>
    <defs>
        <path d="M7.06510417,26.9333333 L7.06510417,16.1520833 L8.94010417,16.1520833 C11.4921875,16.1520833 13.2109375,15.5791667 14.0963542,14.4333333 C14.7734375,13.5739583 15.1119792,12.0635417 15.1119792,9.90208333 L15.1119792,9.90208333 L15.1119792,7.45964368 C15.1078128,5.43073606 14.9776372,4.06389302 14.7213542,3.35911458 C14.4609375,2.64296875 13.9921875,1.9984375 13.3151042,1.42552083 C12.6380208,0.852604167 11.8567708,0.481510417 10.9713542,0.312239583 C10.0859375,0.14296875 8.796875,0.0583333333 7.10416667,0.0583333333 L7.10416667,0.0583333333 L0.0729166667,0.0583333333 L0.0729166667,26.9333333 L7.06510417,26.9333333 Z M7.57291667,11.5036458 L7.06510417,11.5036458 L7.06510417,4.66770833 C7.9765625,4.66770833 8.56901042,4.80442708 8.84244792,5.07786458 C9.11588542,5.35130208 9.25260417,5.95677083 9.25260417,6.89427083 L9.25260417,6.89427083 L9.25260417,9.04270833 C9.25260417,9.98020833 9.14192708,10.6247396 8.92057292,10.9763021 C8.69921875,11.3278646 8.25,11.5036458 7.57291667,11.5036458 L7.57291667,11.5036458 Z M27.6901042,26.9333333 L27.6901042,5.40989583 L31.7916667,5.40989583 L31.7916667,0.0583333333 L16.5182292,0.0583333333 L16.5182292,5.40989583 L20.6979167,5.40989583 L20.6979167,26.9333333 L27.6901042,26.9333333 Z" id="path-1"></path>
        <radialGradient cx="52.9803351%" cy="100%" fx="52.9803351%" fy="100%" r="114.087979%" gradientTransform="translate(0.529803,1.000000),scale(0.869919,1.000000),rotate(-90.000000),translate(-0.529803,-1.000000)" id="radialGradient-3">
            <stop stop-color="#FF900E" offset="0%"></stop>
            <stop stop-color="#F4C032" offset="35.140287%"></stop>
            <stop stop-color="#FFE2C0" offset="74.8985664%"></stop>
            <stop stop-color="#E1DDFF" offset="100%"></stop>
        </radialGradient>
        <linearGradient x1="50%" y1="36.1553498%" x2="83.6385169%" y2="63.8446502%" id="linearGradient-4">
            <stop stop-color="#44C735" offset="0%"></stop>
            <stop stop-color="#12670D" offset="100%"></stop>
        </linearGradient>
    </defs>
    <g id="Page-1" stroke="none" stroke-width="1" fill="none" fill-rule="evenodd">
        <g id="App-Icons" transform="translate(-221.000000, -82.000000)">
            <g id="pocket_icon" transform="translate(221.000000, 82.000000)">
                <circle id="Oval" cx="30" cy="30" r="30"></circle>
                <circle id="Oval" stroke="#9A9EAD" stroke-width="0.625" cx="30" cy="30" r="24.6875"></circle>
                <g id="Pocket_Icon" transform="translate(15.000000, 17.000000)">
                    <g id="Group-4">
                        <mask id="mask-2" fill="white">
                            <use xlink:href="#path-1"></use>
                        </mask>
                        <use id="PT" fill="#2E3F6C" fill-rule="nonzero" xlink:href="#path-1"></use>
                        <g id="Group-3" mask="url(#mask-2)">
                            <g transform="translate(0.133333, -8.666667)" id="Rectangle">
                                <rect fill="url(#radialGradient-3)" x="0" y="0" width="32.8" height="28.5333333"></rect>
                                <path d="M2.65269288e-14,26.6666667 C2.46520758,25.3590101 5.25484516,24.0438291 8.36891276,22.7211236 C17.1028564,19.0113661 25.8013155,17.8294054 31.7716146,17.8294054 C35.7518139,17.8294054 36.0946091,23.9751591 32.8,36.2666667 L2.65269288e-14,36.2666667 L2.65269288e-14,26.6666667 Z" fill="url(#linearGradient-4)"></path>
                            </g>
                        </g>
                    </g>
                    <path d="M15.1422441,15.1490351 C15.0071474,17.0632381 15.0071474,18.1092168 15.1422441,18.2869713 C15.2773408,18.4647258 15.2773408,18.753259 15.1422441,19.1525709 C15.0319935,20.0349036 14.9768683,20.536244 14.9768683,20.6565919 C14.9768683,20.7769399 14.8834806,21.1628533 14.6967051,21.8143319 C14.5189032,23.2442568 14.4300022,24.0282546 14.4300022,24.1663253 C14.4300022,24.3734314 14.5566258,26.1451445 14.6967051,26.1451445 C14.7900913,26.1451445 14.7900913,26.2817015 14.6967051,26.5548154 C14.6152098,27.0323255 14.7637228,27.2710805 15.1422441,27.2710805 C15.5207654,27.2710805 15.7277498,27.1208604 15.7631973,26.8204201 C16.6243667,26.5073063 16.9748346,26.114207 16.8146009,25.641122 C16.8146009,25.641122 16.3660551,25.4687056 16.0646262,25.806925 C16.0646262,25.806925 15.9370346,25.1473605 16.0646262,24.7914865 C16.1922178,24.4356124 16.0646262,23.4472548 16.0646262,23.1298997 C16.0646262,22.8125446 16.458592,21.7970591 16.458592,21.5035585 C16.458592,21.3078914 16.6402965,20.6468561 17.0037055,19.5204525 C17.064602,19.3958531 17.1511763,19.4469339 17.2634284,19.6736951 C17.4318065,20.0138368 17.2846866,20.3372176 17.4788429,20.6565919 C17.6729993,20.9759662 17.4788429,22.3298272 17.4788429,22.555315 C17.4788429,22.7808027 17.6113121,24.3149403 17.6113121,24.7914865 C17.6113121,25.2680327 17.5696318,26.6652447 17.7904268,26.8204201 C17.9376235,26.9238704 17.9376235,27.268567 17.7904268,27.85451 C18.0658189,28.2811321 18.3076924,28.429794 18.5160471,28.3004958 C18.7244019,28.1711976 18.989895,28.0225356 19.3125266,27.85451 C20.4222155,28.0682169 21.11804,27.8737404 21.4,27.2710805 C21.256683,26.9706403 21.0420449,26.8204201 20.7560858,26.8204201 C20.4047313,26.99749 20.1056013,26.99749 19.8586958,26.8204201 C19.6117904,26.6433503 19.6117904,26.4182584 19.8586958,26.1451445 L19.3125266,26.1451445 L19.3125266,25.4067699 C19.1535521,24.4162881 19.0740649,23.8424693 19.0740649,23.6853136 C19.0740649,23.44958 19.3125266,22.2500583 19.3125266,21.8143319 C19.3125266,21.3786056 19.4508987,18.9177159 19.4508987,18.6023436 C19.4508987,18.2869713 19.5509882,15.8252348 19.3125266,15.487135 C19.1535521,15.2617351 19.1996762,15.1490351 19.4508987,15.1490351 C19.4477127,14.9440634 19.5148823,14.7718469 19.6524077,14.6323856 C19.7899331,14.4929243 19.7899331,14.3280857 19.6524077,14.1378698 C19.5847947,13.5568114 19.471501,13.2062557 19.3125266,13.0862026 C19.1535521,12.9661495 19.1535521,12.729169 19.3125266,12.3752611 C19.6766394,12.1327298 19.8586958,11.9273134 19.8586958,11.759012 C19.8586958,11.5907107 20.0783512,11.3969439 20.517662,11.1777116 C20.350216,10.7312506 20.1305606,10.4431716 19.8586958,10.3134745 C19.5868311,10.1837774 19.4508987,10.2363665 19.4508987,10.4712417 C19.28379,9.03154257 19.1581787,8.25704967 19.0740649,8.147763 C18.9899511,8.03847633 19.1155623,7.92546334 19.4508987,7.80872403 C19.3354151,7.67723598 19.1298794,7.61149195 18.8342914,7.61149195 C18.5387034,7.61149195 18.432622,7.5441405 18.5160471,7.40943761 L18.5160471,7.03144422 L18.8342914,7.03144422 L18.8342914,6.63166626 L19.0024239,6.32445423 L19.0289061,6.217948 L19.165275,6.19987154 C19.1135315,6.02915413 19.0592478,5.9186052 19.0024239,5.86822474 C18.9456001,5.81784427 18.9544275,5.70437877 19.0289061,5.52782821 C19.0580969,5.30542257 19.0492695,5.16877509 19.0024239,5.11788578 C18.9555783,5.06699647 18.9398658,4.90085981 18.9552864,4.6194758 L19.165275,4.50231788 C18.9114019,4.1198195 18.6395547,3.95528282 18.3497333,4.00870785 C18.3082162,4.00870785 17.7337157,3.75102002 17.5801804,3.80321996 C17.426645,3.8554199 16.5079837,3.91375475 16.1959148,4.6980386 C15.9878689,5.2208945 16.0665951,5.78334229 16.4320934,6.38538196 L16.4320934,6.58691849 L15.8451198,6.58691849 C15.6443214,6.32148251 15.3355032,6.19849235 14.9186654,6.217948 C14.2934086,6.24713146 12.8257495,6.93190085 12.8527069,7.22017078 C12.8796642,7.50844072 12.9022374,8.2965564 13.000201,8.4233453 C13.0655101,8.50787124 13.0731235,9.08242162 13.0230413,10.1469964 C12.5716499,11.011733 12.3672832,11.7756066 12.4099411,12.4386173 C12.4739279,13.4331334 12.8306965,14.7638911 13.1238718,14.8647767 C13.319322,14.9320337 13.9921128,15.0267865 15.1422441,15.1490351 Z" id="Path-2" fill="#252525" transform="translate(16.902208, 16.070922) scale(-1, 1) translate(-16.902208, -16.070922) "></path>
                </g>
            </g>
        </g>
    </g>
</svg>