<?xml version="1.0" encoding="UTF-8"?>
<svg width="32px" height="32px" viewBox="0 0 32 32" version="1.1" xmlns="http://www.w3.org/2000/svg" xmlns:xlink="http://www.w3.org/1999/xlink">
    <title>access_icon</title>
    <g id="Page-1" stroke="none" stroke-width="1" fill="none" fill-rule="evenodd">
        <g id="Contrib-Icons" transform="translate(-16.000000, -11.000000)">
            <g id="icon" transform="translate(16.000000, 11.000000)">
                <circle id="Oval" cx="16" cy="16" r="16"></circle>
                <g id="Access_icon" transform="translate(5.000000, 5.000000)" fill="#75AEFF" fill-rule="nonzero">
                    <path d="M11,7.33333333 C11.2923735,7.33333333 11.5567055,7.26276852 11.792996,7.12163891 C12.0292865,6.98050929 12.2180979,6.79168528 12.3594302,6.55516688 C12.5007624,6.31864848 12.5714286,6.0542475 12.5714286,5.76196396 C12.5714286,5.47007507 12.5007624,5.20587143 12.3594302,4.96935303 C12.2180979,4.73283463 12.0292865,4.54389222 11.792996,4.40252581 C11.5567055,4.2611594 11.2923735,4.19047619 11,4.19047619 C10.7077054,4.19047619 10.4434129,4.2611594 10.2071224,4.40252581 C9.9708319,4.54389222 9.78200077,4.73283463 9.64062904,4.96935303 C9.4992573,5.20587143 9.42857143,5.47007507 9.42857143,5.76196396 C9.42857143,6.0542475 9.4992573,6.31864848 9.64062904,6.55516688 C9.78200077,6.79168528 9.9708319,6.98050929 10.2071224,7.12163891 C10.4434129,7.26276852 10.7077054,7.33333333 11,7.33333333 Z M12.8755668,17.8095238 C13.0554225,17.8095238 13.1914465,17.7329389 13.2836388,17.579769 C13.3758312,17.4265991 13.3985069,17.2504234 13.3516657,17.0512418 C13.3440377,17.0252968 13.3182035,16.9112809 13.2741634,16.7091939 C13.2301232,16.507107 13.1764436,16.2507316 13.1131246,15.9400677 C13.0498057,15.6294038 12.9807806,15.295734 12.9060493,14.9390584 C12.8313181,14.5823827 12.7602966,14.2323115 12.6929848,13.8888448 C12.625673,13.5453781 12.566183,13.2388695 12.5145148,12.9693189 C12.4628465,12.6997683 12.4272985,12.5018535 12.4078707,12.3755745 C12.3853441,12.2086214 12.3664527,12.0076831 12.3511966,11.7727595 C12.3359404,11.537836 12.3244089,11.2928791 12.3166021,11.0378888 C12.3087952,10.7828984 12.3029848,10.5387692 12.2991707,10.305501 C12.2953567,10.0722328 12.2934497,9.87391264 12.2934497,9.71054046 C12.2934497,9.66385304 12.3111045,9.6332461 12.3464141,9.61871962 C12.3817237,9.60419315 12.4123701,9.61794262 12.4383532,9.65996806 C12.5424049,9.82246189 12.6609976,10.0095325 12.7941312,10.2211799 C12.9272649,10.4328273 13.0582085,10.6426842 13.186962,10.8507506 C13.3157155,11.058817 13.4301663,11.2399588 13.5303146,11.3941759 C13.6304628,11.5483931 13.6978789,11.6492845 13.7325627,11.6968503 C13.8148625,11.80313 13.9165155,11.8661006 14.0375217,11.885762 C14.1585279,11.9054234 14.27353,11.8798163 14.382528,11.8089406 C14.5235282,11.7242816 14.6116532,11.6076476 14.6469033,11.4590383 C14.6821533,11.3104291 14.6702493,11.1762957 14.6111914,11.0566381 C14.5886647,11.0090723 14.5638735,10.962368 14.5368177,10.9165251 C14.5097619,10.8706823 14.4811566,10.8242144 14.4510019,10.7771216 L13.0429077,8.4142045 C12.8945178,8.16732197 12.7286073,7.96413711 12.545176,7.80464992 C12.3617448,7.64516272 12.1456409,7.52673816 11.8968645,7.44937623 C11.6480881,7.3720143 11.3491183,7.33333333 10.9999553,7.33333333 C10.6507923,7.33333333 10.3518374,7.3720143 10.1030908,7.44937623 C9.85434419,7.52673816 9.63824035,7.64516272 9.45477928,7.80464992 C9.27131821,7.96413711 9.10539277,8.16732197 8.95700295,8.4142045 L7.54381341,10.7771216 C7.51711516,10.8242144 7.49032752,10.8706823 7.46345049,10.9165251 C7.43657346,10.962368 7.41169284,11.0090723 7.38880863,11.0566381 C7.32975067,11.1762957 7.31784671,11.3104291 7.35309674,11.4590383 C7.38834677,11.6076476 7.47644205,11.7242816 7.61738258,11.8089406 C7.72638056,11.8798163 7.84051856,11.9054234 7.95979656,11.885762 C8.07907456,11.8661006 8.18159166,11.80313 8.26734786,11.6968503 C8.30203175,11.6492845 8.36859859,11.5483931 8.46704838,11.3941759 C8.56549817,11.2399588 8.68005332,11.0597967 8.81071383,10.8536897 C8.94137435,10.6475826 9.07325654,10.4386885 9.20636042,10.2270074 C9.3394643,10.0153262 9.45616485,9.8263131 9.55646206,9.65996806 C9.58244518,9.62186139 9.61394077,9.60909161 9.65094883,9.6216587 C9.68795689,9.63422579 9.70646093,9.66385304 9.70646093,9.71054046 C9.70646093,9.87776385 9.70455391,10.0780265 9.70073987,10.3113285 C9.69692584,10.5446304 9.69025127,10.7877969 9.68071619,11.0408278 C9.6711811,11.2938588 9.65888977,11.537836 9.64384221,11.7727595 C9.62879465,12.0076831 9.60982876,12.2086214 9.58694455,12.3755745 C9.56745721,12.5018535 9.53274353,12.6997683 9.4828035,12.9693189 C9.43286347,13.2388695 9.37338836,13.5453781 9.30437815,13.8888448 C9.23536795,14.2323115 9.16434644,14.5823827 9.09131362,14.9390584 C9.0182808,15.295734 8.94925569,15.6294038 8.88423831,15.9400677 C8.81922092,16.2507316 8.76555625,16.507107 8.72324429,16.7091939 C8.68093234,16.9112809 8.65596232,17.0252968 8.64833425,17.0512418 C8.59797706,17.2504234 8.61986307,17.4265991 8.71399228,17.579769 C8.80812148,17.7329389 8.94320687,17.8095238 9.11924845,17.8095238 C9.38486026,17.8095238 9.56263007,17.6260848 9.65255788,17.2592068 C9.69069823,17.1074558 9.74037008,16.894643 9.80157344,16.6207682 C9.86277679,16.3468935 9.92980548,16.0457731 10.0026595,15.7174072 C10.0755136,15.3890413 10.1483527,15.0629557 10.2211769,14.7391504 C10.2940012,14.4153451 10.3611044,14.1251534 10.4224865,13.8685753 C10.4838686,13.6119972 10.5336299,13.4207714 10.5717702,13.2948978 C10.6335695,13.0735548 10.6933724,12.9162635 10.7511789,12.8230238 C10.8089854,12.7297841 10.8919108,12.6831642 10.9999553,12.6831642 C11.1079998,12.6831642 11.190076,12.7297841 11.2461841,12.8230238 C11.3022921,12.9162635 11.3629442,13.0735548 11.4281404,13.2948978 C11.4628243,13.4207714 11.5108722,13.6119972 11.5722841,13.8685753 C11.633696,14.1251534 11.7008141,14.4153451 11.7736384,14.7391504 C11.8464626,15.0629557 11.920151,15.3890413 11.9947034,15.7174072 C12.0692559,16.0457731 12.1371338,16.3468935 12.1983372,16.6207682 C12.2595405,16.894643 12.3074841,17.1074558 12.342168,17.2592068 C12.4321554,17.6260848 12.609955,17.8095238 12.8755668,17.8095238 Z" id="human"></path>
                    <path d="M10.9386161,21.8659784 C12.4316096,21.8659784 13.8383247,21.5790086 15.1587612,21.0050688 C16.4791977,20.4311291 17.6420821,19.6414931 18.6474144,18.6361607 C19.6527468,17.6308284 20.4405072,16.4698196 21.0106957,15.1531343 C21.5808842,13.836449 21.8659784,12.4278584 21.8659784,10.9273624 C21.8659784,9.4343688 21.5790086,8.02765377 21.0050688,6.70721726 C20.4311291,5.38678075 19.6414931,4.22202071 18.6361607,3.21293713 C17.6308284,2.20385355 16.4679439,1.41609313 15.1475074,0.849655878 C13.8270709,0.283218626 12.4203559,0 10.9273624,0 C9.4343688,0 8.02952939,0.283218626 6.71284412,0.849655878 C5.39615885,1.41609313 4.23327443,2.20385355 3.22419085,3.21293713 C2.21510727,4.22202071 1.42547123,5.38678075 0.855282738,6.70721726 C0.285094246,8.02765377 0,9.4343688 0,10.9273624 C0,12.4278584 0.286969866,13.836449 0.860909598,15.1531343 C1.43484933,16.4698196 2.22448537,17.6308284 3.22981771,18.6361607 C4.23515005,19.6414931 5.39615885,20.4311291 6.71284412,21.0050688 C8.02952939,21.5790086 9.43812004,21.8659784 10.9386161,21.8659784 Z M10.9386161,19.8628162 C9.70070685,19.8628162 8.54157366,19.632115 7.46121652,19.1707124 C6.38085938,18.7093099 5.43179563,18.0697235 4.6140253,17.2519531 C3.79625496,16.4341828 3.15854415,15.485119 2.70089286,14.4047619 C2.24324157,13.3244048 2.01441592,12.1652716 2.01441592,10.9273624 C2.01441592,9.68945312 2.24324157,8.53031994 2.70089286,7.4499628 C3.15854415,6.36960565 3.79625496,5.42054191 4.6140253,4.60277158 C5.43179563,3.78500124 6.37898375,3.14729043 7.45558966,2.68963914 C8.53219556,2.23198785 9.68945313,2.0031622 10.9273624,2.0031622 C12.1652716,2.0031622 13.3262804,2.23198785 14.4103888,2.68963914 C15.4944971,3.14729043 16.4454365,3.78500124 17.2632068,4.60277158 C18.0809772,5.42054191 18.718688,6.36960565 19.1763393,7.4499628 C19.6339906,8.53031994 19.8628162,9.68945312 19.8628162,10.9273624 C19.8628162,12.1652716 19.6339906,13.3244048 19.1763393,14.4047619 C18.718688,15.485119 18.0809772,16.4341828 17.2632068,17.2519531 C16.4454365,18.0697235 15.4963728,18.7093099 14.4160156,19.1707124 C13.3356585,19.632115 12.1765253,19.8628162 10.9386161,19.8628162 Z" id="oval"></path>
                </g>
            </g>
        </g>
    </g>
</svg>