<?xml version="1.0" encoding="UTF-8"?>
<svg width="32px" height="32px" viewBox="0 0 32 32" version="1.1" xmlns="http://www.w3.org/2000/svg" xmlns:xlink="http://www.w3.org/1999/xlink">
    <title>api_icon</title>
    <g id="Page-1" stroke="none" stroke-width="1" fill="none" fill-rule="evenodd">
        <g id="Contrib-Icons" transform="translate(-56.000000, -11.000000)">
            <g id="api_icon" transform="translate(56.000000, 11.000000)">
                <circle id="Oval" cx="16" cy="16" r="16"></circle>
                <path d="M9.296,21.28 L9.904,19.44 L13.904,19.44 L14.512,21.28 L17.824,21.28 L13.728,10 L10.112,10 L6,21.28 L9.296,21.28 Z M13.12,17.04 L10.704,17.04 L11.904,13.392 L13.12,17.04 Z M17.984,21.28 L17.984,17.472 L19.536,17.472 C20.4533333,17.472 21.2293333,17.304 21.864,16.968 C22.4986667,16.632 22.9733333,16.184 23.288,15.624 C23.6026667,15.064 23.76,14.4426667 23.76,13.76 C23.76,13.024 23.6,12.3733333 23.28,11.808 C22.96,11.2426667 22.4826667,10.8 21.848,10.48 C21.2133333,10.16 20.4426667,10 19.536,10 L19.536,10 L14.848,10 L14.848,21.28 L17.984,21.28 Z M19.232,14.976 L17.984,14.976 L17.984,12.528 L19.232,12.528 C20.1173333,12.528 20.56,12.9386667 20.56,13.76 C20.56,14.5706667 20.1173333,14.976 19.232,14.976 L19.232,14.976 Z M25.16,21.28 L25.16,10 L22.024,10 L22.024,21.28 L25.16,21.28 Z" id="API" fill="#75AEFF" fill-rule="nonzero"></path>
            </g>
        </g>
    </g>
</svg>