<?xml version="1.0" encoding="UTF-8"?>
<svg width="32px" height="32px" viewBox="0 0 32 32" version="1.1" xmlns="http://www.w3.org/2000/svg" xmlns:xlink="http://www.w3.org/1999/xlink">
    <title>arch_icon</title>
    <g id="Page-1" stroke="none" stroke-width="1" fill="none" fill-rule="evenodd">
        <g id="Contrib-Icons" transform="translate(-136.000000, -11.000000)">
            <g id="arch_icon" transform="translate(136.000000, 11.000000)">
                <circle id="Oval" cx="16" cy="16" r="16"></circle>
                <path d="M22.2807922,28.4111786 C22.4422607,28.3654124 22.5597814,28.2755585 22.6333542,28.1416168 C22.706927,28.0076752 22.7240753,27.8635508 22.6847992,27.7092438 L22.263,26.135 L22.3068085,26.0708923 L22.3068085,26.0708923 C22.4329173,25.8577271 22.4612834,25.6379598 22.3919067,25.4115906 L20.668,19.618 L23.3308411,19.6170197 C23.5287882,19.6170197 23.6956838,19.5490977 23.8315277,19.4132538 C23.9673716,19.2774099 24.0352936,19.1105143 24.0352936,18.9125671 C24.0352936,18.7204386 23.9673716,18.5549978 23.8315277,18.4162445 C23.6956838,18.2774913 23.5287882,18.2081146 23.3308411,18.2081146 L20.249,18.209 L18.568,12.558 L18.6703759,12.4555482 C18.8300769,12.2831491 18.9717789,12.092489 19.0954819,11.8835678 C19.3841222,11.3960851 19.5284424,10.8568776 19.5284424,10.2659454 C19.5284424,9.66785177 19.3841222,9.12665812 19.0954819,8.6423645 C18.8068415,8.15807088 18.4202067,7.77163188 17.9355774,7.48304749 C17.6326841,7.30268224 17.3076297,7.17868114 16.9604144,7.11104417 L16.941,7.109 L16.9410858,5.45025635 C16.9410858,5.27614339 16.8798777,5.12983704 16.7574615,5.01133728 C16.6350454,4.89283752 16.4863892,4.83358765 16.3114929,4.83358765 C16.1380514,4.83358765 15.991745,4.89479574 15.8725739,5.01721191 C15.7534027,5.13962809 15.6938171,5.28789266 15.6938171,5.46200562 L15.693,7.108 L15.6685352,7.11104417 C15.3234005,7.17868114 14.9983724,7.30268224 14.6934509,7.48304749 C14.2055766,7.77163188 13.8173192,8.15807088 13.5286789,8.6423645 C13.2400386,9.12665812 13.0957184,9.66785177 13.0957184,10.2659454 C13.0957184,10.8568776 13.2400386,11.3960851 13.5286789,11.8835678 C13.6523819,12.092489 13.7943819,12.2831491 13.9546789,12.4555482 L14.056,12.557 L12.378,18.209 L9.2933197,18.2081146 C9.10175069,18.2081146 8.93644969,18.2774913 8.79741669,18.4162445 C8.65838369,18.5549978 8.58886719,18.7204386 8.58886719,18.9125671 C8.58886719,19.1105143 8.65838369,19.2774099 8.79741669,19.4132538 C8.93644969,19.5490977 9.10175069,19.6170197 9.2933197,19.6170197 L11.96,19.618 L10.2418213,25.4115906 C10.1660665,25.6379598 10.1912435,25.8577271 10.3173523,26.0708923 L10.359,26.135 L9.93919373,27.7092438 C9.9000295,27.8635508 9.91882833,28.0076752 9.99559021,28.1416168 C10.0723521,28.2755585 10.1882222,28.3654124 10.3432007,28.4111786 C10.4981791,28.4497833 10.6440938,28.4308446 10.7809448,28.3543625 C10.9177958,28.2778804 11.0058594,28.1621501 11.0451355,28.0071716 L11.469,26.442 L11.5353317,26.4093552 L11.5353317,26.4093552 C11.7435176,26.2896805 11.8829702,26.1088257 11.9536896,25.8667908 L13.812,19.618 L15.632,19.618 L15.6320496,20.6707611 C15.6320496,20.8610992 15.6993281,21.0221202 15.8338852,21.1538239 C15.9684423,21.2855275 16.1276449,21.3513794 16.3114929,21.3513794 C16.5025024,21.3513794 16.6636912,21.2855275 16.7950592,21.1538239 C16.9264272,21.0221202 16.9921112,20.8610992 16.9921112,20.6707611 L16.992,19.618 L18.821,19.618 L20.6800385,25.8667908 C20.7507579,26.1088257 20.8902384,26.2896805 21.0984802,26.4093552 L21.159,26.44 L21.5788574,28.0071716 C21.6246236,28.1621501 21.7143097,28.2778804 21.8479156,28.3543625 C21.9815216,28.4308446 22.1258138,28.4497833 22.2807922,28.4111786 Z M16.3114929,11.7983856 C15.8677063,11.7983856 15.5013529,11.6523031 15.2124329,11.3601379 C14.9235128,11.0679728 14.7790527,10.703242 14.7790527,10.2659454 C14.7790527,9.82215881 14.9235128,9.45580546 15.2124329,9.16688538 C15.5013529,8.87796529 15.8677063,8.73350525 16.3114929,8.73350525 C16.7560628,8.73350525 17.122612,8.87796529 17.4111404,9.16688538 C17.6996689,9.45580546 17.8439331,9.82215881 17.8439331,10.2659454 C17.8439331,10.703242 17.6996689,11.0679728 17.4111404,11.3601379 C17.122612,11.6523031 16.7560628,11.7983856 16.3114929,11.7983856 Z M18.402,18.209 L16.992,18.209 L16.9921112,17.1543732 C16.9921112,16.9697418 16.9264272,16.8101476 16.7950592,16.6755905 C16.6636912,16.5410334 16.5025024,16.4737549 16.3114929,16.4737549 C16.1276449,16.4737549 15.9684423,16.5410334 15.8338852,16.6755905 C15.6993281,16.8101476 15.6320496,16.9697418 15.6320496,17.1543732 L15.632,18.209 L14.231,18.209 L15.656,13.417 L15.6685352,13.4198278 C15.8756161,13.4604179 16.0899353,13.4807129 16.3114929,13.4807129 C16.535778,13.4807129 16.7520852,13.4604179 16.9604144,13.4198278 L16.977,13.416 L18.402,18.209 Z" id="ô”—" fill="#75AEFF" fill-rule="nonzero"></path>
            </g>
        </g>
    </g>
</svg>