<?xml version="1.0" encoding="UTF-8"?>
<svg width="32px" height="32px" viewBox="0 0 32 32" version="1.1" xmlns="http://www.w3.org/2000/svg" xmlns:xlink="http://www.w3.org/1999/xlink">
    <title>auth_icon</title>
    <g id="Page-1" stroke="none" stroke-width="1" fill="none" fill-rule="evenodd">
        <g id="Contrib-Icons" transform="translate(-176.000000, -11.000000)">
            <g id="auth_icon" transform="translate(176.000000, 11.000000)">
                <circle id="Oval" cx="16" cy="16" r="16"></circle>
                <path d="M16.2246094,27.2333984 C16.3105469,27.2333984 16.4161784,27.2154948 16.5415039,27.1796875 C16.6668294,27.1438802 16.7939453,27.0901693 16.9228516,27.0185547 C18.3766276,26.2164714 19.6030273,25.5021159 20.6020508,24.8754883 C21.6010742,24.2488607 22.4031576,23.6383464 23.0083008,23.0439453 C23.613444,22.4495443 24.0538737,21.8068034 24.3295898,21.1157227 C24.605306,20.4246419 24.7431641,19.6171875 24.7431641,18.6933594 L24.7431641,10.9589844 C24.7431641,10.3860677 24.6267904,9.97249349 24.394043,9.71826172 C24.1612956,9.46402995 23.8085938,9.23665365 23.3359375,9.03613281 C23.0494792,8.91438802 22.6251628,8.74967448 22.0629883,8.54199219 C21.5008138,8.3343099 20.8992513,8.11409505 20.2583008,7.88134766 C19.6173503,7.64860026 19.0157878,7.43375651 18.4536133,7.23681641 C17.8914388,7.0398763 17.4671224,6.89485677 17.1806641,6.80175781 C17.0302734,6.74446615 16.8727214,6.69970703 16.7080078,6.66748047 C16.5432943,6.63525391 16.3821615,6.61914062 16.2246094,6.61914062 C16.0598958,6.61914062 15.8951823,6.63883464 15.7304688,6.67822266 C15.5657552,6.71761068 15.4117839,6.75878906 15.2685547,6.80175781 C14.9749349,6.88053385 14.5488281,7.01660156 13.9902344,7.20996094 C13.4316406,7.40332031 12.8300781,7.61995443 12.1855469,7.85986328 C11.5410156,8.09977214 10.9394531,8.32535807 10.3808594,8.53662109 C9.82226562,8.74788411 9.39615885,8.91438802 9.10253906,9.03613281 C8.64420573,9.22949219 8.29508464,9.45507812 8.05517578,9.71289062 C7.81526693,9.97070312 7.6953125,10.3860677 7.6953125,10.9589844 L7.6953125,18.6933594 C7.6953125,19.6171875 7.83317057,20.4228516 8.10888672,21.1103516 C8.38460286,21.7978516 8.82682292,22.4388021 9.43554688,23.0332031 C10.0442708,23.6276042 10.8481445,24.2381185 11.847168,24.8647461 C12.8461914,25.4913737 14.0725911,26.2093099 15.5263672,27.0185547 C15.6552734,27.0901693 15.7823893,27.1438802 15.9077148,27.1796875 C16.0330404,27.2154948 16.1386719,27.2333984 16.2246094,27.2333984 Z M16.2246094,25.2246094 C16.1458333,25.2246094 16.0616862,25.2084961 15.972168,25.1762695 C15.8826497,25.144043 15.7626953,25.0849609 15.6123047,24.9990234 C14.444987,24.2900391 13.4674479,23.6813151 12.6796875,23.1728516 C11.8919271,22.664388 11.2635091,22.1827799 10.7944336,21.7280273 C10.3253581,21.2732747 9.98876953,20.7809245 9.78466797,20.2509766 C9.58056641,19.7210286 9.47851562,19.0729167 9.47851562,18.3066406 L9.47851562,11.28125 C9.47851562,11.1022135 9.5,10.9697266 9.54296875,10.8837891 C9.5859375,10.7978516 9.67903646,10.726237 9.82226562,10.6689453 C10.1302083,10.554362 10.4829102,10.421875 10.8803711,10.2714844 C11.277832,10.1210938 11.7003581,9.9671224 12.1479492,9.80957031 C12.5955404,9.65201823 13.0413411,9.49625651 13.4853516,9.34228516 C13.929362,9.1883138 14.3465169,9.03971354 14.7368164,8.89648438 C15.1271159,8.75325521 15.4654948,8.62434896 15.7519531,8.50976562 C15.8522135,8.47395833 15.9399414,8.44710286 16.0151367,8.42919922 C16.090332,8.41129557 16.1601562,8.40234375 16.2246094,8.40234375 C16.281901,8.40234375 16.3499349,8.41129557 16.4287109,8.42919922 C16.507487,8.44710286 16.5934245,8.47395833 16.6865234,8.50976562 C16.9801432,8.62434896 17.3221029,8.75504557 17.7124023,8.90185547 C18.1027018,9.04866536 18.5180664,9.20263672 18.9584961,9.36376953 C19.3989258,9.52490234 19.8393555,9.68424479 20.2797852,9.84179688 C20.7202148,9.99934896 21.1427409,10.1497396 21.5473633,10.2929688 C21.9519857,10.4361979 22.3082682,10.5615234 22.6162109,10.6689453 C22.7594401,10.726237 22.8525391,10.7978516 22.8955078,10.8837891 C22.9384766,10.9697266 22.9599609,11.1022135 22.9599609,11.28125 L22.9599609,18.3066406 C22.9599609,19.0729167 22.8579102,19.7246094 22.6538086,20.2617188 C22.449707,20.7988281 22.1113281,21.2929688 21.6386719,21.7441406 C21.1660156,22.1953125 20.5358073,22.6733398 19.7480469,23.1782227 C18.9602865,23.6831055 17.9863281,24.2900391 16.8261719,24.9990234 C16.6757812,25.0849609 16.5576172,25.144043 16.4716797,25.1762695 C16.3857422,25.2084961 16.3033854,25.2246094 16.2246094,25.2246094 Z M18.8349609,21.5078125 C19.5367839,21.5078125 19.8876953,21.1354167 19.8876953,20.390625 L19.8876953,16.3837891 C19.8876953,15.6962891 19.5940755,15.327474 19.0068359,15.2773438 L19.0068359,14.1064453 C19.0068359,13.1754557 18.7508138,12.4235026 18.2387695,11.8505859 C17.7267253,11.2776693 17.0589193,10.9912109 16.2353516,10.9912109 C15.3974609,10.9912109 14.7242839,11.2776693 14.2158203,11.8505859 C13.7073568,12.4235026 13.453125,13.1754557 13.453125,14.1064453 L13.453125,15.2773438 C12.8658854,15.327474 12.5722656,15.6962891 12.5722656,16.3837891 L12.5722656,20.390625 C12.5722656,21.1354167 12.9231771,21.5078125 13.625,21.5078125 L18.8349609,21.5078125 Z M17.8896484,15.2558594 L14.5810547,15.2558594 L14.5810547,13.9990234 C14.5810547,13.4189453 14.7314453,12.9534505 15.0322266,12.6025391 C15.3330078,12.2516276 15.7340495,12.0761719 16.2353516,12.0761719 C16.7294922,12.0761719 17.1287435,12.2516276 17.4331055,12.6025391 C17.7374674,12.9534505 17.8896484,13.4189453 17.8896484,13.9990234 L17.8896484,15.2558594 Z" id="􀞙" fill="#75AEFF" fill-rule="nonzero"></path>
            </g>
        </g>
    </g>
</svg>