<?xml version="1.0" encoding="UTF-8"?>
<svg width="32px" height="32px" viewBox="0 0 32 32" version="1.1" xmlns="http://www.w3.org/2000/svg" xmlns:xlink="http://www.w3.org/1999/xlink">
    <title>bluetooth_icon</title>
    <g id="Page-1" stroke="none" stroke-width="1" fill="none" fill-rule="evenodd">
        <g id="Contrib-Icons" transform="translate(-216.000000, -11.000000)">
            <g id="bluetooth_icon" transform="translate(216.000000, 11.000000)">
                <circle id="Oval" cx="16" cy="16" r="16"></circle>
                <path d="M18.0017056,15.9998289 L22.7191098,11.4998647 C22.898714,11.3286176 23,11.093646 23,10.8483571 C23,10.6030682 22.898714,10.3680966 22.7191098,10.1968495 L17.5422457,5.25870315 C17.2741843,5.00299578 16.8755581,4.92945968 16.5304201,5.07127207 C16.185282,5.21348907 15.9608802,5.54404749 15.9608802,5.91021074 L15.9608802,14.0531958 L11.5813719,9.87569802 C11.2132661,9.52460613 10.6238621,9.53158549 10.2646537,9.89147743 C9.90554869,10.2513694 9.9127908,10.8277225 10.2808967,11.1788144 L15.3349553,15.9999301 L10.2808967,20.8210458 C9.9127908,21.1721377 9.90554869,21.7484907 10.2646537,22.1083827 C10.6237587,22.4682746 11.2133695,22.4753551 11.5813719,22.1241621 L15.9608802,17.9466643 L15.9608802,26.0896494 C15.9608802,26.4558126 16.185282,26.7863711 16.5304201,26.9285881 C16.6471214,26.9767355 16.7699268,27 16.8918011,27 C17.1302733,27 17.3648141,26.910381 17.5422457,26.741157 L22.7191098,21.8030106 C22.898714,21.6317636 23,21.396792 23,21.151503 C23,20.9062141 22.898714,20.6712425 22.7191098,20.5 L18.0017056,15.9998289 Z M17.8232394,8.0701693 L20.7356005,10.8482559 L17.8232394,13.6263426 L17.8232394,8.0701693 L17.8232394,8.0701693 Z M17.8232394,23.9293874 L17.8232394,18.3732141 L20.7356005,21.1513007 L17.8232394,23.9293874 Z" fill="#75AEFF" fill-rule="nonzero"></path>
            </g>
        </g>
    </g>
</svg>