<?xml version="1.0" encoding="UTF-8"?>
<svg width="32px" height="32px" viewBox="0 0 32 32" version="1.1" xmlns="http://www.w3.org/2000/svg" xmlns:xlink="http://www.w3.org/1999/xlink">
    <title>cloud_icon</title>
    <g id="Page-1" stroke="none" stroke-width="1" fill="none" fill-rule="evenodd">
        <g id="Contrib-Icons" transform="translate(-256.000000, -11.000000)">
            <g id="cloud_icon" transform="translate(256.000000, 11.000000)">
                <circle id="Oval" cx="16" cy="16" r="16"></circle>
                <path d="M21.3374023,23.632782 C22.1228231,23.632782 22.8535919,23.4941813 23.5297089,23.21698 C24.2058258,22.9397786 24.7991384,22.5535787 25.3096466,22.0583801 C25.8201548,21.5631816 26.2172648,20.9869588 26.5009766,20.3297119 C26.7846883,19.672465 26.9265442,18.9605916 26.9265442,18.1940918 C26.9265442,17.4210815 26.7805939,16.7053426 26.4886932,16.046875 C26.1967926,15.3884074 25.7883911,14.8140411 25.2634888,14.3237762 C24.7385864,13.8335114 24.1184692,13.4523977 23.4031372,13.1804352 C22.6878052,12.9084727 21.9071147,12.7724915 21.0610657,12.7724915 C20.4433899,11.5487366 19.5898895,10.5889842 18.5005646,9.89323425 C17.4112396,9.19748433 16.1744893,8.84960938 14.7903137,8.84960938 C13.8849589,8.84960938 13.029068,9.01203918 12.222641,9.3368988 C11.416214,9.66175842 10.6944224,10.115682 10.0572662,10.6986694 C9.42011007,11.2816569 8.90321859,11.9679972 8.5065918,12.7576904 C8.10996501,13.5473836 7.86587524,14.4046224 7.77432251,15.3294067 C7.15298462,15.5121053 6.60768636,15.8005981 6.13842773,16.1948853 C5.66916911,16.5891724 5.30384827,17.0627543 5.04246521,17.6156311 C4.78108215,18.1685079 4.65039062,18.7732646 4.65039062,19.4299011 C4.65039062,20.2123718 4.83283488,20.9212443 5.19772339,21.5565186 C5.5626119,22.1917928 6.08809916,22.6966553 6.77418518,23.071106 C7.4602712,23.4455566 8.28559367,23.632782 9.25015259,23.632782 L21.3374023,23.632782 Z M21.4152222,22.017334 L9.2437439,22.017334 C8.62698364,22.017334 8.0969696,21.9119466 7.65370178,21.7011719 C7.21043396,21.4903971 6.86993408,21.1959534 6.63220215,20.8178406 C6.39447021,20.4397278 6.27560425,19.9937134 6.27560425,19.4797974 C6.27560425,18.8219401 6.47811381,18.2648926 6.88313293,17.8086548 C7.28815206,17.352417 7.86658732,17.0233866 8.61843872,16.8215637 C8.87478638,16.7558492 9.05862935,16.655777 9.16996765,16.521347 C9.28130595,16.3869171 9.34862264,16.1795247 9.37191772,15.8991699 C9.43742879,15.1166992 9.62091573,14.3956197 9.92237854,13.7359314 C10.2238413,13.0762431 10.6173655,12.5021566 11.102951,12.0136719 C11.5885366,11.5251872 12.1451009,11.1451162 12.772644,10.8734589 C13.4001872,10.6018016 14.0727437,10.4659729 14.7903137,10.4659729 C15.8879293,10.4659729 16.8556163,10.7595266 17.6933746,11.3466339 C18.531133,11.9337413 19.2123108,12.7556559 19.736908,13.8123779 C19.8500264,14.038208 19.984024,14.1970011 20.1389008,14.2887573 C20.2937775,14.3805135 20.5127665,14.4263916 20.7958679,14.4263916 C21.7556458,14.4263916 22.5712026,14.5988668 23.2425385,14.9438171 C23.9138743,15.2887675 24.4248403,15.7486165 24.7754364,16.3233643 C25.1260325,16.898112 25.3013306,17.535675 25.3013306,18.2360535 C25.3013306,18.9445699 25.129542,19.584142 24.785965,20.1547699 C24.4423879,20.7253977 23.9775289,21.1784821 23.3913879,21.5140228 C22.805247,21.8495636 22.1465251,22.017334 21.4152222,22.017334 Z" id="􀇂" fill="#75AEFF" fill-rule="nonzero"></path>
            </g>
        </g>
    </g>
</svg>