<?xml version="1.0" encoding="UTF-8"?>
<svg width="32px" height="32px" viewBox="0 0 32 32" version="1.1" xmlns="http://www.w3.org/2000/svg" xmlns:xlink="http://www.w3.org/1999/xlink">
    <title>design_icon</title>
    <g id="Page-1" stroke="none" stroke-width="1" fill="none" fill-rule="evenodd">
        <g id="Contrib-Icons" transform="translate(-256.000000, -51.000000)">
            <g id="design_icon" transform="translate(256.000000, 51.000000)">
                <circle id="Oval" cx="16" cy="16" r="16"></circle>
                <g id="brush" transform="translate(6.000000, 6.000000)" fill="#75AEFF" fill-rule="nonzero">
                    <path d="M5.90546575,18.4016485 C6.57758224,18.257349 7.1853575,17.975999 7.72879153,17.5575986 C8.34442396,17.0899632 8.78965552,16.5516375 9.06448622,15.9426216 C9.30878017,15.4012742 9.41051766,14.8417829 9.36969869,14.2641476 L9.36349017,14.2095652 L9.44855129,14.1935133 C9.7887424,14.1183124 10.1170934,13.9919409 10.4336043,13.8143987 C10.8767195,13.5658397 11.3308786,13.2064289 11.7960815,12.7361662 C12.2752959,12.2624981 12.7855498,11.7064634 13.3268432,11.0680622 C13.8681366,10.429661 14.4120814,9.75856615 14.9586778,9.05477773 C15.5052742,8.3509893 16.0310235,7.65715005 16.5359257,6.97325997 C17.040828,6.28936989 17.4968601,5.6605773 17.9040221,5.08688222 C18.3111841,4.51318713 18.6474126,4.03861889 18.9127077,3.66317749 C19.1780028,3.28773609 19.3411546,3.05452651 19.4021632,2.96354874 C19.6309212,2.64274265 19.7468571,2.31631735 19.7500567,1.98427283 C19.7530844,1.65222831 19.6716423,1.34913127 19.5056443,1.07498169 C19.3396464,0.800832113 19.1183077,0.580758357 18.8416283,0.414760424 C18.5649488,0.24876249 18.260295,0.166055431 17.9276666,0.166636176 C17.5950383,0.16722306 17.2658399,0.282185872 16.9400714,0.511527683 L16.8614942,0.566788252 C16.7445944,0.648656829 16.5394016,0.791418103 16.2459159,0.995072075 C15.8685771,1.25691289 15.393498,1.59112239 14.8206786,1.99770057 C14.2478593,2.40427874 13.6213776,2.85817022 12.9412337,3.359375 C12.2610897,3.86057978 11.5695614,4.385575 10.8666487,4.93436067 C10.163736,5.48314634 9.49310339,6.0280399 8.85475084,6.56904138 C8.2163983,7.11004285 7.65756616,7.6201508 7.17825442,8.09936523 C6.71743014,8.56583305 6.36169249,9.01780281 6.11104144,9.4552745 C5.94394075,9.74692229 5.8193504,10.0475003 5.7372704,10.3570085 L5.6904467,10.5608696 L5.58489456,10.5581492 C5.51475927,10.5592659 5.44447728,10.5628741 5.37404857,10.5689737 C4.81061889,10.6177709 4.28209645,10.8348769 3.78848126,11.2202918 C3.44159812,11.4878735 3.19328234,11.7707803 3.04353391,12.0690122 C2.89378548,12.3672441 2.78792044,12.6625326 2.7259388,12.9548778 C2.66395716,13.2472229 2.59805909,13.512518 2.5282446,13.7507629 C2.45843011,13.9890079 2.32972333,14.1788693 2.14212426,14.320347 C1.92212348,14.4890694 1.70489582,14.5895098 1.49044128,14.6216683 C1.27598674,14.6538267 1.07062998,14.6796848 0.874370992,14.6992426 C0.678112005,14.7188004 0.496351078,14.7953774 0.329088213,14.9289737 C0.128645222,15.0888415 0.0195692057,15.3009851 0.00186016475,15.5654045 C-0.0158488762,15.8298238 0.0928865815,16.1148469 0.328066538,16.4204738 C0.759700086,16.9795736 1.28238438,17.4314703 1.89611941,17.7761642 C2.50985444,18.120858 3.16348347,18.3473537 3.85700649,18.4556513 C4.55052951,18.5639489 5.23334926,18.545948 5.90546575,18.4016485 Z M11.5860989,10.6991304 L11.5507699,10.6071142 C11.5215062,10.5385579 11.4897248,10.4702847 11.4554257,10.4022947 C11.2496311,9.99435425 10.9827062,9.6229509 10.6546511,9.28808461 C10.3265959,8.95321832 9.96185781,8.68116075 9.56043667,8.47191189 L9.35912403,8.37472501 L9.35912403,8.37472501 L9.21827278,8.31826087 L9.2705322,8.27102293 C9.45545005,8.10718727 9.64899809,7.93999197 9.85117631,7.76943704 C10.457711,7.25777225 11.0938012,6.7425316 11.7594471,6.22371508 C12.425093,5.70489856 13.0806924,5.20578578 13.7262453,4.72637674 C14.3717982,4.2469677 14.9676783,3.81080959 15.5138854,3.41790241 C16.0600926,3.02499522 16.5144706,2.70012676 16.8770194,2.44329701 C17.2395682,2.18646727 17.4719264,2.02141803 17.5740939,1.94814931 C17.6677962,1.87828617 17.7567792,1.85799861 17.8410431,1.88728664 C17.925307,1.91657467 17.983202,1.9749318 18.014728,2.06235803 C18.046254,2.14978425 18.0245555,2.24565147 17.9496326,2.34995966 C17.891835,2.44200776 17.7370025,2.6694765 17.4851352,3.03236588 C17.2332679,3.39525527 16.9110266,3.85089819 16.5184113,4.39929465 C16.125796,4.9476911 15.6879108,5.54546854 15.2047556,6.19262695 C14.7216004,6.83978537 14.2186199,7.4956037 13.695814,8.16008195 C13.1730081,8.82456019 12.6551646,9.45833953 12.1422835,10.0614199 C11.9713231,10.2624467 11.8037521,10.4550731 11.6395705,10.639299 L11.5860989,10.6991304 Z M8.88349017,12.7130435 L8.7990443,12.5682817 C8.71365122,12.4322241 8.61878976,12.2975215 8.51445994,12.164174 C8.12869233,11.6636381 7.70319909,11.2786847 7.23798024,11.0093135 L7.19566409,10.9869565 L7.20390172,10.9219788 C7.24023877,10.7017077 7.31680496,10.4826259 7.4336003,10.2647334 C7.58376574,9.98458578 7.80872497,9.68717397 8.10847799,9.37249794 L8.15305539,9.32782609 L8.22547986,9.33693043 C8.42113341,9.37231607 8.62237644,9.44360632 8.82920896,9.55080115 C9.13945773,9.71159341 9.42688909,9.92383432 9.69150303,10.1875239 C9.95611697,10.4512134 10.1726878,10.7383286 10.3412156,11.0488693 C10.4535675,11.2558964 10.5300688,11.4587827 10.5707196,11.6575283 L10.5852293,11.7513043 L10.5400343,11.7949738 C10.2337342,12.084796 9.95106072,12.3000568 9.69201387,12.4407561 C9.45023681,12.5720754 9.20462992,12.6594919 8.95519322,12.7030056 L8.88349017,12.7130435 Z M4.50686505,17.1514096 C4.08943765,17.1412902 3.68599748,17.0579263 3.29654453,16.9013181 C2.90709159,16.7447098 2.55882189,16.5079974 2.25173544,16.1911807 C2.19744069,16.1325073 2.17014736,16.0760476 2.1698525,16.0218015 C2.16956354,15.9675554 2.19092143,15.9192204 2.2339291,15.8767966 C2.27246086,15.8394324 2.34507279,15.8031873 2.4517649,15.7680611 C2.558457,15.7329349 2.67794438,15.6862298 2.81022702,15.6279456 C2.94250967,15.5696615 3.06795682,15.4787323 3.18656847,15.3551583 C3.40744497,15.1392442 3.56614522,14.907032 3.66266923,14.6585216 C3.75919323,14.4100112 3.84192461,14.1560519 3.91086338,13.8966436 C3.97980215,13.6372353 4.07177726,13.3863897 4.18678873,13.1441067 C4.30180019,12.9018236 4.48326921,12.6820661 4.73119578,12.4848341 C4.99731791,12.269893 5.28883597,12.1501624 5.60574996,12.1256422 C5.92266395,12.101122 6.23736432,12.1662173 6.54985105,12.3209282 C6.86233778,12.475639 7.14565811,12.7132029 7.39981204,13.0336198 C7.69006517,13.3957794 7.85581984,13.7770589 7.89707607,14.1774584 C7.9383323,14.5778579 7.86620688,14.9689893 7.68069981,15.3508526 C7.49519274,15.732716 7.21046152,16.0784558 6.82650616,16.3880721 C6.49509411,16.6513725 6.12999109,16.8469504 5.73119711,16.9748057 C5.33240313,17.1026611 4.92429244,17.1615291 4.50686505,17.1514096 Z" id="􀣶"></path>
                    <path d="M18.1777738,3.47826087 L19.2780287,2.3907412 C19.5512923,2.11493234 19.693454,1.83228046 19.7045135,1.54278554 C19.7155731,1.25329062 19.5984683,0.981425205 19.3531992,0.727189285 L18.9716439,0.34079012 C18.7256836,0.0931652616 18.4585833,-0.0195127478 18.1703431,0.0027560919 C17.882103,0.0250249316 17.601351,0.170004357 17.3280874,0.437694368 L16.2269684,1.52521403 L18.1777738,3.47826087 Z M1.13029249,19.1055304 L3.93364984,18.0123702 L17.0965337,4.80879867 L14.9066067,2.60869565 L1.75508997,15.8122672 L0.601723219,18.5491056 C0.544234533,18.7097718 0.578793072,18.8566881 0.705398837,18.9898547 C0.832004601,19.1230212 0.973635817,19.1615798 1.13029249,19.1055304 Z" id="􀈊" transform="translate(10.140012, 9.565217) scale(-1, 1) translate(-10.140012, -9.565217) "></path>
                </g>
            </g>
        </g>
    </g>
</svg>