<?xml version="1.0" encoding="UTF-8"?>
<svg width="32px" height="32px" viewBox="0 0 32 32" version="1.1" xmlns="http://www.w3.org/2000/svg" xmlns:xlink="http://www.w3.org/1999/xlink">
    <title>libdev_icon</title>
    <g id="Page-1" stroke="none" stroke-width="1" fill="none" fill-rule="evenodd">
        <g id="Contrib-Icons" transform="translate(-56.000000, -51.000000)">
            <g id="libdev_icon" transform="translate(56.000000, 51.000000)">
                <circle id="Oval" cx="16" cy="16" r="16"></circle>
                <path d="M15.8953247,27.8730621 C16.1722717,27.8730621 16.455485,27.7921041 16.7449646,27.630188 L24.7631683,23.1186371 C25.2404124,22.8430328 25.5994924,22.5317052 25.8404083,22.1846542 C26.0813243,21.8376033 26.2017822,21.3015849 26.2017822,20.5765991 L26.2017822,12.4425812 C26.2017822,11.9121857 26.0992839,11.4696859 25.8942871,11.1150818 C25.6892904,10.7604777 25.3650665,10.45578 24.9216156,10.2009888 L17.7609406,6.15084839 C17.1381175,5.80497233 16.5164134,5.6320343 15.8958282,5.6320343 C15.2752431,5.6320343 14.653595,5.80497233 14.0308838,6.15084839 L6.87020874,10.2009888 C6.42675781,10.45578 6.10233816,10.7604777 5.89694977,11.1150818 C5.69156138,11.4696859 5.58886719,11.9121857 5.58886719,12.4425812 L5.58886719,20.5765991 C5.58886719,21.3015849 5.71114349,21.8376033 5.95569611,22.1846542 C6.20024872,22.5317052 6.56114705,22.8430328 7.03839111,23.1186371 L15.0554199,27.630188 C15.3384094,27.7921041 15.6183777,27.8730621 15.8953247,27.8730621 Z M20.6693878,13.0938263 L12.9757996,8.7689209 L14.7771301,7.74656677 C15.5355733,7.31777445 16.281428,7.31777445 17.0146942,7.74656677 L23.5618896,11.4638672 L20.6693878,13.0938263 Z M15.8953247,15.7792053 L8.22993469,11.4638672 L11.2145844,9.7598877 L18.8831635,14.0923462 L15.8953247,15.7792053 Z M15.0257111,25.6177063 L8.04026794,21.6587067 C7.76209005,21.4988047 7.56528982,21.3280207 7.44986725,21.1463547 C7.33444468,20.9646886 7.2767334,20.7344309 7.2767334,20.4555817 L7.2767334,12.935379 L15.0257111,17.3354797 L15.0257111,25.6177063 Z M16.7756805,25.6177063 L16.7756805,17.3354797 L24.5246582,12.935379 L24.5246582,20.4555817 C24.5246582,20.7344309 24.4669749,20.9646886 24.3516083,21.1463547 C24.2362417,21.3280207 24.0358887,21.4988047 23.7505493,21.6587067 L16.7756805,25.6177063 Z" id="ô€š" fill="#75AEFF" fill-rule="nonzero"></path>
            </g>
        </g>
    </g>
</svg>