<?xml version="1.0" encoding="UTF-8"?>
<svg width="32px" height="32px" viewBox="0 0 32 32" version="1.1" xmlns="http://www.w3.org/2000/svg" xmlns:xlink="http://www.w3.org/1999/xlink">
    <title>localdb_icon</title>
    <g id="Page-1" stroke="none" stroke-width="1" fill="none" fill-rule="evenodd">
        <g id="Contrib-Icons" transform="translate(-96.000000, -51.000000)">
            <g id="localdb_icon" transform="translate(96.000000, 51.000000)">
                <circle id="Oval" cx="16" cy="16" r="16"></circle>
                <g id="LocalDB_icon" transform="translate(6.000000, 6.000000)" fill="#75AEFF" fill-rule="nonzero">
                    <path d="M19.2296094,8.88882866 L19.2326355,14.3191528 C19.2326355,15.0698853 18.9882914,15.773646 18.4996033,16.4304352 C18.0109151,17.0872243 17.3294576,17.6654816 16.4552307,18.1652069 C15.5810038,18.6649323 14.5606486,19.0568034 13.394165,19.3408203 C12.2276815,19.6248372 10.9666443,19.7668457 9.61105347,19.7668457 C8.25536092,19.7668457 6.99590047,19.6248372 5.83267212,19.3408203 C4.66944377,19.0568034 3.65086873,18.6649323 2.77694702,18.1652069 C1.90302531,17.6654816 1.22172038,17.0872243 0.733032227,16.4304352 C0.244344076,15.773646 0,15.0698853 0,14.3191528 L0,14.3191528 L0.00166928393,9.18687175 L1.624,11.0808287 L1.62582397,14.3191528 C1.62582397,14.9621921 1.89586869,15.5536457 2.43595812,16.0935137 L2.58995056,16.2394714 C3.23270162,16.8181864 4.15100098,17.2780101 5.34484863,17.6189423 C6.53869629,17.9598745 7.96076457,18.1303406 9.61105347,18.1303406 C11.2612406,18.1303406 12.6834106,17.9598745 13.8775635,17.6189423 C15.0717163,17.2780101 15.9917959,16.8181864 16.6378021,16.2394714 C17.2838084,15.6607564 17.6068115,15.0206502 17.6068115,14.3191528 L17.6068115,14.3191528 L17.606,11.1658287 L17.6210671,11.1600103 L19.2296094,8.88882866 Z" id="􁛽"></path>
                    <path d="M9.61105347,14.7668457 C10.9666443,14.7668457 12.2276815,14.6248372 13.394165,14.3408203 C14.5606486,14.0568034 15.5810038,13.6649323 16.4552307,13.1652069 C17.3294576,12.6654816 18.0109151,12.0872243 18.4996033,11.4304352 C18.9882914,10.773646 19.2326355,10.0698853 19.2326355,9.31915283 L19.2326355,4.41009521 L19.2296094,4.41334473 L19.2326355,4.33853149 L19.2326355,4.33853149 C19.2326355,3.73031616 18.9866638,3.1632487 18.4947205,2.6373291 C18.0027771,2.11140951 17.3180644,1.65115356 16.4405823,1.25656128 C15.5631002,0.861968994 14.542745,0.553894043 13.3795166,0.332336426 C12.2162882,0.110778809 10.9601339,0 9.61105347,0 C8.26838175,0 7.01398214,0.110778809 5.84785461,0.332336426 C4.68172709,0.553894043 3.66152445,0.861968994 2.7872467,1.25656128 C1.91296895,1.65115356 1.2298584,2.11140951 0.737915039,2.6373291 C0.24597168,3.1632487 0,3.73031616 0,4.33853149 L0.002109375,4.41334473 L0,4.41009521 L0,9.31915283 C0,10.0698853 0.244344076,10.773646 0.733032227,11.4304352 C1.22172038,12.0872243 1.90302531,12.6654816 2.77694702,13.1652069 C3.65086873,13.6649323 4.66944377,14.0568034 5.83267212,14.3408203 C6.99590047,14.6248372 8.25536092,14.7668457 9.61105347,14.7668457 Z M9.61105347,7.16751099 C8.48342896,7.16751099 7.4356842,7.09520976 6.46781921,6.9506073 C5.49995422,6.80600484 4.65316772,6.6040802 3.92745972,6.34483337 C3.20175171,6.08558655 2.63671875,5.78493754 2.23236084,5.44288635 C1.82800293,5.10083516 1.62582397,4.73271688 1.62582397,4.33853149 C1.62582397,3.95665487 1.82785034,3.60285441 2.23190308,3.27713013 C2.63595581,2.95140584 3.20083618,2.66525269 3.92654419,2.41867065 C4.6522522,2.17208862 5.49919128,1.97975159 6.46736145,1.84165955 C7.43553162,1.7035675 8.48342896,1.63452148 9.61105347,1.63452148 C10.7385763,1.63452148 11.7878977,1.7035675 12.7590179,1.84165955 C13.7301381,1.97975159 14.5787048,2.17208862 15.304718,2.41867065 C16.0307312,2.66525269 16.5959167,2.95140584 17.0002747,3.27713013 C17.4046326,3.60285441 17.6068115,3.95665487 17.6068115,4.33853149 C17.6068115,4.73271688 17.4046326,5.10083516 17.0002747,5.44288635 C16.5959167,5.78493754 16.0307312,6.08558655 15.304718,6.34483337 C14.5787048,6.6040802 13.7301381,6.80600484 12.7590179,6.9506073 C11.7878977,7.09520976 10.7385763,7.16751099 9.61105347,7.16751099 Z M9.61105347,13.1303406 C7.96076457,13.1303406 6.53869629,12.9598745 5.34484863,12.6189423 C4.15100098,12.2780101 3.23270162,11.8181864 2.58995056,11.2394714 C1.9471995,10.6607564 1.62582397,10.0206502 1.62582397,9.31915283 L1.62460937,6.85209473 L1.8843329,7.02193618 C2.15842128,7.19319463 2.45939255,7.35519409 2.7872467,7.50793457 C3.66152445,7.91524251 4.68172709,8.23145549 5.84785461,8.45657349 C7.01398214,8.68169149 8.26838175,8.79425049 9.61105347,8.79425049 C10.9601339,8.79425049 12.2162882,8.68169149 13.3795166,8.45657349 C14.542745,8.23145549 15.5631002,7.91524251 16.4405823,7.50793457 C16.7696381,7.35519409 17.0715857,7.19319463 17.3464251,7.02193618 L17.6058594,6.85209473 L17.6068115,9.31915283 C17.6068115,10.0206502 17.2838084,10.6607564 16.6378021,11.2394714 C15.9917959,11.8181864 15.0717163,12.2780101 13.8775635,12.6189423 C12.6834106,12.9598745 11.2612406,13.1303406 9.61105347,13.1303406 Z" id="􁛽"></path>
                </g>
            </g>
        </g>
    </g>
</svg>