<?xml version="1.0" encoding="UTF-8"?>
<svg width="32px" height="32px" viewBox="0 0 32 32" version="1.1" xmlns="http://www.w3.org/2000/svg" xmlns:xlink="http://www.w3.org/1999/xlink">
    <title>mentor_icon</title>
    <g id="Page-1" stroke="none" stroke-width="1" fill="none" fill-rule="evenodd">
        <g id="Contrib-Icons" transform="translate(-136.000000, -51.000000)">
            <g id="mentor_icon" transform="translate(136.000000, 51.000000)">
                <circle id="Oval" cx="16" cy="16" r="16"></circle>
                <path d="M20.8205109,15.921402 C21.4237518,15.921402 21.9783325,15.7580948 22.4842529,15.4314804 C22.9901733,15.104866 23.3956146,14.6638565 23.7005768,14.1084518 C24.0055389,13.5530472 24.15802,12.9264374 24.15802,12.2286224 C24.15802,11.5500336 24.0040741,10.9400635 23.6961823,10.3987122 C23.3882904,9.85736084 22.9812469,9.42987823 22.4750519,9.11626434 C21.9688568,8.80265045 21.4173431,8.64584351 20.8205109,8.64584351 C20.223587,8.64584351 19.6720505,8.80530548 19.1659012,9.12422943 C18.6597519,9.44315338 18.2527084,9.87475586 17.9447708,10.4190369 C17.6368332,10.9633179 17.4828644,11.572052 17.4828644,12.2452393 C17.4835052,12.9319763 17.6363068,13.5530472 17.9412689,14.1084518 C18.2462311,14.6638565 18.652977,15.104866 19.1615067,15.4314804 C19.6700363,15.7580948 20.2230377,15.921402 20.8205109,15.921402 Z M11.2297211,16.1051483 C11.7503815,16.1051483 12.2312851,15.9638138 12.6724319,15.6811447 C13.1135788,15.3984756 13.4675903,15.0147324 13.7344666,14.5299149 C14.0013428,14.0450974 14.1347809,13.5006561 14.1347809,12.8965912 C14.1347809,12.3005829 14.0012054,11.7670822 13.7340546,11.2960892 C13.4669037,10.8250961 13.1127548,10.4534149 12.671608,10.1810455 C12.2304611,9.90867615 11.7498322,9.77249146 11.2297211,9.77249146 C10.7095184,9.77249146 10.2287064,9.91130829 9.78728485,10.188942 C9.34586334,10.4665756 8.99038696,10.8422394 8.72085571,11.3159332 C8.45132446,11.7896271 8.3168335,12.322052 8.31738114,12.913208 C8.31738114,13.5115051 8.45201111,14.0517349 8.7212677,14.5338974 C8.99052429,15.0160599 9.34572601,15.3984756 9.78687286,15.6811447 C10.2280197,15.9638138 10.7089691,16.1051483 11.2297211,16.1051483 Z M12.8914032,23.6321564 C12.6717682,23.3187714 12.5636673,22.9403152 12.5671005,22.496788 C12.5705338,22.0532608 12.6682663,21.5856094 12.8602982,21.0938339 C13.05233,20.6020584 13.3189774,20.1234894 13.6602402,19.6581268 C14.001503,19.1927643 14.4025269,18.781601 14.8633118,18.4246368 C14.4038086,18.1214142 13.8735809,17.8707199 13.2726288,17.672554 C12.6716766,17.4743881 11.9880524,17.3753052 11.221756,17.3753052 C10.2887421,17.3753052 9.44696045,17.5281067 8.69641113,17.8337097 C7.94586182,18.1393127 7.30389404,18.5409088 6.77050781,19.0384979 C6.23712158,19.536087 5.8283844,20.0799789 5.54429626,20.6701736 C5.26020813,21.2603683 5.11816406,21.8394623 5.11816406,22.4074554 C5.11816406,22.8011322 5.2329483,23.1036682 5.46251678,23.3150635 C5.69208527,23.5264587 6.07901001,23.6321564 6.62329102,23.6321564 L12.8914032,23.6321564 Z M26.020752,23.6313324 C26.6869812,23.6313324 27.1540604,23.53479 27.4219894,23.3417053 C27.6899185,23.1486206 27.8238831,22.8656311 27.8238831,22.4927368 C27.8238831,21.9554138 27.6619034,21.3914261 27.337944,20.8007736 C27.0139847,20.2101212 26.5477982,19.657692 25.9393845,19.143486 C25.3309708,18.6292801 24.595253,18.2101288 23.7322311,17.8860321 C22.8692093,17.5619354 21.8986359,17.3998871 20.8205109,17.3998871 C19.7423859,17.3998871 18.7719498,17.5619354 17.9092026,17.8860321 C17.0464554,18.2101288 16.3093872,18.6292801 15.697998,19.143486 C15.0866089,19.657692 14.6190948,20.2101212 14.2954559,20.8007736 C13.971817,21.3914261 13.8099976,21.9554138 13.8099976,22.4927368 C13.8099976,22.8656311 13.9439392,23.1486206 14.2118225,23.3417053 C14.4797058,23.53479 14.9467621,23.6313324 15.6129913,23.6313324 L26.020752,23.6313324 Z" id="􀉬" fill="#75AEFF" fill-rule="nonzero"></path>
            </g>
        </g>
    </g>
</svg>