<?xml version="1.0" encoding="UTF-8"?>
<svg width="32px" height="32px" viewBox="0 0 32 32" version="1.1" xmlns="http://www.w3.org/2000/svg" xmlns:xlink="http://www.w3.org/1999/xlink">
    <title>poc_icon</title>
    <g id="Page-1" stroke="none" stroke-width="1" fill="none" fill-rule="evenodd">
        <g id="Contrib-Icons" transform="translate(-176.000000, -51.000000)">
            <g id="poc_icon" transform="translate(176.000000, 51.000000)">
                <circle id="Oval" cx="16" cy="16" r="16"></circle>
                <path d="M19.6316376,23.0602264 C19.8597972,23.0602264 20.0354767,22.9983749 20.1586761,22.8746719 C20.2818756,22.7509689 20.3520355,22.5815277 20.3691559,22.3663483 C20.4939219,21.0280507 20.6741892,19.889183 20.9099579,18.9497452 C21.1457265,18.0103073 21.401357,17.1946843 21.6768494,16.5028763 C21.9523417,15.8110682 22.2140147,15.1755447 22.4618683,14.5963058 C22.7097219,14.017067 22.9135157,13.4275894 23.0732498,12.8278732 C23.2329839,12.228157 23.312851,11.5400696 23.312851,10.7636108 C23.312851,9.8710022 23.1371155,9.04116821 22.7856445,8.27410889 C22.4341736,7.50704956 21.945432,6.83641815 21.3194199,6.26221466 C20.6934077,5.68801117 19.9649811,5.23874156 19.13414,4.91440582 C18.303299,4.59007009 17.4085642,4.42790222 16.4499359,4.42790222 C15.4983571,4.42790222 14.6071472,4.59007009 13.7763062,4.91440582 C12.9454651,5.23874156 12.2155838,5.68784332 11.5866623,6.26171112 C10.9577408,6.83557892 10.4675446,7.50604248 10.1160736,8.27310181 C9.76460266,9.04016113 9.58886719,9.86999512 9.58886719,10.7626038 C9.58886719,11.5390625 9.66856639,12.22715 9.82796478,12.8268661 C9.98736318,13.4265823 10.1926117,14.0162277 10.4437103,14.5958023 C10.694809,15.1753769 10.9565099,15.8109004 11.2288132,16.5023727 C11.5011164,17.1938451 11.7551524,18.0094681 11.990921,18.9492416 C12.2266897,19.8890152 12.406901,21.0280507 12.5315552,22.3663483 C12.5551656,22.5815277 12.6285706,22.7509689 12.75177,22.8746719 C12.8749695,22.9983749 13.047404,23.0602264 13.2690735,23.0602264 L19.6316376,23.0602264 Z M21.253,12.871 L11.65,12.871 L11.5632424,12.6269608 C11.5245433,12.5121536 11.488486,12.3984934 11.4550705,12.2859802 C11.3214086,11.8359273 11.2545776,11.3281352 11.2545776,10.7626038 C11.2545776,10.0833842 11.3923238,9.45949809 11.6678162,8.89094543 C11.9433085,8.32239278 12.3198166,7.8299586 12.7973404,7.41364288 C13.2748642,6.99732717 13.8281708,6.67327118 14.4572601,6.44147491 C15.0863495,6.20967865 15.7505747,6.09378052 16.4499359,6.09378052 C17.1563466,6.09378052 17.8224742,6.20987447 18.4483185,6.44206238 C19.0741628,6.67425028 19.6274694,6.99830627 20.1082382,7.41423035 C20.5890071,7.83015442 20.9673055,8.32239278 21.2431335,8.89094543 C21.5189616,9.45949809 21.6568756,10.0833842 21.6568756,10.7626038 C21.6568756,11.3281352 21.5884221,11.8359273 21.4515152,12.2859802 L21.3415179,12.6269608 L21.3415179,12.6269608 L21.253,12.871 Z M18.8513184,21.3965302 L14.0591278,21.3965302 C13.8770701,19.9805756 13.6649399,18.791158 13.4227371,17.8282776 C13.1805344,16.8653971 12.9345551,16.0568517 12.6847992,15.4026413 C12.5349457,15.0101151 12.3907721,14.6477307 12.2522784,14.3154883 L12.249,14.308 L20.659,14.308 C20.5191906,14.6452346 20.3732849,15.0101151 20.221283,15.4026413 C19.9679464,16.0568517 19.7201767,16.8653971 19.4779739,17.8282776 C19.2357712,18.791158 19.026886,19.9805756 18.8513184,21.3965302 Z M19.6964264,25.3387451 C19.8700918,25.3387451 20.0171534,25.2779846 20.1376114,25.1564636 C20.2580694,25.0349426 20.3182983,24.8886922 20.3182983,24.7177124 C20.3182983,24.5455017 20.2580694,24.3988037 20.1376114,24.2776184 C20.0171534,24.1564331 19.8700918,24.0958405 19.6964264,24.0958405 L13.2140198,24.0958405 C13.0338643,24.0958405 12.8850123,24.1564331 12.7674637,24.2776184 C12.6499151,24.3988037 12.5911407,24.5455017 12.5911407,24.7177124 C12.5911407,24.8886922 12.6499151,25.0349426 12.7674637,25.1564636 C12.8850123,25.2779846 13.0338643,25.3387451 13.2140198,25.3387451 L19.6964264,25.3387451 Z M16.4499359,28.3203735 C17.2466482,28.3203735 17.9329173,28.1420924 18.5087433,27.7855301 C19.0845693,27.4289678 19.3982188,26.9585775 19.4496918,26.3743591 L13.4545441,26.3743591 C13.4931488,26.9585775 13.8028259,27.4289678 14.3835754,27.7855301 C14.964325,28.1420924 15.6531118,28.3203735 16.4499359,28.3203735 Z" id="ôŽ¦" fill="#75AEFF" fill-rule="nonzero"></path>
            </g>
        </g>
    </g>
</svg>