<?xml version="1.0" encoding="UTF-8"?>
<svg width="32px" height="32px" viewBox="0 0 32 32" version="1.1" xmlns="http://www.w3.org/2000/svg" xmlns:xlink="http://www.w3.org/1999/xlink">
    <title>unittest_icon</title>
    <g id="Page-1" stroke="none" stroke-width="1" fill="none" fill-rule="evenodd">
        <g id="Contrib-Icons" transform="translate(-216.000000, -52.000000)">
            <g id="unittest_icon" transform="translate(216.000000, 52.000000)">
                <circle id="Oval" cx="16" cy="16" r="16"></circle>
                <g id="unittest" transform="translate(9.000000, 5.000000)" fill="#75AEFF" fill-rule="nonzero">
                    <path d="M6.50274145,18 C7.35410139,18 8.03638526,17.7480055 8.54959304,17.2440166 C9.06280082,16.7400277 9.31940471,16.0738727 9.31940471,15.2455514 L9.31932921,5.2822943 L9.34252827,5.28163078 C9.52314626,5.28163078 9.67787938,5.21733694 9.80672763,5.08874926 C9.93557588,4.96016158 10,4.80958428 10,4.63701736 C10,4.46000966 9.93569507,4.30958818 9.80708521,4.18575291 C9.67847534,4.06191764 9.52362303,4 9.34252827,4 L3.65747173,4 C3.46159697,4 3.30304965,4.06180077 3.18182979,4.18540232 C3.06060993,4.30900386 3,4.45954221 3,4.63701736 C3,4.81059709 3.06072912,4.96142759 3.18218737,5.08950887 C3.30364562,5.21759014 3.46207374,5.28163078 3.65747173,5.28163078 L3.66950612,5.2822943 L3.67010625,15.2455514 C3.67010625,16.0738727 3.92798154,16.7400277 4.44373212,17.2440166 C4.9594827,17.7480055 5.64581914,18 6.50274145,18 Z M8,14.4567275 L5,14.4564425 L5,13.0729324 L6.19161893,13.0729324 C6.33705012,13.0729324 6.45534067,13.032679 6.54649058,12.9521723 C6.63764049,12.8716657 6.68063909,12.771195 6.67548636,12.6507604 C6.67548636,12.5386712 6.62864544,12.4410142 6.53496358,12.3577895 C6.44128173,12.2745648 6.32683351,12.2329525 6.19161893,12.2329525 L5,12.2326997 L5,10.8156625 L6.19934802,10.8157592 C6.33447376,10.8157592 6.44889977,10.775257 6.54262604,10.6942526 C6.63635231,10.6132483 6.68321545,10.5100788 6.68321545,10.3847441 C6.68321545,10.2731908 6.63635231,10.1770269 6.54262604,10.0962522 C6.44889977,10.0154775 6.33447376,9.9750902 6.19934802,9.9750902 L5,9.97542981 L5,8.55223447 L6.19934802,8.55192493 C6.33447376,8.55192493 6.44889977,8.5115376 6.54262604,8.43076294 C6.63635231,8.34998828 6.68321545,8.24892425 6.68321545,8.12757085 C6.68321545,8.01647698 6.63508634,7.92065756 6.53882813,7.8401126 C6.44256991,7.75956763 6.32683351,7.71929514 6.19161893,7.71929514 L5,7.71952834 L5,5.25364355 L8,5.25392862 L8,14.4567275 Z" id="testtube"></path>
                    <path d="M10.6240234,21.9033203 C11.4690755,21.9033203 12.1512044,21.6526693 12.6704102,21.1513672 C13.1896159,20.6500651 13.4492188,19.9912109 13.4492188,19.1748047 L13.4492188,2.72851562 C13.4492188,1.91210938 13.1896159,1.25325521 12.6704102,0.751953125 C12.1512044,0.250651042 11.4690755,0 10.6240234,0 L2.85742188,0 C1.99804687,0 1.30696615,0.250651042 0.784179688,0.751953125 C0.261393229,1.25325521 0,1.91210938 0,2.72851562 L0,19.1748047 C0,19.9912109 0.261393229,20.6500651 0.784179688,21.1513672 C1.30696615,21.6526693 1.99804687,21.9033203 2.85742188,21.9033203 L10.6240234,21.9033203 Z M10.3232422,20.0449219 L3.12597656,20.0449219 C2.71061198,20.0449219 2.39013672,19.9375 2.16455078,19.7226562 C1.93896484,19.5078125 1.82617188,19.1998698 1.82617188,18.7988281 L1.82617188,3.10449219 C1.82617188,2.70345052 1.93896484,2.39550781 2.16455078,2.18066406 C2.39013672,1.96582031 2.71061198,1.85839844 3.12597656,1.85839844 L10.3232422,1.85839844 C10.7386068,1.85839844 11.059082,1.96582031 11.284668,2.18066406 C11.5102539,2.39550781 11.6230469,2.70345052 11.6230469,3.10449219 L11.6230469,18.7988281 C11.6230469,19.1927083 11.5102539,19.4988607 11.284668,19.7172852 C11.059082,19.9357096 10.7386068,20.0449219 10.3232422,20.0449219 Z" id="􀼔"></path>
                </g>
            </g>
        </g>
    </g>
</svg>